<?xml version="1.0" standalone="no"?>
<!DOCTYPE svg PUBLIC "-//W3C//DTD SVG 1.1//EN" "http://www.w3.org/Graphics/SVG/1.1/DTD/svg11.dtd" >
<svg xmlns="http://www.w3.org/2000/svg">
<metadata>Generated by IcoMoon</metadata>
<defs>
<font id="Domain" horiz-adv-x="1024">
<font-face units-per-em="1024" ascent="960" descent="-64" />
<missing-glyph horiz-adv-x="1024" />
<glyph unicode="&#x20;" d="" horiz-adv-x="512" />
<glyph unicode="&#xe600;" d="M990.77 737.204c-35.184-15.66-73.054-26.182-112.8-30.854 40.564 24.196 71.656 62.764 86.384 108.592-37.992-22.442-80.068-38.814-124.78-47.58-35.822 38.108-86.902 61.954-143.362 61.954-108.522 0-196.488-87.896-196.488-196.368 0-15.436 1.754-30.398 5.088-44.772-163.23 8.182-308.060 86.38-404.898 205.254-16.894-29.104-26.596-62.768-26.596-98.77 0-68.148 34.658-128.342 87.376-163.526-32.202 0.936-62.48 9.814-89.010 24.542 0-0.814 0-1.632 0-2.45 0-95.146 67.794-174.626 157.564-192.63-16.422-4.558-33.784-6.9-51.726-6.9-12.682 0-24.956 1.172-36.93 3.506 24.948-78.080 97.536-134.884 183.452-136.408-67.214-52.712-151.836-84.042-243.944-84.042-15.838 0-31.446 0.822-46.872 2.696 86.962-55.756 190.174-88.248 301.158-88.248 361.358 0 558.96 299.344 558.96 558.952 0 8.532-0.178 16.948-0.584 25.364 38.396 27.702 71.712 62.298 98.008 101.688z" />
<glyph unicode="&#xe601;" d="M946.944 510.669h-136.909v136.858c0 10.445-8.499 18.944-18.893 18.944h-38.963c-10.496 0-18.995-8.499-18.995-18.944v-136.858h-136.909c-10.445 0-18.944-8.499-18.944-18.995v-38.963c0-10.445 8.499-18.944 18.944-18.944h136.909v-136.96c0-10.445 8.499-18.944 18.995-18.944h38.963c10.445 0 18.893 8.499 18.893 18.944v136.96h136.909c10.445 0 18.944 8.499 18.944 18.944v39.014c0 10.445-8.499 18.944-18.944 18.944zM486.861 390.605c-28.774 20.378-54.989 50.278-55.45 59.494 0 16.742 1.485 24.73 39.014 53.965 48.538 37.99 75.213 87.91 75.213 140.698 0 47.821-14.643 90.368-39.475 120.218h19.302c3.994 0 7.885 1.229 11.11 3.584l53.862 39.014c6.707 4.813 9.472 13.363 6.963 21.146-2.56 7.782-9.779 13.107-18.022 13.107h-240.845c-26.368 0-53.146-4.659-79.411-13.67-87.808-30.259-149.197-105.062-149.197-181.862 0-108.8 84.275-191.232 196.915-193.843-2.15-8.602-3.277-17.101-3.277-25.446 0-16.794 4.25-32.666 13.005-47.974-1.024 0-1.997 0-3.072 0-107.366 0-204.339-52.685-241.101-131.123-9.574-20.378-14.49-41.011-14.49-61.389 0-19.814 5.069-38.861 15.053-56.73 23.142-41.37 72.806-73.472 139.93-90.419 34.662-8.755 71.885-13.21 110.541-13.21 34.765 0 67.84 4.506 98.458 13.363 95.488 27.699 157.184 97.997 157.184 179.149 0 77.824-25.037 124.416-92.211 171.93zM234.291 649.216c-5.222 39.834 3.123 75.674 22.989 98.253 12.8 14.643 29.594 22.374 48.435 22.374l2.15-0.051c53.248-1.587 104.192-60.877 113.562-132.25 5.274-39.936-3.635-77.517-23.706-100.403-12.902-14.643-29.44-22.374-49.050-22.374 0 0 0 0-0.051 0h-0.819c-52.173 1.587-104.192 63.181-113.51 134.451zM322.918 102.605c-78.643 0-140.237 48.23-140.237 109.824 0 56.627 71.936 106.291 153.958 106.291h2.202c17.869-0.205 35.226-2.867 51.661-7.885 5.632-3.891 11.059-7.578 16.282-11.162 37.99-25.856 63.078-42.957 70.042-70.349 1.638-6.912 2.458-13.824 2.458-20.531-0.051-70.451-52.634-106.189-156.365-106.189z" />
<glyph unicode="&#xe602;" d="M378.762-14.124h186.322c0 0 0 247.338 0 448.33h125.752l16.318 158.396h-142.068v93.102c0 34.942 23.218 43.16 39.54 43.16 16.27 0 100.174 0 100.174 0v153.784l-138.022 0.552c-153.184 0-188.016-114.798-188.016-188.074v-102.522h-88.618v-158.396h88.618c0-203.408 0-448.332 0-448.332z" />
<glyph unicode="&#xe603;" d="M1024 736c0 42.419-34.381 76.8-76.8 76.8h-870.4c-42.419 0-76.8-34.381-76.8-76.8v-614.4c0-42.419 34.381-76.8 76.8-76.8v0 0h512c14.144 0 25.6 11.456 25.6 25.6s-11.456 25.6-25.6 25.6h-512c-14.144 0-25.6 11.456-25.6 25.6v230.4h307.2v-128c0-14.144 11.456-25.6 25.6-25.6s25.6 11.456 25.6 25.6v358.4c0 14.144-11.456 25.6-25.6 25.6s-25.6-11.456-25.6-25.6v-179.2h-307.2v332.8c0 14.144 11.456 25.6 25.6 25.6h870.4c14.144 0 25.6-11.456 25.6-25.6v-230.4h-306.931v76.8c0 14.144-11.456 25.6-25.6 25.6s-25.6-11.456-25.6-25.6v-102.4c0-14.144 11.456-25.6 25.6-25.6h332.531v-332.8c0-14.144-11.456-25.6-25.6-25.6h-128v179.2c0 14.144-11.456 25.6-25.6 25.6s-25.6-11.456-25.6-25.6v-204.8c0-14.144 11.456-25.6 25.6-25.6h153.6c42.419 0 76.8 34.381 76.8 76.8v614.4z" />
<glyph unicode="&#xe604;" d="M992 851.2h-160v7.048h-0.286c-3.612 49.724-45.068 88.952-95.714 88.952s-92.102-39.228-95.714-88.954h-0.026v-0.35c-0.154-2.214-0.26-4.442-0.26-6.696 0 0 0 0 0 0h-256v7.048h-0.286c-3.612 49.724-45.068 88.952-95.714 88.952s-92.102-39.228-95.714-88.954h-0.026v-0.35c-0.154-2.214-0.26-4.442-0.26-6.696 0 0 0 0 0 0h-160c0 0 0 0 0 0-17.674 0-32-14.328-32-32v-802.742h0.070c1.43-50.834 42.354-91.758 93.188-93.188v-0.070h2.738c0.002 0 0.004 0 0.004 0s0.004 0 0.006 0h831.988c0.002 0 0.004 0 0.006 0s0.004 0 0.004 0h2.738v0.070c50.834 1.43 91.758 42.354 93.188 93.188h0.070v802.742c0 17.672-14.326 32-32 32zM704 851.2c0 17.674 14.326 32 32 32s32-14.326 32-32v-64c0-17.674-14.326-32-32-32s-32 14.326-32 32v64zM256 851.2c0 17.674 14.326 32 32 32s32-14.326 32-32v-64c0-17.674-14.326-32-32-32s-32 14.326-32 32v64zM960 109.716v-55.516h-0.076c0.046-0.994 0.076-1.994 0.076-3 0-35.344-28.652-63.998-63.996-64h-768.008c-35.344 0.002-63.996 28.656-63.996 64 0 1.006 0.030 2.006 0.076 3h-0.076v509h896v-453.484zM960 627.2h-896v160h128c0-2.254 0.106-4.482 0.258-6.696 3.442-49.892 44.976-89.304 95.742-89.304 53.020 0 96 42.98 96 96h256c0-2.254 0.106-4.482 0.258-6.696 3.442-49.892 44.976-89.304 95.742-89.304 53.020 0 96 42.98 96 96h128v-160zM224 308.2h64c17.674 0 32 14.326 32 32v64c0 17.674-14.326 32-32 32h-64c-17.674 0-32-14.326-32-32v-64c0-17.674 14.326-32 32-32zM480 308.2h64c17.674 0 32 14.326 32 32v64c0 17.674-14.326 32-32 32h-64c-17.674 0-32-14.326-32-32v-64c0-17.674 14.326-32 32-32zM736 308.2h64c17.674 0 32 14.326 32 32v64c0 17.674-14.326 32-32 32h-64c-17.674 0-32-14.326-32-32v-64c0-17.674 14.326-32 32-32zM224 115.2h64c17.674 0 32 14.326 32 32v64c0 17.674-14.326 32-32 32h-64c-17.674 0-32-14.326-32-32v-64c0-17.674 14.326-32 32-32zM480 115.2h64c17.674 0 32 14.326 32 32v64c0 17.674-14.326 32-32 32h-64c-17.674 0-32-14.326-32-32v-64c0-17.674 14.326-32 32-32zM736 115.2h64c17.674 0 32 14.326 32 32v64c0 17.674-14.326 32-32 32h-64c-17.674 0-32-14.326-32-32v-64c0-17.674 14.326-32 32-32z" />
<glyph unicode="&#xe605;" d="M993 851.2h-160v7.046h-0.286c-3.612 49.726-45.068 88.954-95.714 88.954s-92.102-39.228-95.714-88.954h-0.026v-7.046h-0.002v6.696c-0.152-2.214-0.258-4.442-0.258-6.696h-256v7.046h-0.286c-3.612 49.726-45.068 88.954-95.714 88.954s-92.102-39.228-95.714-88.954h-0.026v-7.046h-0.002v6.696c-0.152-2.214-0.258-4.442-0.258-6.696h-160c-17.674 0-32-14.326-32-32v-802.742h0.070c1.43-50.834 42.354-91.758 93.188-93.188v-0.070l837.484 0.070c50.834 1.43 91.758 42.354 93.188 93.188h0.070v802.742c0 17.674-14.326 32-32 32zM704 850.7c0 17.674 14.326 32 32 32s32-14.326 32-32v-63c0-17.674-14.326-32-32-32s-32 14.326-32 32v63zM257 850.7c0 17.674 14.326 32 32 32s32-14.326 32-32v-63c0-17.674-14.326-32-32-32s-32 14.326-32 32v63zM961 109.716v-55.516h-0.076c0.046-0.994 0.076-1.994 0.076-3 0-35.346-28.654-64-64-64h-768c-35.346 0-64 28.654-64 64 0 1.006 0.030 2.006 0.076 3h-0.076v509h896v-453.484zM961 627.2h-896v160h128c0-2.254 0.106-4.482 0.258-6.696v6.696h0.002v-6.696c3.44-49.892 44.974-89.304 95.74-89.304 53.020 0 96 42.98 96 96h256c0-2.254 0.106-4.482 0.258-6.696v6.696h0.002v-6.696c3.44-49.892 44.974-89.304 95.74-89.304 53.020 0 96 42.98 96 96h128v-160zM384.006 243.206h96.994v-96.994c0-17.674 14.326-32 32-32s32 14.326 32 32v96.994h96.994c17.674 0 32 14.326 32 32s-14.326 32-32 32h-96.994v96.994c0 17.674-14.326 32-32 32s-32-14.326-32-32v-96.994h-96.994c-17.674 0-32-14.326-32-32s14.326-32 32-32z" />
<glyph unicode="&#xe606;" d="M960.984 659.052c0.002 0.106 0.016 0.21 0.016 0.316 0 17.674-14.326 32-32 32-10.172 0-19.216-4.76-25.076-12.158l-0.010 0.012-199.172-199.16v108.4c0.162 2.282 0.258 4.582 0.258 6.904 0 53.020-42.98 96-96 96l-514.742-0.070c-49.044-1.38-88.864-39.518-92.894-87.854h-0.106v-1.384c-0.152-2.214-0.258-4.44-0.258-6.692 0-2.324 0.096-4.624 0.258-6.906v-370.188c-0.162-2.282-0.258-4.582-0.258-6.906 0-52.1 41.51-94.476 93.258-95.93v-0.070h514.742c53.020 0 96 42.98 96 96 0 2.322-0.096 4.622-0.258 6.904v108.346l198.44-198.1c1.964-2.684 4.328-5.046 7.016-7.004l0.114-0.114 0.014 0.018c5.258-3.792 11.696-6.050 18.674-6.050 17.674 0 32 14.326 32 32 0 0.106-0.014 0.21-0.016 0.316v511.37zM897.014 224.302l-179.718 178.78 179.718 182.38v-361.16zM577 179.368l-445 0.076c-0.994-0.046-1.994-0.076-3-0.076-33.46 0-60.906 25.682-63.742 58.408v331.184c2.836 32.726 30.282 58.408 63.742 58.408l445-0.076c0.994 0.046 1.994 0.076 3 0.076 33.46 0 60.908-25.684 63.742-58.41v-331.18c-2.834-32.726-30.282-58.41-63.742-58.41z" />
<glyph unicode="&#xe607;" d="M895.776 88.064c-1.824 159.808-93.76 297.952-227.36 366.016 41.856 45.568 67.424 106.368 67.424 173.12 0 141.344-114.528 255.904-255.84 256v0c-0.032 0-0.064 0-0.096 0s-0.064 0-0.064 0v0c-141.312-0.096-255.84-114.656-255.84-256 0-66.752 25.568-127.552 67.424-173.12-134.976-68.768-227.424-209.024-227.424-370.88 0-88.352 186.24-160 416-160s416 71.648 416 160c0 1.632-0.096 3.264-0.224 4.864zM480-12.8c-184.128 0-335.232 51.744-350.656 117.696 5.856 137.952 91.232 255.296 211.488 307.424 4.256 1.92 8.544 3.712 12.896 5.408 1.76 0.512 3.424 1.184 5.056 1.952 10.688 5.184 18.080 16.096 18.080 28.768 0 9.6-4.224 18.176-10.912 24.032-1.024 0.896-2.048 1.728-3.168 2.496-2.208 1.792-4.416 3.584-6.528 5.472-41.696 35.232-68.192 87.872-68.192 146.752 0 106.016 85.92 191.968 191.904 192 105.984-0.032 191.904-85.984 191.904-192 0-58.848-26.496-111.52-68.192-146.72-2.112-1.888-4.32-3.712-6.528-5.472-1.12-0.768-2.144-1.6-3.168-2.496-6.688-5.856-10.912-14.432-10.912-24.032 0-12.672 7.392-23.584 18.048-28.768 1.6-0.768 3.296-1.44 5.056-1.952 4.352-1.696 8.64-3.52 12.896-5.408 120.384-52.192 205.856-169.792 211.52-307.968-16.128-65.664-166.88-117.152-350.528-117.152z" />
<glyph unicode="&#xe608;" d="M511.548 233.052v106.178c0 17.674-14.326 32-32 32s-32-14.326-32-32v-103.142c-20.702-10.664-34.868-32.232-34.868-57.124 0-35.476 28.76-64.236 64.236-64.236s64.236 28.76 64.236 64.236c0 22.718-11.804 42.668-29.604 54.088zM895.076 469.942h-1.014c-1.43 50.834-42.354 91.758-93.188 93.188v0.070h-481.566v161.074c0.302 87.988 71.708 159.226 159.768 159.226 78.674 0 144.020-56.876 157.28-131.744l0.118 0.030c3.35-14.092 15.986-24.586 31.102-24.586 17.674 0 32 14.326 32 32 0 2.726-0.378 5.36-1.020 7.886l0.2 0.050c-20.42 102.672-111.006 180.064-219.68 180.064-123.712 0-224-100.288-224-224v-160l-98.742-0.070c-50.834-1.43-91.758-42.354-93.188-93.188h-0.070v-2.738c0-0.002 0-0.004 0-0.004 0-0.002 0-0.004 0-0.006v-444.134h0.068c-0.038-1.116-0.068-2.234-0.068-3.36 0-52.416 42.016-94.992 94.202-95.954v-0.546l644.54 0.070c51.748 1.456 93.258 43.83 93.258 95.93 0 1.292-0.026 2.58-0.078 3.86h0.078v446.882zM767.076-12.8h-517.672c0.060 0.168 0.128 0.332 0.188 0.5h-58.516c-35.344 0-63.998 28.652-64 63.996v0.010c0 1.004 0.030 2.002 0.076 2.996h-0.076v377.498h0.076c-0.046 0.994-0.076 1.994-0.076 3 0 35.346 28.654 64 64 64h575.056c35.346 0 64-28.654 64-64 0-1.006-0.030-2.006-0.076-3h0.076v-55.516c0.318 0.112 0.628 0.24 0.944 0.354v-322.838h-0.076c0.046-0.994 0.076-1.994 0.076-3 0-35.346-28.654-64-64-64z" />
<glyph unicode="&#xe609;" d="M680 787.2c0 88.366-71.634 160-160 160s-160-71.634-160-160 71.634-160 160-160 160 71.634 160 160zM520 691.2c-53.020 0-96 42.98-96 96s42.98 96 96 96 96-42.98 96-96-42.98-96-96-96zM767.102 584.43c1.206 3.37 1.898 6.984 1.898 10.77 0 17.674-14.326 32-32 32h-448c-17.674 0-32-14.326-32-32v0 0 0c0-2.34 0.266-4.614 0.744-6.81 19.020-169.072 100.68-244.496 127.256-264.864v-305.99h0.084c0.872-16.896 14.806-30.336 31.916-30.336h192c17.11 0 31.044 13.44 31.916 30.334h0.084v306.53c27.084 20.988 106.442 95.546 126.102 260.366zM323.99 563.2h377.314c-8.036-52.438-32.88-144.73-109.604-196.634l0.258-0.314c-8.978-5.668-14.96-15.65-14.96-27.052v-288h-128v288c0 11.598-6.192 21.726-15.43 27.338l0.024 0.028c-76.72 51.904-101.566 144.196-109.602 196.634z" />
<glyph unicode="&#xe60a;" d="M918.579 42.086l-64 64c0 0 0 0 0 0l-165.99 165.939-0.256-0.256c-0.614 0.461-1.331 0.563-1.946 0.973 69.683 64.307 113.613 156.16 113.613 258.458 0 194.406-157.594 352-352 352s-352-157.594-352-352 157.594-352 352-352c70.451 0 135.885 20.89 190.925 56.525 1.075-3.123 2.406-6.195 4.454-8.909v0l233.062-233.062c12.595-9.574 30.669-8.653 42.138 2.867 12.544 12.544 12.544 32.87 0 45.466zM160 531.2c0 159.078 128.922 288 288 288s288-128.922 288-288-128.922-288-288-288-288 128.922-288 288z" />
<glyph unicode="&#xe60b;" d="M1024 660.2c0 17.674-14.326 32-32 32-7.798 0-14.94-2.796-20.492-7.432l-0.002 0.004-0.21-0.198c-0.778-0.662-1.524-1.36-2.236-2.092l-455.942-426.584-456.49 426.93c-5.792 5.79-13.792 9.372-22.628 9.372-17.674 0-32-14.326-32-32 0-10.392 4.976-19.6 12.652-25.446l-0.020-0.022 475.428-444.816c0.712-0.732 1.458-1.43 2.236-2.092l0.21-0.198 0.002 0.004c5.552-4.636 12.694-7.432 20.492-7.432 8.836 0 16.836 3.582 22.628 9.372v0l477.964 447.060c6.382 5.852 10.408 14.23 10.408 23.57z" />
<glyph unicode="&#xe60c;" d="M870.276 626.2v-0.022c-1.824 0.324-3.692 0.522-5.608 0.522v0h-159.668v96.5c0 17.674-14.326 32-32 32-1.012 0-2.012-0.060-3-0.152v0.152h-637.334c-17.674 0-32-14.326-32-32v-671c0-17.674 14.326-32 32-32h100.016c14.226-55.578 64.638-96.666 124.652-96.666 60.012 0 110.426 41.088 124.652 96.666h262.364c14.226-55.578 64.638-96.666 124.652-96.666s110.426 41.088 124.652 96.666h100.014c17.674 0 32 14.326 32 32 0 0 0 0 0 0h0.002c-0.002 0 9.882 574-155.394 574zM870.276 563.222v-0.022c0 0 49.606-0.556 75.724-192h-113v191.5h31.668c1.916 0 3.784 0.198 5.608 0.522zM64.666 691.2h576.334v-384h-576.334v384zM256.666-12.466c-35.346 0-64 28.654-64 64s28.654 64 64 64 64-28.654 64-64c0-35.346-28.654-64-64-64zM768.334-12.466c-35.346 0-64 28.654-64 64s28.654 64 64 64c35.346 0 64-28.654 64-64s-28.654-64-64-64zM769 180.866c-60.012 0-110.426-41.088-124.652-96.666h-262.362c-14.226 55.578-64.638 96.666-124.652 96.666-60.012 0-110.426-41.088-124.652-96.666h-68.016v159l605.334 0.152c0.988-0.092 1.988-0.152 3-0.152 17.674 0 32 14.326 32 32v287.5h63.666v-223.5c0-16.998 13.264-30.862 30-31.9v-0.1h154.45c5.29-59.458 8.552-132.714 8.552-223h-68.016c-14.226 55.578-64.64 96.666-124.652 96.666z" />
<glyph unicode="&#xe60d;" d="M161 563.2h703c17.674 0 32 14.326 32 32s-14.326 32-32 32h-703c-17.674 0-32-14.326-32-32s14.326-32 32-32zM864 435.2h-703c-17.674 0-32-14.326-32-32s14.326-32 32-32h703c17.674 0 32 14.326 32 32s-14.326 32-32 32zM864 243.2h-703c-17.674 0-32-14.326-32-32s14.326-32 32-32h703c17.674 0 32 14.326 32 32s-14.326 32-32 32z" />
<glyph unicode="&#xe60e;" d="M511.548 233.052v106.178c0 17.674-14.326 32-32 32s-32-14.326-32-32v-103.142c-20.702-10.664-34.868-32.232-34.868-57.124 0-35.476 28.76-64.236 64.236-64.236s64.236 28.76 64.236 64.236c0 22.718-11.804 42.668-29.604 54.088zM895.006 469.942c-1.438 51.15-42.862 92.268-94.132 93.212v0.046h-97.566v166.666h-0.106c-3.43 117.278-96.998 211.932-213.832 217.098-0.152 0.006-0.302 0.010-0.454 0.018-3.186 0.134-6.388 0.218-9.608 0.218-0.038 0-0.078-0.002-0.116-0.002s-0.078 0.002-0.116 0.002c-3.22 0-6.422-0.084-9.608-0.218-0.152-0.006-0.302-0.010-0.454-0.018-116.834-5.166-210.402-99.82-213.83-217.098h-0.106v-166.666l-98.744-0.070c-50.834-1.43-91.758-42.354-93.188-93.188h-0.070v-2.738c0-0.002 0-0.004 0-0.004 0-0.002 0-0.004 0-0.006v-444.134h0.078c-0.050-1.28-0.078-2.568-0.078-3.86 0-52.416 42.016-94.992 94.202-95.954v-0.046l644.54 0.070c51.748 1.456 93.258 43.83 93.258 95.93 0 1.292-0.026 2.58-0.078 3.86h0.078v446.882h-0.070zM319.308 724.274c0.032 9.396 0.91 18.59 2.498 27.538l0.222-0.054c11.586 65.414 62.936 117.088 128.194 129.096 0.224 0.040 0.448 0.080 0.672 0.12 2.054 0.37 4.124 0.698 6.206 0.986 0.512 0.070 1.026 0.13 1.54 0.196 1.864 0.24 3.736 0.46 5.622 0.636 0.844 0.078 1.696 0.128 2.542 0.194 1.608 0.124 3.214 0.252 4.834 0.328 1.832 0.084 3.676 0.118 5.524 0.14 0.678 0.010 1.348 0.046 2.028 0.046s1.35-0.036 2.028-0.046c1.848-0.022 3.692-0.056 5.524-0.14 1.62-0.076 3.228-0.204 4.834-0.328 0.848-0.064 1.698-0.116 2.542-0.194 1.884-0.176 3.756-0.396 5.62-0.636 0.514-0.066 1.030-0.126 1.542-0.196 2.082-0.29 4.15-0.618 6.204-0.986 0.224-0.040 0.448-0.080 0.674-0.12 65.258-12.008 116.608-63.682 128.194-129.096l0.222 0.054c1.588-8.95 2.466-18.144 2.498-27.542v-161.070h-319.764v161.074zM767.076-12.8h-576c-35.344 0-63.998 28.652-64 63.996v0.010c0 1.004 0.030 2.002 0.076 2.996h-0.076v377.998h0.076c-0.046 0.994-0.076 1.994-0.076 3 0 35.346 28.654 64 64 64h576c35.346 0 64-28.654 64-64 0-1.006-0.030-2.006-0.076-3h0.076v-378h-0.076c0.046-0.994 0.076-1.994 0.076-3 0-35.346-28.654-64-64-64z" />
<glyph unicode="&#xe60f;" d="M895.93 789.942c-1.43 50.834-42.354 91.758-93.188 93.188v0.070h-2.732c-0.004 0-0.006 0-0.010 0s-0.008 0-0.012 0h-159.988v32c0 17.672-14.328 32-32 32s-32-14.326-32-32c0-0.004 0-0.006 0-0.010v-31.99h-192v32c0 17.672-14.328 32-32 32s-32-14.326-32-32c0-0.004 0-0.006 0-0.010v-31.99h-159.988c-0.004 0-0.008 0-0.012 0s-0.006 0-0.010 0h-0.99v-0.026c-51.638-0.53-93.484-41.818-94.93-93.232h-0.070v-773.484h0.070c1.446-51.414 43.292-92.704 94.93-93.232v-0.026l643.742 0.070c50.834 1.43 91.758 42.354 93.188 93.188h0.070v773.484h-0.070zM768-12.8h-576c-35.346 0-64 28.654-64 64 0 1.006 0.030 2.006 0.076 3h-0.076v698h0.076c-0.046 0.994-0.076 1.994-0.076 3 0 35.342 28.648 63.994 63.99 64h576.020c35.342-0.006 63.99-28.656 63.99-64 0-1.006-0.030-2.006-0.076-3h0.076v-698h-0.076c0.046-0.994 0.076-1.994 0.076-3 0-35.346-28.654-64-64-64zM649.372 489.578l-233.416-233.418-105.328 104.916c-12.496 12.496-32.758 12.496-45.254 0s-12.496-32.758 0-45.254l128-127.5c12.496-12.496 32.758-12.496 45.254 0l256 256c12.496 12.496 12.496 32.758 0 45.254-12.498 12.498-32.758 12.498-45.256 0.002zM672 755.2h-384c-17.674 0-32-14.326-32-32s14.326-32 32-32h384c17.674 0 32 14.326 32 32s-14.326 32-32 32z" />
<glyph unicode="&#xe610;" d="M977.592 614.384l0.010 0.022-414.74 254.158c-0.636 0.4-1.276 0.794-1.924 1.178l-0.714 0.438-0.012-0.020c-14.176 8.256-30.644 13.008-48.23 13.008s-34.058-4.754-48.234-13.010l-0.012 0.022-0.698-0.428c-0.726-0.432-1.442-0.878-2.156-1.328l-412.746-254.038c-28.764-16.58-48.142-47.618-48.142-83.204 0-53.018 42.978-95.996 95.996-95.996 11.224 0 21.99 1.944 32.002 5.484v-485.468h0.514c0-17.674 14.326-31.998 32-31.998h703.976c17.674 0 31.998 14.326 31.998 31.998v485.904c10.362-3.826 21.564-5.922 33.254-5.922 53.018 0 95.998 42.978 95.998 95.996 0 35.588-19.376 66.626-48.144 83.206zM447.986-12.802v255.99h127.996v-255.99h-127.996zM639.978 275.19c0 17.674-14.326 32-32 32h-191.992c-17.674 0-31.998-14.326-31.998-32v-287.99h-191.48v491.972l320.358 206.506 319.106-205.698v-492.778h-191.994v287.99zM929.736 499.18c-5.602 0-10.86 1.448-15.44 3.976l-0.004-0.004-0.244 0.156c-1.030 0.58-2.016 1.226-2.972 1.914l-74.74 48.112c0-0.002-0.002-0.008-0.002-0.010l-306.64 197.592-0.494-0.798c-4.908 3.144-10.716 4.996-16.964 5.044l-0.004 0.022c-0.074 0-0.144-0.010-0.216-0.012-0.012 0-0.022 0.002-0.034 0.002-0.014 0-0.028-0.002-0.040-0.002-0.074 0.002-0.148 0.010-0.224 0.012l-0.002-0.024c-5.706-0.048-11.046-1.6-15.666-4.264l-0.010 0.018-0.63-0.406c-0.606-0.368-1.204-0.742-1.782-1.15l-304.228-196.038c0 0.004-0.002 0.006-0.002 0.010l-74.74-48.112c-0.954-0.688-1.94-1.332-2.972-1.914l-0.244-0.158-0.004 0.004c-4.578-2.528-9.838-3.976-15.44-3.976-17.674 0-31.998 14.324-31.998 31.998 0 10.324 4.91 19.48 12.496 25.332l-0.016 0.022 0.26 0.16c0.378 0.286 0.784 0.534 1.178 0.804l2.768 1.706c0.404 0.222 0.796 0.464 1.21 0.668l74.482 45.922c-0.002 0.002-0.004 0.002-0.008 0.004l339.678 209.092c0.528 0.304 1.066 0.588 1.61 0.862 0.192 0.096 0.39 0.186 0.582 0.28 0.824 0.394 1.666 0.752 2.528 1.072 0.36 0.136 0.722 0.274 1.092 0.398 0.424 0.142 0.85 0.272 1.284 0.396 0.578 0.168 1.166 0.318 1.758 0.452 0.322 0.072 0.64 0.15 0.966 0.212 0.808 0.158 1.624 0.278 2.45 0.374 0.266 0.028 0.532 0.058 0.802 0.082 0.946 0.086 1.902 0.144 2.87 0.144s1.922-0.060 2.868-0.144c0.268-0.024 0.534-0.050 0.802-0.082 0.826-0.096 1.646-0.218 2.448-0.374 0.326-0.064 0.644-0.144 0.966-0.212 0.592-0.136 1.178-0.284 1.758-0.452 0.432-0.124 0.86-0.256 1.284-0.396 0.368-0.124 0.728-0.262 1.092-0.398 0.862-0.322 1.706-0.682 2.528-1.072 0.194-0.096 0.39-0.184 0.582-0.28 0.544-0.274 1.084-0.558 1.61-0.862l0.004 0.020 45.438-26.886 295.996-182.226c-0.002-0.002-0.004-0.004-0.006-0.004l74.482-45.922c0.414-0.204 0.804-0.446 1.208-0.668l2.77-1.706c0.39-0.268 0.796-0.518 1.174-0.802l0.26-0.16-0.014-0.022c7.588-5.852 12.496-15.008 12.496-25.332 0.004-17.674-14.322-32-31.996-32z" />
<glyph unicode="&#xe611;" d="M568.19 284.572v0l127.5 128c5.79 5.79 9.372 13.79 9.372 22.628s-3.582 16.836-9.372 22.628v0l-127.5 128c-5.79 5.79-13.79 9.372-22.628 9.372-17.674 0-32-14.326-32-32 0-8.836 3.582-16.836 9.372-22.628v0l73.086-73.372-246.020-0.152c-16.264-1.514-29-15.188-29-31.848s12.736-30.334 29-31.848v-0.152h246.020l-73.086-73.372c-5.79-5.79-9.372-13.79-9.372-22.628 0-17.674 14.326-32 32-32 8.836-0.002 16.836 3.58 22.628 9.372zM1004.102 494.98l0.442 0.442-423.664 423.662c-36.202 36.202-94.122 37.434-131.816 3.716l-0.112 0.112-3.752-3.752c-0.026-0.026-0.054-0.050-0.082-0.078-0.034-0.034-0.066-0.070-0.098-0.104l-415.798-415.796c-0.034-0.034-0.072-0.068-0.106-0.102-0.028-0.028-0.052-0.056-0.080-0.084l-3.746-3.746 0.112-0.112c-33.722-37.694-32.49-95.618 3.714-131.822 0.106-0.106 0.218-0.206 0.324-0.312l415.364-415.364c0.106-0.108 0.206-0.22 0.314-0.328 0.084-0.084 0.174-0.162 0.26-0.248l7.41-7.41 0.436 0.436c36.302-28.966 88.724-27.802 123.72 3.508l0.118-0.118 423.544 423.784c31.3 34.998 32.46 87.416 3.496 123.716zM473.65 13.996l-391.526 391.526c-21.148 23.806-21.12 35.606 0.086 59.446l401.036 401.038c23.872 21.23 35.672 21.212 59.564-0.052l400.958-400.958c21.29-23.928 21.262-35.726-0.088-59.688l-391.24-391.24c-23.070-18.106-55.692-18.13-78.79-0.072z" />
<glyph unicode="&#xe612;" d="M1024 736c0 42.419-34.381 76.8-76.8 76.8h-870.4c-42.419 0-76.8-34.381-76.8-76.8v-614.4c0-42.419 34.381-76.8 76.8-76.8v0 0h870.4c42.419 0 76.8 34.381 76.8 76.8v614.4zM972.8 281.6v-160c0-14.144-11.456-25.6-25.6-25.6h-870.4c-14.144 0-25.6 11.456-25.6 25.6v614.4c0 14.144 11.456 25.6 25.6 25.6h870.4c14.144 0 25.6-11.456 25.6-25.6v-454.4zM614.4 506.662c56.256 0 101.862 45.606 101.862 101.862 0 56.269-45.606 101.875-101.862 101.875s-101.862-45.606-101.862-101.862c0-56.269 45.606-101.875 101.862-101.875zM614.938 659.2c28.275 0 51.2-22.925 51.2-51.2s-22.925-51.2-51.2-51.2c-28.275 0-51.2 22.925-51.2 51.2s22.912 51.2 51.2 51.2zM909.939 245.427l-146.112 146.112c-4.557 7.002-12.442 11.661-21.427 11.661-8.858 0-16.653-4.493-21.248-11.328l-106.752-106.752-209.152 209.152c-4.595 6.835-12.39 11.328-21.248 11.328-7.757 0-14.618-3.52-19.302-8.96l-0.128 0.128-255.667-255.885c-3.994-4.506-6.502-10.381-6.502-16.883 0-14.144 11.456-25.6 25.6-25.6 6.502 0 12.378 2.509 16.896 6.502l0.102-0.102 1.062 1.062c0.026 0.026 0.064 0.064 0.090 0.090l237.517 237.517 286.259-286.259 0.614 0.614c4.634-6.413 12.134-10.624 20.659-10.624 14.144 0 25.6 11.456 25.6 25.6 0 8.858-4.493 16.653-11.328 21.248l-54.874 54.874 91.725 91.725 135.078-135.078 0.422 0.422c4.646-4.685 11.072-7.59 18.176-7.59 14.144 0 25.6 11.456 25.6 25.6 0 8.986-4.659 16.87-11.661 21.427z" />
<glyph unicode="&#xe613;" d="M794.648 561.346c-7.338 0-14.072-2.544-19.408-6.774l-0.008 0.012-263.068-176.544-262.39 176.532c-5.336 4.228-12.070 6.772-19.406 6.772-17.284 0-31.294-14.010-31.294-31.294 0-9.586 4.32-18.152 11.108-23.894l-0.006-0.006 0.050-0.034c1.764-1.486 3.696-2.77 5.76-3.842l277.060-184.756c1.188-0.918 2.436-1.76 3.752-2.502l0.148-0.098 0.006 0.006c4.498-2.502 9.668-3.938 15.18-3.938s10.682 1.436 15.18 3.938l0.004-0.006 0.154 0.102c1.27 0.716 2.474 1.528 3.626 2.41l279.76 185.886c9.032 5.488 15.088 15.392 15.088 26.734 0 17.284-14.012 31.296-31.296 31.296zM1013.71 716.478c0 50.456-39.806 91.602-89.726 93.778v0.012h-0.446c-1.234 0.048-2.466 0.094-3.712 0.094-1.378 0-2.748-0.036-4.11-0.094h-805.69c-1.364 0.058-2.732 0.094-4.11 0.094-51.852 0-93.884-42.032-93.884-93.884 0-2.272 0.094-4.522 0.252-6.754v-550.046c-0.158-2.232-0.252-4.482-0.252-6.754 0-51.852 42.032-93.884 93.884-93.884 3.046 0 6.052 0.162 9.024 0.446h795.844c2.978-0.284 5.992-0.448 9.044-0.448 50.952 0 92.394 40.596 93.816 91.204h0.068v565.984h-0.006c0 0.084 0.004 0.166 0.004 0.252zM895.914 122.076h-766.070c-29.306 3.438-52.41 27.11-54.972 56.676v511.9c2.664 30.752 27.552 55.134 58.526 56.994h758.942c32.792-1.97 58.78-29.176 58.78-62.464 0-0.984-0.030-1.962-0.074-2.934h0.074v-495.098h-0.074c0.044-0.972 0.074-1.95 0.074-2.934 0.002-32.066-24.12-58.486-55.206-62.14z" />
<glyph unicode="&#xe614;" d="M735.502 832.168l-223.528-146.288-223.536 146.288-162.67-106.516v61.618h-125.768v-672.628h129.954v460.96l158.484 103.69 158.554-103.69 0.092-460.96h130.112v460.96l158.306 103.884 158.454-103.744 0.048-461.1h129.996l-0.096 528.204z" />
<glyph unicode="&#xe615;" d="M831.968 336.952c0.006 0.266 0.040 0.526 0.040 0.794 0 17.674-14.326 32-32 32s-32-14.326-32-32h-0.040v-228.136c-2.836-32.728-30.282-58.41-63.742-58.41l-573.226 0.076c-0.994-0.046-1.994-0.076-3-0.076-33.46 0-60.906 25.682-63.742 58.408v459.184c2.836 32.726 30.282 58.408 63.742 58.408l97 0.050c17.206 0.532 31 14.614 31 31.95v31.076h161.028c17.674 0 32 14.326 32 32s-14.326 32-32 32l-193.832-0.040c-17.298-0.432-31.196-14.558-31.196-31.96v-31.076l-97.484-0.038c-52.332-0.796-94.516-43.44-94.516-95.962 0-2.324 0.096-4.624 0.258-6.906v-498.188c-0.162-2.282-0.258-4.582-0.258-6.906 0-52.522 42.184-95.166 94.516-95.962v-0.038l645.024 0.084c51.482 1.75 92.686 44.008 92.686 95.916 0 2.324-0.096 4.624-0.258 6.906v246.846zM863.96 723.232h-63.976v63.976c0 17.682-14.334 32.016-32.016 32.016s-32.016-14.334-32.016-32.016v-63.976h-63.976c-17.682 0-32.016-14.334-32.016-32.016s14.334-32.016 32.016-32.016h63.976v-63.976c0-17.682 14.334-32.016 32.016-32.016s32.016 14.334 32.016 32.016v63.976h63.976c17.682 0 32.016 14.334 32.016 32.016s-14.334 32.016-32.016 32.016zM768 947.018c-141.794 0-256.742-114.948-256.742-256.742s114.948-256.742 256.742-256.742 256.742 114.948 256.742 256.742-114.948 256.742-256.742 256.742zM766.742 498.332c-106.418 0-192.686 86.268-192.686 192.686s86.268 192.686 192.686 192.686 192.686-86.268 192.686-192.686-86.268-192.686-192.686-192.686zM256 339.2c0-88.366 71.634-160 160-160s160 71.634 160 160-71.634 160-160 160-160-71.634-160-160zM513 339.7c0-53.296-43.204-96.5-96.5-96.5s-96.5 43.204-96.5 96.5 43.204 96.5 96.5 96.5 96.5-43.204 96.5-96.5zM218.52 504.684c0-17.674-14.33-32.004-32.004-32.004s-32.004 14.33-32.004 32.004c0 17.676 14.33 32.004 32.004 32.004s32.004-14.33 32.004-32.004z" />
<glyph unicode="&#xe616;" d="M680 787.2c0 88.366-71.634 160-160 160s-160-71.634-160-160 71.634-160 160-160 160 71.634 160 160zM520 691.2c-53.020 0-96 42.98-96 96s42.98 96 96 96 96-42.98 96-96-42.98-96-96-96zM257.744 588.39c19.020-169.072 100.68-244.496 127.256-264.864v-176.326c0-17.674 14.326-32 32-32h192c17.674 0 32 14.326 32 32v176.864c27.084 20.988 106.442 95.546 126.102 260.366 1.206 3.37 1.898 6.984 1.898 10.77 0 17.674-14.326 32-32 32h-448c-17.674 0-32-14.326-32-32v0 0 0c0-2.34 0.266-4.614 0.744-6.81zM701.306 563.2c-8.036-52.438-32.88-144.73-109.604-196.634l0.258-0.314c-8.978-5.668-14.96-15.65-14.96-27.052v-160h-128v160c0 11.598-6.192 21.726-15.43 27.338l0.024 0.028c-76.722 51.904-101.568 144.196-109.604 196.634h377.316zM816.676 327.552c-4.16 2.158-8.874 3.398-13.884 3.398-16.684 0-30.208-13.524-30.208-30.208 0-12.924 8.132-23.92 19.544-28.234l-0.054-0.158c102.938-29.314 168.926-74.474 168.926-125.15 0-88.366-200.576-160-448-160s-448 71.634-448 160c0 51.038 66.924 96.488 171.13 125.782l-0.148 0.416c10.29 4.816 17.434 15.234 17.434 27.344 0 16.684-13.524 30.208-30.208 30.208-5.028 0-9.76-1.246-13.93-3.42-126.326-40.788-208.278-106.368-208.278-180.33 0-123.712 229.23-224 512-224s512 100.288 512 224c0 73.972-81.97 139.562-208.324 180.352z" />
<glyph unicode="&#xe617;" d="M1011.348 237.646l0.020 0.022-475.428 444.816c-0.712 0.732-1.458 1.43-2.236 2.092l-0.21 0.198-0.002-0.004c-5.552 4.636-12.694 7.432-20.492 7.432-8.836 0-16.836-3.582-22.628-9.372v0l-477.964-447.062c-6.382-5.85-10.408-14.228-10.408-23.568 0-17.674 14.326-32 32-32 7.798 0 14.94 2.796 20.492 7.432l0.002-0.004 0.21 0.198c0.778 0.662 1.524 1.36 2.236 2.092l455.942 426.584 456.49-426.93c5.79-5.79 13.792-9.372 22.628-9.372 17.674 0 32 14.326 32 32 0 10.392-4.976 19.6-12.652 25.446z" />
<glyph unicode="&#xe618;" d="M321 913.2c0-17.674-14.326-32-32-32s-32 14.326-32 32c0 17.674 14.326 32 32 32s32-14.326 32-32zM769 434.2c0-17.674-14.326-32-32-32s-32 14.326-32 32c0 17.674 14.326 32 32 32s32-14.326 32-32zM713.406 412.586l-447.034 477.986 48.096 41.996 447.104-477.874zM321-44.8c0-17.674-14.326-32-32-32s-32 14.326-32 32c0 17.674 14.326 32 32 32s32-14.326 32-32zM312.594-66.414l447.034 477.986-48.096 41.996-447.104-477.874z" />
<glyph unicode="&#xe619;" d="M759.572-24.306l-0.198 0.21c-0.662 0.778-1.36 1.524-2.092 2.236l-426.584 455.942 426.93 456.49c5.79 5.79 9.372 13.792 9.372 22.628 0 17.674-14.326 32-32 32-10.392 0-19.6-4.976-25.446-12.652l-0.022 0.020-444.816-475.428c-0.732-0.712-1.43-1.458-2.092-2.236l-0.198-0.21 0.004-0.002c-4.636-5.552-7.432-12.694-7.432-20.492 0-8.836 3.582-16.836 9.372-22.628v0l447.060-477.964c5.85-6.382 14.228-10.408 23.568-10.408 17.674 0 32 14.326 32 32 0 7.798-2.796 14.94-7.432 20.492l0.006 0.002z" />
<glyph unicode="&#xe61a;" d="M1022.63 512.294c0 42.432-34.406 76.838-76.838 76.838h-287.296l-72.973 276.237h-0.026c-7.398 34.714-38.208 60.762-75.123 60.762-36.595 0-67.162-25.6-74.893-59.866l-0.051 0.013-73.088-277.146-291.366-0.205c-40.576-2.086-72.858-35.546-72.858-76.634 0-26.394 13.325-49.677 33.6-63.501l-0.013-0.013 217.728-151.334-93.235-271.795 0.051-0.026c-2.829-8.013-4.454-16.602-4.454-25.587 0-42.432 34.406-76.838 76.838-76.838 16.102 0 31.040 4.979 43.392 13.44l0.013-0.013 238.336 184.704 238.349-184.691c12.352-8.474 27.29-13.44 43.392-13.44 42.432 0 76.838 34.406 76.838 76.838 0 8.986-1.626 17.574-4.454 25.587l0.051 0.026-93.235 271.795 217.715 151.347c20.275 13.824 33.6 37.107 33.6 63.501zM961.792 492.454l-235.891-164.352c0 0-10.867-6.31-10.637-20.71 0.051-3.098 0.64-6.042 1.651-8.794h-0.013l0.128-0.358 99.994-292.454c0.422-1.856 0.704-3.763 0.704-5.747 0-14.144-11.469-25.613-25.613-25.613-7.373 0-13.965 3.162-18.637 8.128l-247.565 191.386c-4.326 3.328-9.664 5.389-15.539 5.389s-15.565-5.363-15.565-5.363l-248.384-192.294c-4.608-4.467-10.867-7.245-17.792-7.245-14.144 0-25.613 11.469-25.613 25.613 0 1.984 0.269 3.891 0.704 5.747l1.664 4.89 97.997 286.618c0.128 0.307 0.205 0.64 0.32 0.947l0.128 0.358h-0.013c1.011 2.752 1.651 5.683 1.651 8.794 0 8.538-4.224 16.051-10.65 20.71v0.013l-0.115 0.077c-0.333 0.23-0.653 0.474-0.998 0.691l-234.765 163.571c-5.811 4.698-9.6 11.789-9.6 19.84 0 14.144 11.469 25.613 25.613 25.613h307.354c11.61 0 21.312 7.782 24.448 18.381l0.102-0.026 79.13 300.506c3.213 10.47 12.851 18.138 24.371 18.138 11.533 0 21.158-7.667 24.371-18.138l81.818-306.509c4.045-9.894 14.566-12.339 21.875-12.339h307.366c14.144 0 25.613-11.469 25.613-25.613 0-8.064-3.802-15.168-9.613-19.853z" />
<glyph unicode="&#xe61b;" d="M990.63 506.816c0 39.782-32.256 72.038-72.038 72.038h-269.338l-68.429 258.995h-0.026c-6.938 32.55-35.814 56.96-70.426 56.96-34.304 0-62.963-24-70.221-56.128l-0.051 0.013-68.531-259.827-273.152-0.192c-38.042-1.946-68.314-33.318-68.314-71.846 0-24.742 12.493-46.566 31.501-59.546l-0.013-0.013 204.134-141.875-87.411-254.81 0.051-0.026c-2.662-7.514-4.186-15.565-4.186-23.987 0-39.782 32.256-72.038 72.038-72.038 15.104 0 29.094 4.659 40.678 12.608l0.013-0.013 223.45 173.171 223.475-173.184c11.584-7.936 25.574-12.608 40.678-12.608 39.782 0 72.038 32.256 72.038 72.038 0 8.422-1.523 16.474-4.186 23.987l0.051 0.026-87.411 254.81 204.109 141.888c19.021 12.992 31.514 34.816 31.514 59.558z" />
<glyph unicode="&#xe61c;" d="M1024 554.048c0 159.058-128.942 288-288 288-90.482 0-171.202-41.738-224-106.998-52.798 65.258-133.518 106.998-224 106.998-159.058 0-288-128.942-288-288 0-85.854 37.58-162.918 97.172-215.682l415.166-415.166 416.218 416.218-0.256 0.256c58.74 52.726 95.7 129.23 95.7 214.374zM895.722 397.020c-1.274-1.294-2.562-2.574-3.866-3.838-0.002-0.002-0.002-0.002-0.004-0.004h0.020l-379.872-379.806-380.744 380.674c-5.186 5.080-10.124 10.41-14.798 15.97-0.002 0.004-0.006 0.006-0.008 0.010-1.16 1.38-2.302 2.774-3.43 4.182-0.012 0.016-0.026 0.032-0.038 0.048-1.116 1.396-2.218 2.806-3.302 4.23-0.020 0.026-0.042 0.054-0.062 0.080-1.076 1.414-2.134 2.84-3.176 4.278-0.028 0.038-0.056 0.076-0.084 0.114-1.028 1.422-2.040 2.858-3.034 4.304-0.042 0.060-0.084 0.12-0.124 0.18-0.98 1.428-1.944 2.868-2.892 4.32-0.052 0.080-0.104 0.158-0.156 0.238-0.934 1.434-1.85 2.88-2.752 4.338-0.062 0.1-0.124 0.198-0.186 0.298-0.884 1.434-1.752 2.88-2.606 4.336-0.074 0.126-0.15 0.252-0.224 0.378-0.834 1.43-1.652 2.872-2.454 4.322-0.086 0.156-0.176 0.312-0.262 0.468-0.784 1.422-1.55 2.856-2.302 4.296-0.098 0.188-0.2 0.374-0.296 0.562-0.734 1.416-1.452 2.842-2.158 4.276-0.106 0.216-0.216 0.432-0.322 0.648-0.686 1.404-1.354 2.82-2.010 4.24-0.116 0.252-0.236 0.502-0.352 0.756-0.638 1.394-1.258 2.8-1.87 4.21-0.122 0.282-0.248 0.562-0.37 0.844-0.592 1.382-1.164 2.774-1.73 4.17-0.128 0.318-0.262 0.634-0.39 0.952-0.542 1.36-1.066 2.73-1.582 4.102-0.136 0.362-0.278 0.722-0.412 1.084-0.498 1.346-0.978 2.702-1.452 4.060-0.136 0.392-0.278 0.78-0.414 1.172-0.456 1.33-0.89 2.67-1.322 4.012-0.138 0.43-0.282 0.856-0.418 1.286-0.412 1.312-0.804 2.632-1.192 3.954-0.136 0.466-0.282 0.928-0.416 1.396-0.37 1.288-0.718 2.584-1.064 3.88-0.136 0.51-0.28 1.016-0.412 1.526-0.328 1.266-0.636 2.54-0.944 3.814-0.132 0.546-0.272 1.090-0.4 1.638-0.292 1.25-0.56 2.506-0.83 3.762-0.124 0.58-0.258 1.156-0.378 1.738-0.254 1.23-0.486 2.468-0.72 3.706-0.116 0.614-0.242 1.226-0.352 1.842-0.22 1.216-0.416 2.44-0.616 3.662-0.104 0.644-0.22 1.282-0.32 1.928-0.184 1.196-0.346 2.398-0.51 3.6-0.094 0.68-0.198 1.356-0.286 2.038-0.152 1.18-0.278 2.366-0.412 3.552-0.080 0.708-0.17 1.414-0.242 2.124-0.12 1.174-0.216 2.354-0.318 3.532-0.064 0.728-0.138 1.454-0.194 2.184-0.092 1.202-0.16 2.412-0.232 3.62-0.042 0.71-0.098 1.416-0.134 2.128-0.068 1.348-0.112 2.704-0.156 4.060-0.020 0.576-0.050 1.148-0.066 1.724-0.048 1.942-0.074 3.884-0.074 5.83 0 123.712 100.288 224 224 224 2.566 0 5.12-0.048 7.664-0.134 0.846-0.028 1.686-0.084 2.53-0.122 1.694-0.076 3.39-0.152 5.074-0.266 1.002-0.068 1.998-0.16 2.998-0.24 1.516-0.122 3.030-0.246 4.536-0.398 1.060-0.108 2.114-0.236 3.172-0.358 1.436-0.166 2.87-0.336 4.296-0.528 1.082-0.146 2.158-0.308 3.234-0.47 1.392-0.208 2.78-0.426 4.162-0.66 1.086-0.184 2.166-0.378 3.246-0.578 1.362-0.252 2.718-0.514 4.072-0.79 1.082-0.22 2.16-0.446 3.236-0.682 1.342-0.294 2.678-0.606 4.010-0.924 1.066-0.254 2.13-0.51 3.19-0.78 1.336-0.34 2.666-0.702 3.992-1.066 1.038-0.284 2.078-0.564 3.11-0.864 1.35-0.392 2.69-0.808 4.030-1.226 0.99-0.308 1.986-0.606 2.97-0.928 1.41-0.46 2.806-0.95 4.202-1.436 0.898-0.314 1.804-0.612 2.696-0.936 1.714-0.622 3.41-1.278 5.102-1.94 0.766-0.3 1.534-0.594 2.296-0.9 1.998-0.806 3.984-1.636 5.952-2.498 0.906-0.396 1.798-0.82 2.696-1.228 1.288-0.584 2.578-1.164 3.854-1.774 0.996-0.476 1.98-0.974 2.968-1.464 1.16-0.574 2.32-1.146 3.468-1.74 1.020-0.528 2.026-1.074 3.036-1.616 1.098-0.59 2.196-1.178 3.282-1.786 1.022-0.572 2.036-1.158 3.048-1.744 1.050-0.608 2.098-1.22 3.136-1.846 1.020-0.614 2.034-1.238 3.042-1.868 1.014-0.632 2.022-1.27 3.024-1.918 1.006-0.65 2.008-1.306 3.004-1.972 0.982-0.656 1.956-1.324 2.928-1.996 0.994-0.688 1.984-1.376 2.966-2.080 0.948-0.678 1.884-1.37 2.82-2.062 0.98-0.724 1.96-1.448 2.928-2.188 0.916-0.702 1.818-1.42 2.724-2.134 0.962-0.76 1.926-1.512 2.874-2.288 0.886-0.724 1.754-1.466 2.628-2.204 0.944-0.794 1.894-1.58 2.826-2.392 0.84-0.73 1.658-1.484 2.486-2.228 1.914-1.718 3.798-3.466 5.652-5.248 0.688-0.662 1.388-1.31 2.066-1.978 0.926-0.912 1.826-1.85 2.734-2.778 0.75-0.764 1.508-1.52 2.246-2.296 0.884-0.928 1.744-1.876 2.612-2.818 0.738-0.802 1.482-1.6 2.21-2.414 0.848-0.948 1.676-1.914 2.508-2.876 0.718-0.832 1.438-1.662 2.146-2.504 0.816-0.974 1.618-1.96 2.418-2.948 0.694-0.856 1.386-1.714 2.068-2.58 0.784-0.996 1.554-2.002 2.322-3.012 0.67-0.882 1.334-1.77 1.992-2.662 0.75-1.020 1.492-2.044 2.226-3.076 0.644-0.906 1.278-1.82 1.91-2.736 0.716-1.042 1.43-2.086 2.128-3.138 0.214-0.324 0.44-0.64 0.654-0.964-0.004-0.008-0.008-0.016-0.012-0.026 3.596-5.48 6.982-11.112 10.094-16.914v0 0c0.002-0.004 25.848-46.448 53.020 0l0.008-0.004c3.114 5.802 6.5 11.436 10.098 16.918-0.004 0.008-0.008 0.016-0.012 0.026 0.212 0.324 0.438 0.638 0.652 0.962 0.7 1.056 1.414 2.1 2.132 3.142 0.63 0.914 1.262 1.824 1.904 2.728 0.736 1.036 1.48 2.064 2.232 3.086 0.654 0.888 1.316 1.77 1.982 2.65 0.77 1.014 1.544 2.024 2.332 3.024 0.678 0.862 1.366 1.716 2.058 2.568 0.802 0.992 1.608 1.982 2.426 2.958 0.702 0.838 1.42 1.664 2.134 2.492 0.836 0.968 1.668 1.936 2.52 2.89 0.722 0.808 1.46 1.6 2.194 2.398 0.872 0.948 1.738 1.902 2.626 2.834 0.732 0.77 1.484 1.52 2.228 2.278 0.916 0.934 1.822 1.876 2.752 2.796 0.634 0.626 1.29 1.232 1.932 1.85 1.918 1.846 3.87 3.658 5.852 5.436 0.804 0.722 1.6 1.454 2.416 2.164 0.936 0.816 1.894 1.608 2.844 2.408 0.868 0.732 1.73 1.47 2.61 2.188 0.95 0.776 1.918 1.532 2.882 2.294 0.902 0.712 1.802 1.428 2.716 2.128 0.97 0.742 1.954 1.468 2.936 2.194 0.934 0.69 1.866 1.38 2.81 2.056 0.986 0.706 1.98 1.398 2.976 2.086 0.968 0.67 1.938 1.334 2.916 1.988 0.998 0.668 2.004 1.326 3.014 1.978 1 0.646 2.006 1.284 3.018 1.914 1.010 0.63 2.024 1.254 3.044 1.868 1.038 0.624 2.084 1.236 3.132 1.842 1.016 0.588 2.032 1.178 3.058 1.75 1.082 0.604 2.176 1.192 3.268 1.778 1.014 0.544 2.026 1.094 3.048 1.622 1.146 0.594 2.306 1.164 3.462 1.736 0.988 0.49 1.972 0.99 2.97 1.464 1.272 0.606 2.558 1.186 3.844 1.768 0.904 0.41 1.8 0.836 2.71 1.234 1.952 0.856 3.922 1.678 5.904 2.478 0.778 0.314 1.564 0.616 2.348 0.922 1.692 0.662 3.384 1.318 5.096 1.938 0.896 0.326 1.804 0.624 2.706 0.94 1.394 0.486 2.786 0.974 4.192 1.432 0.988 0.322 1.988 0.622 2.982 0.932 1.336 0.416 2.672 0.83 4.018 1.222 1.036 0.3 2.080 0.582 3.124 0.868 1.322 0.362 2.644 0.722 3.976 1.062 1.064 0.27 2.134 0.526 3.204 0.782 1.332 0.318 2.666 0.628 4.006 0.922 1.074 0.236 2.152 0.462 3.232 0.682 1.354 0.276 2.712 0.54 4.076 0.792 1.080 0.2 2.16 0.394 3.246 0.578 1.384 0.234 2.772 0.45 4.164 0.66 1.076 0.162 2.15 0.324 3.232 0.47 1.426 0.192 2.86 0.362 4.294 0.528 1.058 0.122 2.114 0.25 3.176 0.358 1.504 0.152 3.016 0.274 4.53 0.396 1 0.080 1.998 0.174 3.002 0.242 1.684 0.114 3.378 0.19 5.070 0.266 0.844 0.038 1.684 0.094 2.532 0.122 2.544 0.086 5.098 0.134 7.664 0.134 123.712 0 224-100.288 224-224 0-1.954-0.026-3.9-0.076-5.842-0.016-0.632-0.050-1.26-0.072-1.89-0.044-1.308-0.086-2.616-0.152-3.918-0.038-0.736-0.094-1.468-0.14-2.202-0.072-1.19-0.14-2.382-0.23-3.568-0.058-0.766-0.136-1.528-0.204-2.292-0.1-1.15-0.194-2.3-0.312-3.444-0.078-0.762-0.174-1.52-0.26-2.28-0.128-1.138-0.252-2.28-0.398-3.412-0.096-0.752-0.21-1.498-0.314-2.246-0.158-1.138-0.312-2.278-0.488-3.41-0.114-0.73-0.242-1.454-0.362-2.182-0.188-1.144-0.374-2.29-0.58-3.428-0.128-0.712-0.272-1.418-0.408-2.128-0.218-1.148-0.436-2.294-0.672-3.436-0.142-0.688-0.3-1.372-0.448-2.060-0.252-1.156-0.502-2.314-0.77-3.464-0.154-0.66-0.322-1.314-0.482-1.972-0.284-1.168-0.57-2.336-0.872-3.498-0.166-0.634-0.342-1.264-0.514-1.896-0.318-1.178-0.638-2.356-0.974-3.526-0.174-0.602-0.358-1.2-0.536-1.802-0.354-1.194-0.712-2.386-1.086-3.572-0.18-0.57-0.368-1.134-0.552-1.702-0.392-1.208-0.788-2.414-1.198-3.612-0.186-0.54-0.38-1.078-0.57-1.616-0.428-1.218-0.862-2.434-1.312-3.642-0.19-0.51-0.386-1.016-0.578-1.524-0.468-1.23-0.94-2.458-1.43-3.678-0.192-0.48-0.39-0.956-0.586-1.434-0.508-1.242-1.022-2.48-1.55-3.71-0.192-0.448-0.39-0.892-0.586-1.338-0.548-1.254-1.104-2.502-1.676-3.744-0.19-0.414-0.386-0.826-0.578-1.24-0.592-1.266-1.192-2.528-1.808-3.782-0.186-0.38-0.376-0.756-0.564-1.134-0.636-1.28-1.282-2.552-1.942-3.818-0.182-0.348-0.366-0.692-0.548-1.040-0.682-1.288-1.372-2.572-2.078-3.844-0.174-0.316-0.352-0.628-0.528-0.944-0.726-1.298-1.464-2.588-2.216-3.872-0.166-0.284-0.336-0.568-0.504-0.852-0.774-1.308-1.562-2.608-2.362-3.898-0.154-0.248-0.31-0.496-0.464-0.744-0.824-1.316-1.66-2.624-2.51-3.92-0.146-0.222-0.292-0.444-0.438-0.666-0.87-1.318-1.754-2.628-2.652-3.926-0.132-0.192-0.266-0.384-0.4-0.576-0.92-1.324-1.854-2.636-2.802-3.938-0.118-0.164-0.238-0.326-0.358-0.49-0.97-1.324-1.952-2.636-2.95-3.938-0.106-0.14-0.214-0.278-0.32-0.418-1.020-1.324-2.052-2.636-3.1-3.936-0.090-0.11-0.178-0.222-0.268-0.334-1.070-1.322-2.154-2.63-3.252-3.928-0.076-0.088-0.15-0.178-0.224-0.266-1.122-1.32-2.258-2.626-3.41-3.918-0.054-0.062-0.108-0.122-0.164-0.184-1.172-1.314-2.362-2.614-3.564-3.902-0.038-0.040-0.076-0.082-0.114-0.122-1.222-1.306-2.46-2.596-3.714-3.87-0.014-0.014-0.036-0.036-0.058-0.058z" />
<glyph unicode="&#xe61d;" d="M1025 554.048c0 159.058-128.942 288-288 288-90.482 0-171.202-41.738-224-106.998-52.798 65.258-133.518 106.998-224 106.998-159.058 0-288-128.942-288-288 0-85.854 37.58-162.918 97.172-215.682l415.166-415.166 416.218 416.218-0.256 0.256c58.74 52.726 95.7 129.23 95.7 214.374z" />
<glyph unicode="&#xe61e;" d="M921.062 154.138c0 18.803-6.835 35.981-18.112 49.28l0.026 0.026-2.099 2.24c-0.845 0.909-1.664 1.856-2.547 2.726l-121.741 130.445c-1.114 0.986-2.112 2.074-3.034 3.251l-0.653 0.691-0.038 0.141c-3.021 4.211-4.864 9.344-4.864 14.925 0 1.779 0.192 3.52 0.538 5.197v67.29c-0.179-0.064-0.346-0.166-0.538-0.23v81.882c0 131.802-90.573 242.419-212.851 273.114 5.107 10.278 8.051 21.824 8.051 34.086 0 42.419-34.381 76.8-76.8 76.8s-76.8-34.381-76.8-76.8c0-12.262 2.944-23.808 8.051-34.086-122.278-30.694-212.851-141.312-212.851-273.114v-81.869c-0.179 0.064-0.346 0.166-0.538 0.23v-67.29c0.346-1.69 0.538-3.418 0.538-5.21 0-5.594-1.843-10.726-4.877-14.938l-0.038-0.141-0.653-0.691c-0.922-1.165-1.92-2.253-3.034-3.251l-121.741-130.445c-0.883-0.87-1.702-1.805-2.547-2.726l-2.099-2.24 0.026-0.026c-11.277-13.299-18.112-30.477-18.112-49.28 0-13.99 3.827-27.072 10.419-38.349h-0.013c0 0 1.818-5.85 10.982-14.541 6.016-6.234 13.082-11.418 20.915-15.322 37.453-22.246 117.99-50.086 290.048-58.074 0-0.755-0.077-1.485-0.077-2.24 0-56.55 45.85-102.4 102.4-102.4s102.4 45.85 102.4 102.4c0 0.755-0.141 1.485-0.154 2.24 172.109 7.987 252.659 35.827 290.112 58.086 7.834 3.904 14.899 9.088 20.915 15.322 9.165 8.691 10.982 14.541 10.982 14.541h-0.013c6.592 11.277 10.419 24.346 10.419 38.349zM460.8 819.2c0 14.144 11.456 25.6 25.6 25.6s25.6-11.456 25.6-25.6c0-14.144-11.456-25.6-25.6-25.6s-25.6 11.456-25.6 25.6zM232.614 304.013c1.92 1.882 3.763 3.853 5.478 5.939l0.026 0.026c9.6 11.674 15.744 26.253 17.037 42.214 0.499 1.997 0.845 4.058 0.845 6.208v153.6c0.576 127.334 102.925 230.4 230.4 230.4s229.824-103.066 230.4-230.4v-153.6c0-2.15 0.346-4.211 0.845-6.208 1.293-15.962 7.437-30.541 17.037-42.214v0l0.026-0.026c1.715-2.086 3.558-4.045 5.478-5.939l126.413-137.114c2.355-3.891 3.802-8.41 3.802-13.299 0-6.771-2.675-12.89-6.976-17.472-1.28-1.37-2.79-2.79-4.378-4.16-136.026-64.755-372.646-55.168-372.646-55.168s-236.621-9.587-372.646 55.168c-1.587 1.37-3.098 2.79-4.378 4.16-4.301 4.582-6.976 10.701-6.976 17.472 0 4.89 1.446 9.408 3.814 13.286l-0.026 0.013 126.426 137.114zM536.538 25.6c0-27.686-22.451-50.138-50.138-50.138s-50.138 22.451-50.138 50.138c0 0.192 0.051 0.371 0.051 0.563 16.090-0.333 32.602-0.563 50.086-0.563s34.010 0.23 50.086 0.563c0-0.192 0.051-0.371 0.051-0.563z" />
<glyph unicode="&#xe61f;" d="M1014.586-21.914l-33.99 33.99c-0.004 0.004-0.006 0.008-0.010 0.010l-184.586 184.58c62.332 72.738 100 167.232 100 270.534 0 229.75-186.25 416-416 416s-416-186.25-416-416 186.25-416 416-416c103.412 0 197.998 37.746 270.766 100.196l221.658-221.66c12.606-9.574 30.644-8.64 42.152 2.866 12.562 12.562 12.564 32.92 0.010 45.484zM480 115.2c-194.404 0-352 157.596-352 352s157.596 352 352 352 352-157.596 352-352-157.596-352-352-352zM608.994 500.194v0 0h-257.988c-17.674 0-32-14.326-32-32s14.326-32 32-32c0 0 0.002 0 0.002 0h257.984c0 0 0.002 0 0.002 0 17.674 0 32 14.326 32 32s-14.326 32-32 32z" />
<glyph unicode="&#xe620;" d="M1014.586-21.914l-33.99 33.99c-0.004 0.004-0.006 0.008-0.010 0.010l-184.586 184.58c62.332 72.738 100 167.232 100 270.534 0 229.75-186.25 416-416 416s-416-186.25-416-416 186.25-416 416-416c103.412 0 197.998 37.746 270.766 100.196l221.658-221.66c12.606-9.574 30.644-8.64 42.152 2.866 12.562 12.562 12.564 32.92 0.010 45.484zM480 115.2c-194.404 0-352 157.596-352 352s157.596 352 352 352 352-157.596 352-352-157.596-352-352-352zM608.994 500.194v0 0h-96.994v96.992c0 0 0 0.002 0 0.002 0 17.674-14.326 32-32 32s-32-14.326-32-32v0 0-96.994h-96.994c-17.674 0-32-14.326-32-32s14.326-32 32-32c0 0 0.002 0 0.002 0h96.992v-96.994c0-17.674 14.326-32 32-32s32 14.326 32 32c0 0 0 0.002 0 0.002v96.992h96.992c0 0 0.002 0 0.002 0 17.674 0 32 14.326 32 32s-14.326 32-32 32z" />
<glyph unicode="&#xe621;" d="M1014.586-21.914l-33.99 33.99c-0.004 0.004-0.006 0.008-0.010 0.010l-184.586 184.58c62.332 72.738 100 167.232 100 270.534 0 229.75-186.25 416-416 416s-416-186.25-416-416 186.25-416 416-416c103.412 0 197.998 37.746 270.766 100.196l221.658-221.66c12.606-9.574 30.644-8.64 42.152 2.866 12.562 12.562 12.564 32.92 0.010 45.484zM480 115.2c-194.404 0-352 157.596-352 352s157.596 352 352 352 352-157.596 352-352-157.596-352-352-352zM617.622 585.828l-169.432-169.432-73.246 72.832c-0.11 0.114-0.204 0.238-0.316 0.35-12.496 12.496-32.758 12.496-45.254 0s-12.496-32.758 0-45.254l96.25-95.75c12.496-12.496 32.758-12.496 45.254 0l192 192c12.496 12.496 12.496 32.758 0 45.254-12.498 12.496-32.758 12.496-45.256 0z" />
<glyph unicode="&#xe622;" d="M1015.586-21.914l-33.99 33.99c-0.004 0.004-0.006 0.008-0.010 0.010l-185.196 185.19c62.048 72.658 99.53 166.928 99.53 269.964 0 229.728-186.232 415.96-415.96 415.96s-415.96-186.232-415.96-415.96 186.232-415.96 415.96-415.96c103.656 0 198.446 37.924 271.278 100.642l222.184-222.186c12.606-9.574 30.644-8.64 42.152 2.866 12.564 12.562 12.566 32.92 0.012 45.484zM480.5 114.2c-194.68 0-352.5 157.82-352.5 352.5s157.82 352.5 352.5 352.5 352.5-157.82 352.5-352.5-157.82-352.5-352.5-352.5zM576.21 628.2c-38.162 0-72.384-16.788-95.75-43.356-23.366 26.568-57.588 43.356-95.75 43.356-70.416 0-127.5-57.084-127.5-127.5 0-35.802 14.776-68.136 38.538-91.294l-0.018-0.018 159.416-152.376c5.838-7.766 15.1-12.81 25.564-12.81 10.548 0 19.874 5.126 25.704 12.996l159.17 152.19-0.2 0.22c23.638 23.144 38.326 55.396 38.326 91.092 0 70.416-57.084 127.5-127.5 127.5zM480.656 320.276l-142.334 135.356c-0.074 0.076-0.156 0.142-0.23 0.22l-0.21 0.198h0.020c-10.954 11.486-17.694 27.026-17.694 44.152 0 35.346 28.654 64 64 64 29.174 0 53.772-19.53 61.478-46.222 0.002-0.002 6.188-22.944 32.522-22.944 27.834 0 36.006 22.944 36.006 22.944l0.008-0.012c7.702 26.7 32.308 46.234 61.488 46.234 35.346 0 64-28.654 64-64 0-17.124-6.74-32.666-17.694-44.152h1.414l-142.774-135.774z" />
<glyph unicode="&#xe623;" d="M831.776 88.064c-1.824 159.808-93.76 297.952-227.36 366.016 41.856 45.568 67.424 106.368 67.424 173.12 0 141.344-114.528 255.904-255.84 256v0c-0.032 0-0.064 0-0.096 0s-0.064 0-0.064 0v0c-141.312-0.096-255.84-114.656-255.84-256 0-66.752 25.568-127.552 67.424-173.12-134.976-68.768-227.424-209.024-227.424-370.88 0-88.352 186.24-160 416-160s416 71.648 416 160c0 1.632-0.096 3.264-0.224 4.864zM416-12.8c-184.128 0-335.232 51.744-350.656 117.696 5.856 137.952 91.232 255.296 211.488 307.424 4.256 1.92 8.544 3.712 12.896 5.408 1.76 0.512 3.424 1.184 5.056 1.952 10.688 5.184 18.080 16.096 18.080 28.768 0 9.6-4.224 18.176-10.912 24.032-1.024 0.896-2.048 1.728-3.168 2.496-2.208 1.792-4.416 3.584-6.528 5.472-41.696 35.232-68.192 87.872-68.192 146.752 0 106.016 85.92 191.968 191.904 192 105.984-0.032 191.904-85.984 191.904-192 0-58.848-26.496-111.52-68.192-146.72-2.112-1.888-4.32-3.712-6.528-5.472-1.12-0.768-2.144-1.6-3.168-2.496-6.688-5.856-10.912-14.432-10.912-24.032 0-12.672 7.392-23.584 18.048-28.768 1.6-0.768 3.296-1.44 5.056-1.952 4.352-1.696 8.64-3.52 12.896-5.408 120.384-52.192 205.856-169.792 211.52-307.968-16.128-65.664-166.88-117.152-350.528-117.152zM1024 659.2c0-17.664-14.336-32-32-32s-32 14.336-32 32c0 17.664 14.336 32 32 32s32-14.336 32-32zM802.816 691.2h189.184v-64h-189.184v64zM1024 467.2c0-17.664-14.336-32-32-32s-32 14.336-32 32c0 17.664 14.336 32 32 32s32-14.336 32-32zM800 499.2h192v-64h-192v64zM832 659.2c0-17.664-14.336-32-32-32s-32 14.336-32 32c0 17.664 14.336 32 32 32s32-14.336 32-32zM832 467.2c0-17.664-14.336-32-32-32s-32 14.336-32 32c0 17.664 14.336 32 32 32s32-14.336 32-32zM895.84 275.2c0-17.664-14.336-32-32-32s-32 14.336-32 32c0 17.664 14.336 32 32 32s32-14.336 32-32zM1024 275.2c0-17.664-14.336-32-32-32s-32 14.336-32 32c0 17.664 14.336 32 32 32s32-14.336 32-32zM863.84 307.2h128.16v-64h-128.16v64z" />
<glyph unicode="&#xe624;" d="M552.384 244.818l0.046 0.046c36.84-36.84 96.156-37.452 133.776-1.89l0.020-0.020 0.78 0.78c0.394 0.38 0.8 0.74 1.188 1.13 0.492 0.492 0.96 0.998 1.44 1.498l133.094 133.094c0.5 0.48 1.006 0.948 1.498 1.44 37.49 37.49 37.49 98.274 0 135.764l-367.93 367.932-0.27-0.27c-37.718 31.74-94.098 29.882-129.602-5.622-0.492-0.492-0.96-0.998-1.44-1.498l-133.094-133.094c-0.5-0.48-1.006-0.948-1.498-1.44-0.388-0.388-0.748-0.794-1.13-1.188l-0.78-0.78 0.020-0.020c-33.644-35.592-34.89-90.586-3.732-127.614l-0.318-0.318 164.968-164.968-333.938-333.936c-2.172-1.312-4.236-2.87-6.11-4.744-12.496-12.496-12.496-32.758 0-45.254s32.758-12.496 45.254 0l339.364 339.364 158.394-158.392zM579.752 308.496l-4.472 4.472 180.798 180.798 4.896-4.896c20.248-25.132 18.71-62.006-4.63-85.344l-88.656-88.656-0.054 0.054c-0.67-0.736-1.356-1.464-2.068-2.174-23.482-23.488-60.674-24.902-85.814-4.254zM710.822 539.020l-180.798-180.798-226.272 226.274 180.798 180.798 226.272-226.274zM434.396 815.446l4.898-4.898-180.798-180.798-4.47 4.47c-20.648 25.14-19.236 62.332 4.248 85.818 0.712 0.712 1.44 1.396 2.174 2.068l-0.054 0.054 88.656 88.656c23.34 23.34 60.214 24.878 85.346 4.63zM925.37 51.2l-380.5-0.076c-0.5 0.024-0.994 0.076-1.5 0.076-17.674 0-32-14.326-32-32s14.326-32 32-32c0.506 0 1 0.052 1.5 0.076v-0.076h380.5c17.674 0 32 14.326 32 32s-14.328 32-32 32z" />
<glyph unicode="&#xe625;" d="M896 146.45c0 17.674-14.326 32-32 32-8.836 0-16.836-3.582-22.628-9.372v0l-73.372-73.084v755.456c0 17.674-14.326 32-32 32s-32-14.326-32-32c0-0.004 0-0.006 0-0.010v-755.448l-73.372 73.086c-5.79 5.79-13.79 9.372-22.628 9.372-17.674 0-32-14.326-32-32 0-8.836 3.582-16.836 9.372-22.628v0l128-127.5c5.79-5.79 13.79-9.372 22.628-9.372s16.836 3.582 22.628 9.372v0l128 127.5c5.79 5.792 9.372 13.792 9.372 22.628zM438.628 746.578v0l-128 127.5c-5.79 5.79-13.79 9.372-22.628 9.372s-16.836-3.582-22.628-9.372v0l-128-127.5c-5.79-5.792-9.372-13.792-9.372-22.628 0-17.674 14.326-32 32-32 8.836 0 16.836 3.582 22.628 9.372v0l73.372 73.086v-755.458c0-17.674 14.326-32 32-32s32 14.326 32 32c0 0.004 0 0.006 0 0.010v755.448l73.372-73.086c5.79-5.79 13.79-9.372 22.628-9.372 17.674 0 32 14.326 32 32 0 8.836-3.582 16.836-9.372 22.628z" />
<glyph unicode="&#xe626;" d="M960.060 852.942c-1.448 51.512-43.448 92.864-95.22 93.24v1.018h-707.71v-1.070c-51.75-1.454-93.26-43.83-93.26-95.93 0-2.324 0.096-4.624 0.258-6.906v-817.644c-0.162-2.282-0.258-4.582-0.258-6.906 0-53.020 42.98-96 96-96 3.114 0 6.188 0.166 9.228 0.456h685.784c3.044-0.292 6.126-0.458 9.246-0.458 52.102 0 94.476 41.51 95.93 93.26h0.070v836.94h-0.068zM839.676-12.8h-655.336c-29.966 3.516-53.592 27.72-56.21 57.952v778.64c2.834 32.726 30.28 58.408 63.74 58.408h58.516c-0.118 0.336-0.252 0.666-0.376 1h523.978c-0.122-0.334-0.256-0.664-0.376-1h58.516c35.346 0 64-28.654 64-64 0-1.006-0.030-2.006-0.076-3h0.076v-761.458h-0.076c0.046-0.994 0.076-1.994 0.076-3 0.002-32.79-24.664-59.804-56.452-63.542zM736.13 755.2h-448c-17.672 0-31.998-14.324-32-31.996v0-192.336h0.016c0.18-17.518 14.422-31.668 31.984-31.668h448c17.562 0 31.804 14.15 31.984 31.668h0.016v192.336c-0.004 17.672-14.33 31.996-32 31.996zM320.13 691.2h384v-128h-384v128zM361.058 305.912v1.288h-72.928c-17.674 0-32-14.326-32-32s14.326-32 32-32c3.074 0 6.038 0.458 8.852 1.268h46.294c2.814-0.81 5.778-1.268 8.852-1.268s6.038 0.458 8.852 1.268h0.076v0.020c13.324 3.868 23.072 16.142 23.072 30.712s-9.748 26.844-23.070 30.712zM480.13 243.2c3.074 0 6.038 0.458 8.852 1.268h46.294c2.814-0.81 5.778-1.268 8.852-1.268s6.038 0.458 8.852 1.268h0.076v0.020c13.324 3.868 23.072 16.142 23.072 30.712s-9.748 26.844-23.072 30.712v1.288h-72.928c-17.674 0-32-14.326-32-32s14.328-32 32.002-32zM745.058 305.912v1.288h-72.928c-17.674 0-32-14.326-32-32s14.326-32 32-32c3.074 0 6.038 0.458 8.852 1.268h46.294c2.814-0.81 5.778-1.268 8.852-1.268s6.038 0.458 8.852 1.268h0.076v0.020c13.324 3.868 23.072 16.142 23.072 30.712s-9.748 26.844-23.070 30.712zM361.058 433.184v1.288h-72.928c-17.674 0-32-14.326-32-32s14.326-32 32-32c3.074 0 6.038 0.458 8.852 1.268h46.294c2.814-0.81 5.778-1.268 8.852-1.268s6.038 0.458 8.852 1.268h0.076v0.020c13.324 3.868 23.072 16.142 23.072 30.712s-9.748 26.844-23.070 30.712zM480.13 434.472c-17.674 0-32-14.326-32-32s14.326-32 32-32c3.074 0 6.038 0.458 8.852 1.268h46.294c2.814-0.81 5.778-1.268 8.852-1.268s6.038 0.458 8.852 1.268h0.076v0.020c13.324 3.868 23.072 16.142 23.072 30.712s-9.748 26.844-23.072 30.712v1.288h-72.926zM745.058 433.184v1.288h-72.928c-17.674 0-32-14.326-32-32s14.326-32 32-32c3.074 0 6.038 0.458 8.852 1.268h46.294c2.814-0.81 5.778-1.268 8.852-1.268s6.038 0.458 8.852 1.268h0.076v0.020c13.324 3.868 23.072 16.142 23.072 30.712s-9.748 26.844-23.070 30.712zM361.058 177.112v1.288h-72.928c-17.674 0-32-14.326-32-32s14.326-32 32-32c3.074 0 6.038 0.458 8.852 1.268h46.296c2.814-0.81 5.778-1.268 8.852-1.268s6.038 0.458 8.852 1.268h0.076v0.020c13.324 3.868 23.072 16.142 23.072 30.712s-9.75 26.846-23.072 30.712zM745.058 177.112v1.288h-264.928c-17.674 0-32-14.326-32-32s14.326-32 32-32c3.074 0 6.038 0.458 8.852 1.268h238.296c2.814-0.81 5.778-1.268 8.852-1.268s6.038 0.458 8.852 1.268h0.076v0.020c13.324 3.868 23.072 16.142 23.072 30.712s-9.75 26.846-23.072 30.712z" />
<glyph unicode="&#xe627;" d="M896 307.2c70.692 0 128 57.308 128 128s-57.308 128-128 128h-22.734c-4.496 12.764-9.662 25.212-15.43 37.316l15.702 15.702c49.988 49.988 49.988 131.032 0 181.020s-131.032 49.988-181.020 0l-15.528-15.528c-12 5.748-24.34 10.902-36.992 15.398v22.092c0 70.692-57.308 128-128 128s-128-57.308-128-128v-21.732c-13.002-4.58-25.676-9.856-37.994-15.756l-15.526 15.526c-49.988 49.988-131.032 49.988-181.020 0s-49.988-131.032 0-181.020l15.702-15.702c-5.768-12.106-10.934-24.552-15.43-37.316h-21.73c-70.692 0-128-57.308-128-128s57.308-128 128-128h22.090c4.496-12.652 9.652-24.99 15.398-36.992l-16.028-16.028c-49.988-49.988-49.988-131.032 0-181.020s131.032-49.988 181.020 0l16.202 16.202c12.106-5.768 24.552-10.934 37.316-15.43v-22.732c0-70.692 57.308-128 128-128s128 57.308 128 128v23.092c12.414 4.412 24.526 9.456 36.316 15.074l16.204-16.204c49.988-49.988 131.032-49.988 181.020 0s49.988 131.032 0 181.020l-16.028 16.028c5.748 12 10.902 24.34 15.398 36.992h23.092zM828.284 208.926v0l-0.008-0.010c24.834-25.216 24.726-65.784-0.344-90.854s-65.638-25.178-90.854-0.344l0.698 0.698-49.618 49.618c-33.516-22.144-71.432-38.162-112.168-46.43v-63.978c0.004 0 0.008 0.002 0.012 0.002v-6.428h-0.012c-0.27-35.39-29.032-64-64.488-64s-64.218 28.61-64.488 64h0.986v70.408c-40.98 8.318-79.106 24.48-112.77 46.832l-45.586-45.586c0.004-0.002 0.008-0.004 0.010-0.008l-4.428-4.428-0.010 0.010c-25.216-24.834-65.784-24.726-90.854 0.344s-25.178 65.638-0.344 90.854l0.698-0.698 50.116 50.116c-22.144 33.516-38.162 71.432-46.43 112.168h-64.976c0-0.004 0.002-0.008 0.002-0.012h-5.428v0.012c-35.39 0.27-64 29.032-64 64.488s28.61 64.218 64 64.488v-0.988h70.408c8.27 40.736 24.29 78.652 46.434 112.166l-46.19 46.19c-0.002-0.004-0.004-0.008-0.008-0.010l-3.928 3.928 0.010 0.010c-24.836 25.216-24.726 65.784 0.344 90.854s65.638 25.178 90.854 0.344l-0.698-0.698 50.014-50.014c33.664 22.35 71.79 38.51 112.772 46.828v65.14c-0.004 0-0.008-0.002-0.012-0.002v5.264h0.012c0.27 35.39 29.032 64 64.488 64s64.218-28.61 64.488-64h-0.988v-70.408c40.736-8.27 78.652-24.29 112.166-46.434l45.772 45.772c-0.004 0.002-0.008 0.004-0.010 0.008l3.848 3.848 0.010-0.010c25.216 24.834 65.784 24.726 90.854-0.344s25.178-65.638 0.344-90.854l-0.698 0.698-49.516-49.516c22.35-33.664 38.51-71.79 46.828-112.772h64.144c0 0.004-0.002 0.008-0.002 0.012h6.26v-0.012c35.39-0.27 64-29.032 64-64.488s-28.61-64.218-64-64.488v0.988h-70.408c-8.318-40.98-24.48-79.106-46.832-112.77l45.168-45.168c0.002 0.004 0.004 0.008 0.008 0.010l4.348-4.346zM515.12 627.2c-104.316 0-188.88-84.564-188.88-188.88s84.564-188.88 188.88-188.88 188.88 84.562 188.88 188.88-84.564 188.88-188.88 188.88zM512 307.2c-70.692 0-128 57.308-128 128s57.308 128 128 128 128-57.308 128-128-57.308-128-128-128z" />
<glyph unicode="&#xe628;" d="M832.488 240.798c0 8.19-3.124 16.38-9.372 22.628-7.268 7.268-17.16 10.278-26.628 9.092v0.282l-180.666 0.354c-8.19 0-16.38-3.124-22.628-9.372-12.496-12.496-12.496-32.758 0-45.254 6.248-6.248 14.438-9.372 22.628-9.372v0l104.616-0.204c-138.032-128.562-354.18-125.64-488.632 8.812-68.87 68.866-103.186 159.172-103.044 249.436h-0.008c0 8.19-3.124 16.38-9.372 22.628-12.496 12.496-32.758 12.496-45.254 0-6.25-6.25-9.374-14.444-9.372-22.638-0.142-106.64 40.434-213.322 121.798-294.686 160.4-160.4 419.19-162.414 582.082-6.074l0.208-106.298c0-8.19 3.124-16.38 9.372-22.628 12.496-12.496 32.758-12.496 45.254 0 6.248 6.248 9.372 14.438 9.372 22.628v0l-0.354 180.666zM774.864 760.818c-160.944 160.944-420.938 162.414-583.73 4.47l-0.214 109.078c0 8.19-3.124 16.38-9.372 22.628-12.496 12.496-32.758 12.496-45.254 0-6.248-6.248-9.372-14.438-9.372-22.628v0l0.354-180.666c0-8.19 3.124-16.38 9.372-22.628 7.268-7.268 17.16-10.278 26.628-9.092v-0.282l180.666-0.354c8.19 0 16.38 3.124 22.628 9.372 12.496 12.496 12.496 32.758 0 45.254-6.248 6.248-14.438 9.372-22.628 9.372v0l-101.7 0.2c138.086 127.372 353.326 124.060 487.37-9.984 67.062-67.062 101.342-154.452 102.964-242.336-1.92-10.062 1.010-20.864 8.8-28.654 12.496-12.496 32.758-12.496 45.254 0 6.246 6.252 9.37 14.442 9.37 22.632h0.676c-0.132 106.284-40.72 212.524-121.812 293.618z" />
<glyph unicode="&#xe629;" d="M1023.84 853.356c-0.046 0.478-0.136 0.944-0.204 1.416-0.080 0.562-0.146 1.124-0.256 1.68-0.106 0.538-0.254 1.060-0.388 1.588-0.122 0.484-0.228 0.97-0.372 1.45-0.156 0.518-0.35 1.016-0.532 1.522-0.172 0.48-0.33 0.962-0.526 1.434s-0.424 0.922-0.64 1.382c-0.23 0.488-0.446 0.978-0.702 1.456-0.236 0.44-0.506 0.86-0.76 1.288-0.28 0.468-0.544 0.94-0.848 1.396-0.316 0.472-0.668 0.918-1.010 1.372-0.286 0.38-0.55 0.772-0.854 1.142-1.338 1.63-2.834 3.126-4.464 4.464-0.37 0.304-0.762 0.568-1.142 0.854-0.454 0.34-0.9 0.692-1.372 1.010-0.456 0.306-0.93 0.57-1.396 0.848-0.428 0.256-0.846 0.524-1.288 0.76-0.478 0.256-0.968 0.472-1.456 0.702-0.46 0.216-0.91 0.446-1.382 0.64s-0.956 0.354-1.434 0.526c-0.506 0.182-1.006 0.376-1.522 0.532-0.478 0.144-0.966 0.25-1.45 0.372-0.528 0.134-1.050 0.28-1.588 0.388-0.558 0.11-1.12 0.176-1.68 0.256-0.472 0.068-0.938 0.158-1.416 0.204-1.050 0.104-2.102 0.16-3.156 0.16h-256.002c-17.674 0-32-14.326-32-32s14.326-32 32-32h178.746l-260.156-260.154c-1.846-1.2-3.598-2.598-5.216-4.216-12.496-12.496-12.496-32.758 0-45.254s32.758-12.496 45.254 0c1.542 1.542 2.888 3.202 4.050 4.95l0.95-0.95 260.372 260.372v-178.746c0-17.674 14.326-32 32-32s32 14.326 32 32v256c0 1.054-0.056 2.106-0.16 3.156zM992 435.2c-17.674 0-32-14.326-32-32v-349.458h-0.076c0.046-0.994 0.076-1.994 0.076-3 0-32.794-24.67-59.81-56.462-63.544h-783.334c-29.964 3.52-53.586 27.726-56.204 57.956v714.634c2.834 32.728 30.28 58.412 63.742 58.412h58.516c-0.118 0.336-0.252 0.666-0.376 1h350.308c2.504-0.63 5.11-1 7.81-1 17.674 0 32 14.326 32 32s-14.326 32-32 32v1h-451v-1.070c-47.708-1.342-86.686-37.468-92.484-83.93h-0.516v-5.312c-0.152-2.212-0.258-4.438-0.258-6.688 0-2.322 0.096-4.622 0.258-6.902v-753.652c-0.162-2.28-0.258-4.58-0.258-6.902 0-53.020 42.98-96 96-96 3.116 0 6.194 0.166 9.234 0.456h813.79c3.040-0.29 6.118-0.456 9.234-0.456 52.1 0 94.476 41.51 95.93 93.258h0.070v387.198c0 17.674-14.326 32-32 32z" />
<glyph unicode="&#xe62a;" d="M512 596.7c0-17.674-14.326-32-32-32s-32 14.326-32 32c0 17.674 14.326 32 32 32s32-14.326 32-32zM480 500.7c-17.674 0-32-14.326-32-32v-257c0-17.674 14.326-32 32-32s32 14.326 32 32v257c0 17.674-14.326 32-32 32zM480 883.7c-265.096 0-480-214.904-480-480s214.904-480 480-480 480 214.904 480 480-214.904 480-480 480zM480-12.3c-229.75 0-416 186.25-416 416s186.25 416 416 416 416-186.25 416-416-186.25-416-416-416z" />
<glyph unicode="&#xe62b;" d="M480.256 883.712c-265.238 0-480.256-215.018-480.256-480.256s215.018-480.256 480.256-480.256 480.256 215.018 480.256 480.256-215.018 480.256-480.256 480.256zM480.256-12.766c-229.872 0-416.222 186.35-416.222 416.222s186.35 416.222 416.222 416.222 416.222-186.35 416.222-416.222-186.35-416.222-416.222-416.222zM608.324 499.508c-9.524 0-18.052-4.182-23.916-10.782l-0.022 0.024-72.112-72.636v180.946c0 17.682-14.334 32.018-32.018 32.018s-32.018-14.334-32.018-32.018v-180.94l-72.828 73.366c-0.37 0.39-0.746 0.772-1.134 1.142l-0.46 0.464-0.024-0.024c-5.698 5.224-13.268 8.438-21.606 8.438-17.682 0-32.018-14.334-32.018-32.016 0-8.842 3.584-16.846 9.378-22.64v0l126.582-125.932c1.024-1.176 2.126-2.278 3.31-3.292l0.15-0.15 0.006 0.006c5.578-4.72 12.782-7.578 20.66-7.578s15.082 2.858 20.66 7.578l0.006-0.006 0.148 0.146c1.206 1.034 2.328 2.158 3.368 3.358l124.132 123.716c7.182 5.872 11.77 14.794 11.77 24.794 0.004 17.682-14.332 32.018-32.014 32.018zM607.852 242.87h-255.664c-17.682 0-32.018-14.334-32.018-32.018s14.334-32.018 32.018-32.018h255.664c17.682 0 32.016 14.334 32.016 32.018s-14.334 32.018-32.016 32.018z" />
<glyph unicode="&#xe62c;" d="M608 243.2h-384c-17.674 0-32-14.326-32-32s14.326-32 32-32h384c17.674 0 32 14.326 32 32s-14.326 32-32 32zM608 371.2h-384c-17.674 0-32-14.326-32-32s14.326-32 32-32h384c17.674 0 32 14.326 32 32s-14.326 32-32 32zM823.594 680.764l0.024 0.024-0.484 0.48c-0.366 0.384-0.742 0.756-1.126 1.12l-191.382 190.438c-5.79 5.792-13.79 9.374-22.626 9.374v1l-514.742-0.070c-51.748-1.454-93.258-43.83-93.258-95.93 0-1.284 0.026-2.56 0.076-3.832h-0.076v-768.168h0.102c2.062-50.252 42.742-90.512 93.156-91.93v-0.070h642.742c53.020 0 96 42.98 96 96v640c0 8.32-3.202 15.872-8.406 21.564zM640 773.36l82.64-82.16h-82.64v82.16zM768 266.2v-212h-0.076c0.046-0.994 0.076-1.994 0.076-3 0-35.346-28.654-64-64-64h-576c-35.346 0-64 28.654-64 64 0 1.006 0.030 2.006 0.076 3h-0.076v701c0 35.346 28.654 64 64 64 1.006 0 2.006-0.030 3-0.076v0.076h445v-160c0-17.674 14.326-32 32-32h160v-361z" />
<glyph unicode="&#xe62d;" d="M608 243.2h-384c-17.674 0-32-14.326-32-32s14.326-32 32-32h384c17.674 0 32 14.326 32 32s-14.326 32-32 32zM608 371.2h-384c-17.674 0-32-14.326-32-32s14.326-32 32-32h384c17.674 0 32 14.326 32 32s-14.326 32-32 32zM994.352 921.324c-37.428 37.428-98.112 37.428-135.542 0-0.038-0.038-0.072-0.076-0.11-0.114l-0.002 0.002-223.266-223.266c-1.118-0.854-2.208-1.762-3.23-2.784-3.828-3.828-6.47-8.388-7.954-13.226l-0.008 0.002-44.26-132.988c-0.516-1.254-0.926-2.538-1.276-3.836l-0.108-0.322 0.026-0.006c-2.736-10.608 0.016-22.338 8.322-30.644 8.592-8.592 20.854-11.276 31.738-8.054l135.682 45.234c0.18 0.052 0.354 0.122 0.532 0.178l1.612 0.538-0.008 0.024c4.178 1.554 8.106 3.978 11.464 7.336l226.276 226.274c0.038 0.038 0.076 0.072 0.114 0.11 37.428 37.428 37.428 98.112-0.002 135.542zM904.024 877.086c12.704 12.704 33.302 12.704 46.008 0 12.704-12.704 12.704-33.302 0-46.008l-23.226-23.226-45.924 45.924 22.628 22.628-0.084 0.084 0.598 0.598zM729.346 610.394l-69.3-23.108 22.834 68.488 152.746 152.746 45.924-45.924-152.204-152.202zM800 435.2c-17.674 0-32-14.326-32-32v-349h-0.076c0.046-0.994 0.076-1.994 0.076-3 0-35.346-28.654-64-64-64h-575.056c-35.346 0-64 28.654-64 64 0 1.006 0.030 2.006 0.076 3h-0.076v55.516c-0.318-0.112-0.628-0.24-0.944-0.354v587.676c0.316-0.116 0.626-0.242 0.944-0.354v55.516h0.076c-0.046 0.994-0.076 1.994-0.076 3 0 35.346 28.654 64 64 64h58.516c-0.024 0.066-0.050 0.132-0.074 0.198h418.646c0.654-0.040 1.304-0.1 1.968-0.1 17.674 0 32 14.326 32 32s-14.326 32-32 32c-0.666 0-1.316-0.060-1.97-0.1l-516.53-0.316c-45.682-3.504-82.394-38.964-87.834-84.080h-1.666v-779.544h0.946c0-0.020-0.002-0.040-0.002-0.058 0-52.1 41.51-94.476 93.258-95.93v-0.070l644.54 0.070c51.748 1.454 93.258 43.83 93.258 95.93 0 0.020-0.002 0.040-0.002 0.058h0.002v383.942c0 17.674-14.326 32-32 32z" />
<glyph unicode="&#xe62e;" d="M608 243.2h-384c-17.674 0-32-14.326-32-32s14.326-32 32-32h384c17.674 0 32 14.326 32 32s-14.326 32-32 32zM608 371.2h-384c-17.674 0-32-14.326-32-32s14.326-32 32-32h384c17.674 0 32 14.326 32 32s-14.326 32-32 32zM800 307.2c-17.674 0-32-14.326-32-32v-221h-0.076c0.046-0.994 0.076-1.994 0.076-3 0-35.346-28.654-64-64-64h-575.056c-35.346 0-64 28.654-64 64 0 1.006 0.030 2.006 0.076 3h-0.076v55.516c-0.318-0.112-0.628-0.24-0.944-0.354v586.676c0.316-0.116 0.626-0.242 0.944-0.354v55.516h0.076c-0.046 0.994-0.076 1.994-0.076 3 0 35.346 28.654 64 64 64h58.516c-0.118 0.336-0.252 0.666-0.376 1h413.106c2.504-0.63 5.11-1 7.81-1 17.674 0 32 14.326 32 32s-14.326 32-32 32v1h-513.798v-1.070c-48.462-1.362-87.944-38.61-92.764-86.128h-1.438v-779.544h1.014c1.43-50.834 42.354-91.758 93.188-93.188v-0.070l644.54 0.070c50.834 1.43 91.758 42.354 93.188 93.188h0.070v258.742c0 17.674-14.326 32-32 32zM992 691.2h-160v160c0 17.674-14.326 32-32 32s-32-14.326-32-32v-160h-160c-17.674 0-32-14.326-32-32s14.326-32 32-32h160v-160c0-17.674 14.326-32 32-32s32 14.326 32 32v160h160c17.674 0 32 14.326 32 32s-14.326 32-32 32z" />
<glyph unicode="&#xe62f;" d="M352.112 307.48c-7.226 0-13.932-2.408-19.266-6.538l-0.172 0.172-3.096-3.096c0 0 0 0-0.172 0l-265.934-265.934v109.918c0.344 1.72 0.516 3.612 0.516 5.504 0 17.716-14.278 31.996-31.996 31.996-15.996 0-29.414-11.87-31.65-27.35v0-0.172c-0.172-1.548-0.344-2.924-0.344-4.472s0.172-3.096 0.344-4.472v-184.572h0.172c0-0.86-0.172-1.72-0.172-2.58 0-15.996 11.868-29.242 27.178-31.65v-0.344h191.968c1.548-0.172 2.924-0.344 4.472-0.344 17.716 0 31.996 14.278 31.996 31.996s-14.276 31.996-31.996 31.996h-114.734l268.686 268.686-0.172 0.172c3.956 5.332 6.536 12.042 6.536 19.266-0.172 17.374-14.45 31.822-32.166 31.822zM960.010 655.12c0.172 1.548 0.344 2.924 0.344 4.472s-0.172 3.096-0.344 4.472v184.57h-0.172c0 0.86 0.172 1.72 0.172 2.58 0 15.996-11.87 29.242-27.35 31.65v0.344h-191.796c-1.548 0.172-2.924 0.344-4.472 0.344-17.716 0-31.996-14.276-31.996-31.996s14.278-31.996 31.996-31.996h114.732l-265.418-265.418c-5.848-5.848-9.462-13.76-9.462-22.706 0-17.718 14.278-31.996 31.996-31.996 8.946 0 16.856 3.612 22.706 9.462l265.934 265.934v-109.918c-0.344-1.72-0.516-3.612-0.516-5.504 0-17.716 14.278-31.996 31.996-31.996 15.996 0 29.414 11.87 31.65 27.35v0 0.344z" />
<glyph unicode="&#xe630;" d="M383.762 87.818v184.572h-0.172c0 0.86 0.172 1.72 0.172 2.58 0 15.996-11.868 29.242-27.35 31.65v0.344h-191.796c-1.548 0.172-2.924 0.344-4.472 0.344-17.718 0-31.996-14.278-31.996-31.996s14.276-31.996 31.996-31.996h114.732l-268.686-268.686 0.172-0.172c-3.956-5.332-6.536-12.042-6.536-19.266 0-17.716 14.276-31.996 31.996-31.996 7.226 0 13.932 2.408 19.266 6.538l0.172-0.172 3.096 3.096c0 0 0 0 0 0l265.934 265.934v-109.918c-0.344-1.72-0.516-3.612-0.516-5.504 0-17.716 14.276-31.996 31.996-31.996 15.998 0 29.414 11.87 31.652 27.35v0 0.172c0.172 1.548 0.344 2.924 0.344 4.472s0.344 3.096 0 4.644zM960.356 851.56c0 17.716-14.278 31.996-31.996 31.996-8.946 0-16.856-3.612-22.706-9.462l-265.934-265.762v109.916c0.344 1.72 0.516 3.612 0.516 5.504 0 17.716-14.278 31.996-31.996 31.996-15.996 0-29.414-11.87-31.65-27.35v0-0.172c-0.172-1.548-0.344-2.924-0.344-4.472s0.172-3.096 0.344-4.472v-184.572h0.172c0-0.86-0.172-1.72-0.172-2.58 0-15.998 11.87-29.242 27.35-31.652v-0.344h191.968c1.548-0.172 2.924-0.344 4.472-0.344 17.716 0 31.996 14.276 31.996 31.996s-14.278 31.996-31.996 31.996h-114.734l265.418 265.246c5.848 5.848 9.288 13.76 9.288 22.534z" />
<glyph unicode="&#xe631;" d="M1024 467.282c0 17.546-14.106 31.652-31.48 31.996v0.516h-98.048c-15.48 168.23-149.308 302.228-317.538 317.882v97.532h-1.032c0 17.716-14.278 31.996-31.996 31.996s-31.996-14.278-31.996-31.996v-97.532c-168.746-15.138-303.088-149.48-318.398-318.054h-97.016v-0.516c-0.172 0-0.344 0-0.516 0-17.716 0-31.996-14.276-31.996-31.996s14.278-31.994 31.996-31.994c0.172 0 0.344 0 0.516 0v-0.516h97.016c15.48-168.574 149.824-302.746 318.398-318.054v-97.532c0-17.716 14.278-31.996 31.996-31.996s31.996 14.278 31.996 31.996h1.032v97.532c168.23 15.654 302.058 149.652 317.538 317.882h98.048v0.516c17.374 0.516 31.48 14.794 31.48 32.338zM543.908 179.156c-159.112 0-287.952 129.010-287.952 287.952s129.010 287.952 287.952 287.952 287.952-129.010 287.952-287.952-128.84-287.952-287.952-287.952zM639.892 467.282c0-53.010-42.972-95.984-95.984-95.984s-95.984 42.972-95.984 95.984c0 53.010 42.974 95.984 95.984 95.984s95.984-42.974 95.984-95.984z" />
<glyph unicode="&#xe632;" d="M758.579 106.086c0 0 0 0 0 0l-165.99 165.99-0.256-0.256c-0.614 0.461-1.331 0.563-1.946 0.973 69.683 64.307 113.613 156.16 113.613 258.458 0 194.406-157.594 352-352 352s-352-157.645-352-352.051 157.594-352 352-352c70.451 0 135.885 20.89 190.925 56.525 1.075-3.123 2.406-6.195 4.454-8.909v0l233.062-233.062c12.595-9.574 30.669-8.653 42.138 2.867 12.544 12.544 12.544 32.922 0 45.466l-64 64zM64 531.2c0 159.078 128.922 288 288 288s288-128.922 288-288-128.922-288-288-288-288 128.922-288 288zM992 563.2h-192c-17.664 0-32-14.336-32-32s14.336-32 32-32h192c17.664 0 32 14.336 32 32s-14.336 32-32 32zM736 691.2h256c17.664 0 32 14.336 32 32s-14.336 32-32 32h-256c-17.664 0-32-14.336-32-32s14.336-32 32-32zM992 371.2h-256c-17.664 0-32-14.336-32-32s14.336-32 32-32h256c17.664 0 32 14.336 32 32s-14.336 32-32 32z" />
<glyph unicode="&#xe633;" d="M608 723.2c0-53.024-42.976-96-96-96s-96 42.976-96 96c0 53.024 42.976 96 96 96s96-42.976 96-96zM608 403.2c0-53.024-42.976-96-96-96s-96 42.976-96 96c0 53.024 42.976 96 96 96s96-42.976 96-96zM608 83.2c0-53.024-42.976-96-96-96s-96 42.976-96 96c0 53.024 42.976 96 96 96s96-42.976 96-96z" />
<glyph unicode="&#xe634;" d="M972.8 435.2c0 28.838-15.91 53.926-39.411 67.059l0.026 0.026-764.109 432.806c-11.942 7.629-26.086 12.109-41.306 12.109-40.781 0-74.035-31.795-76.557-71.949l-0.077 0.013v-1.536c-0.051-1.114-0.166-2.202-0.166-3.328 0-0.73 0.154-1.408 0.166-2.125l0.192-863.744c-0.090-1.523-0.358-2.995-0.358-4.531 0-2.432 0.141-4.813 0.358-7.181v-0.333h0.013c3.789-38.886 36.557-69.286 76.429-69.286 14.438 0 27.904 4.058 39.437 10.995l0.013-0.077 757.965 430.157c5.67 2.355 10.957 5.414 15.846 8.998l0.102 0.064-0.013 0.013c19.046 13.952 31.45 36.429 31.45 61.85z" />
<glyph unicode="&#xe635;" d="M895.968 639.726c1.36 6.432 2.088 13.098 2.088 19.936 0 52.522-42.184 95.166-94.516 95.962v0.038h-97.484v31.076c0 17.402-13.898 31.528-31.196 31.96v0.040l-387.664-0.040c-17.298-0.432-31.196-14.558-31.196-31.96v-31.076l-97.484-0.038c-52.332-0.796-94.516-43.44-94.516-95.962 0-2.324 0.096-4.624 0.258-6.906v-498.188c-0.162-2.282-0.258-4.582-0.258-6.906 0-52.522 42.184-95.166 94.516-95.962v-0.038l645.024 0.084c51.482 1.75 92.686 44.008 92.686 95.916 0 2.324-0.096 4.624-0.258 6.906v485.158zM768.226 115.662l-573.226 0.076c-0.994-0.046-1.994-0.076-3-0.076-33.46 0-60.906 25.682-63.742 58.408v459.184c2.836 32.726 30.282 58.408 63.742 58.408l97 0.050c17.206 0.532 31 14.614 31 31.95v31.076h322.056v-31.076c0-17.336 13.794-31.416 31-31.95v-0.050h97c29.73 0 54.72-20.274 61.912-47.75v-469.842c-2.836-32.726-30.282-58.408-63.742-58.408zM480 563.662c-88.366 0-160-71.634-160-160s71.634-160 160-160 160 71.634 160 160-71.634 160-160 160zM480.5 307.662c-53.296 0-96.5 43.204-96.5 96.5s43.204 96.5 96.5 96.5 96.5-43.204 96.5-96.5-43.204-96.5-96.5-96.5zM282.52 569.146c0-17.676-14.33-32.004-32.004-32.004s-32.004 14.328-32.004 32.004c0 17.676 14.33 32.004 32.004 32.004s32.004-14.328 32.004-32.004z" />
<glyph unicode="&#xe636;" d="M668.25 407.2c-8.836 0-16.836-3.582-22.626-9.374l-0.002 0.002-169.432-169.434-73.244 72.832c-5.814 5.988-13.938 9.722-22.946 9.722-17.672 0-32-14.326-32-32 0-8.864 3.606-16.882 9.426-22.676l96.152-95.654c5.794-5.816 13.812-9.42 22.67-9.42 8.866 0 16.886 3.608 22.682 9.432l191.894 191.894c5.82 5.794 9.424 13.812 9.424 22.674 0.002 17.674-14.324 32.002-31.998 32.002zM992 851.2h-160v7.046h-0.286c-3.61 49.726-45.068 88.954-95.714 88.954-50.642 0-92.104-39.228-95.71-88.954h-0.032v-0.35c-0.152-2.214-0.258-4.442-0.258-6.696h-256v7.046h-0.286c-3.61 49.726-45.068 88.954-95.714 88.954-50.642 0-92.104-39.228-95.71-88.954h-0.030v-7.046h-0.002v6.696c-0.152-2.214-0.258-4.442-0.258-6.696h-160c-17.672 0-32-14.328-32-32v-802.742h0.070c1.43-50.834 42.354-91.758 93.188-93.188v-0.070l837.484 0.070c50.838 1.43 91.758 42.354 93.188 93.188h0.070v802.742c0 17.672-14.326 32-32 32zM192.258 780.504v6.696h0.002l-0.002-6.696c3.442-49.892 44.976-89.304 95.742-89.304 53.024 0 96 42.98 96 96h256c0-2.254 0.11-4.482 0.258-6.696 3.442-49.892 44.976-89.304 95.742-89.304 53.024 0 96 42.98 96 96h128v-160h-896v160h128c0-2.254 0.108-4.482 0.258-6.696zM896-12.8h-768c-35.346 0-64 28.654-64 64 0 1.006 0.032 2.006 0.076 3h-0.076v509h896v-509h-0.074c0.044-0.994 0.074-1.994 0.074-3 0-35.346-28.65-64-64-64z" />
<glyph unicode="&#xe637;" d="M1024.252 594.57c0 0.086 0.006 0.172 0.006 0.258 0 38.718-22.934 72.060-55.948 87.242l-71.31 42.238v190.892c0 17.674-14.326 32-32 32l-707.114-0.106c-16.682-1.094-29.886-14.934-29.886-31.894v-190.892l-71.31-42.238c-33.014-15.182-55.948-48.524-55.948-87.242l0.258-78.628v-490.72c-0.162-2.282-0.258-4.582-0.258-6.906 0-53.020 42.98-96 96-96 3.114 0 6.188 0.166 9.228 0.456h813.784c3.044-0.292 6.126-0.458 9.246-0.458 52.102 0 94.476 41.51 95.93 93.26h0.070v578.74h-0.748zM938.936 610.51l0.006 0.008v-0.002c13.084-11.718 21.316-28.742 21.316-47.688 0-1.006-0.030-2.006-0.076-3h0.076v-12.35l-63.258-42.182v131.49l41.936-26.276zM192 883.2h641v-420.584l-320.704-213.862-320.296 216.686v417.76zM128 508.736l-63 42.62v16.992c1.43 16.714 9.26 31.6 21.058 42.168v0.002l0.006-0.008 41.936 26.276v-128.050zM904.548-12.972h-783.338c-29.966 3.516-53.592 27.72-56.21 57.952v428.348l427.444-286.334c1.264-0.988 2.594-1.888 4-2.68l0.142-0.096 0.006 0.006c4.598-2.558 9.886-4.026 15.522-4.026s10.924 1.468 15.522 4.026l0.006-0.006 0.16 0.106c1.28 0.722 2.494 1.54 3.658 2.426l429.54 284.892v-418.072h-0.076c0.046-0.994 0.076-1.994 0.076-3 0-32.79-24.666-59.804-56.452-63.542zM358.744 604.948l0.092-0.086c2.012-2.562 4.392-4.82 7.082-6.668l88.948-83.736c2.074-2.664 4.536-5.012 7.338-6.908l0.004-0.002c5.11-3.456 11.272-5.476 17.906-5.476 8.284 0 15.808 3.174 21.49 8.338l0.026-0.026 0.724 0.708c0.202 0.196 0.406 0.388 0.602 0.588l191.198 186.85c0.248 0.238 0.496 0.472 0.736 0.718l0.186 0.182-0.010 0.010c5.522 5.75 8.934 13.542 8.934 22.144 0 17.674-14.326 32-32 32-8.624 0-16.436-3.428-22.192-8.976l-0.010 0.010-0.32-0.31c-0.052-0.050-0.104-0.098-0.154-0.15l-170.79-165.412-70.766 67.21c-5.858 6.51-14.322 10.628-23.77 10.628-17.674 0-32-14.326-32-32 0-7.404 2.538-14.202 6.762-19.624l-0.016-0.012z" />
<glyph unicode="&#xe638;" d="M1020.044 518.884c0-80.56-53.678-145.868-119.894-145.868s-119.894 65.308-119.894 145.868c0 80.562 53.678 145.868 119.894 145.868s119.894-65.308 119.894-145.868zM239.788 518.884c0-80.56-53.678-145.868-119.894-145.868s-119.894 65.308-119.894 145.868c0 80.562 53.678 145.868 119.894 145.868s119.894-65.308 119.894-145.868zM637.656 360.804c-18.578 0-33.544-14.966-33.544-33.544 0-0.172 0-0.172 0-0.344h-0.172c-13.072-38.53-49.024-66.398-92.028-66.398-42.658 0-78.61 27.522-91.684 65.71 0 0.344 0 0.688 0 1.032 0 18.578-15.138 33.716-33.716 33.716s-33.716-15.136-33.716-33.716c0-0.172 0-0.172 0-0.344h-0.172c0.172-0.688 0.344-1.376 0.516-2.064 0.344-3.956 1.204-7.74 2.752-11.182 19.266-68.118 81.88-118.174 156.188-118.174 73.622 0 135.72 49.024 155.674 116.282 2.236 4.472 3.612 9.462 3.612 14.794 0 0 0 0 0 0v0c0 0.172 0 0.172 0 0.344-0.172 18.75-15.138 33.886-33.716 33.886z" />
<glyph unicode="&#xe639;" d="M704 691.2h-384c-17.674 0-32-14.326-32-32s14.326-32 32-32h384c17.674 0 32 14.326 32 32s-14.326 32-32 32zM704 563.2h-384c-17.674 0-32-14.326-32-32s14.326-32 32-32h384c17.674 0 32 14.326 32 32s-14.326 32-32 32zM704 436.2h-384c-17.674 0-32-14.326-32-32s14.326-32 32-32h384c17.674 0 32 14.326 32 32s-14.326 32-32 32zM928 275.17v512.018c0 0.004 0 0.008 0 0.012s0 0.006 0 0.010v3.99h-0.1c-2.062 50.252-42.742 90.512-93.156 91.93v0.070l-645.486-0.070c-51.748-1.454-93.258-43.83-93.258-95.93 0-0.474 0.022-0.942 0.028-1.416h-0.028v-504.256h0.226c-0.138-2.108-0.226-4.228-0.226-6.37 0-52.1 41.51-94.476 93.258-95.93v-0.070h98.742v-159.958c0-17.674 14.326-32 32-32 6.216 0 11.998 1.8 16.908 4.868l0.014-0.024 0.232 0.174c1.358 0.864 2.642 1.826 3.85 2.88l246.068 184.062h244.862c0.022 0 0.044-0.002 0.068-0.002 0.018 0 0.036 0.002 0.054 0.002h2.69v0.068c50.436 1.418 91.126 41.712 93.158 91.992h0.096v3.93c0 0.004 0 0.006 0 0.010 0 0.002 0 0.006 0 0.010zM800.054 243.16l-222.682-0.002c0 0 0 0 0 0-7.022 0-13.494-2.288-18.77-6.122l-0.018 0.020-206.584-154.358v128.46c0 17.674-14.326 32-32 32 0 0 0 0 0 0v0h-37.484c0 0 0 0 0 0h-58.516c-35.346 0-64 28.654-64 64 0 1.006 0.030 2.006 0.076 3h-0.076v55.516c0 0 0 0 0 0v331.010c0 0 0 0 0 0v55.516h0.076c-0.046 0.994-0.076 1.994-0.076 3 0 35.346 28.654 64 64 64h58.516c0 0 0 0 0 0h458.968c0 0 0 0 0 0h58.516c35.342 0 63.994-28.648 64-63.99v-0.020c0-1.002-0.030-1.998-0.076-2.99h0.076v-442.042h-0.076c0.046-0.992 0.076-1.988 0.076-2.99v-0.020c-0.006-35.324-28.628-63.96-63.946-63.988z" />
<glyph unicode="&#xe63a;" d="M789.472 403.834c-1.3 129.534 105.622 191.664 110.394 194.788-60.076 87.866-153.686 99.922-187.016 101.28-79.584 8.1-155.39-46.884-195.784-46.884-40.29 0-102.682 45.706-168.686 44.55-86.852-1.3-166.88-50.518-211.576-128.258-90.178-156.428-23.058-388.278 64.81-515.256 42.968-62.050 94.196-131.892 161.4-129.334 64.788 2.558 89.248 41.912 167.55 41.912 78.304 0 100.308-41.912 168.832-40.594 69.658 1.26 113.824 63.248 156.446 125.558 49.304 72.096 69.62 141.896 70.818 145.448-1.506 0.694-135.792 52.148-137.188 206.79zM660.708 783.932c35.64 43.274 59.79 103.412 53.238 163.268-51.452-2.090-113.724-34.2-150.644-77.434-33.086-38.362-62.026-99.432-54.274-158.212 57.376-4.446 115.914 29.186 151.68 72.378z" />
<glyph unicode="&#xe63b;" d="M389.698 411.366h-246.644c-16.79 0-30.406-13.842-30.406-31.086v-201.944c0-14.976 10.438-27.002 24.278-29.952l239.158-47.876 15.656-2.722c15.884 0.68 28.816 14.522 28.816 30.632v251.862c0.002 17.47-14.066 31.086-30.858 31.086v0zM880.492 411.366h-381.652c-16.79 0-30.406-13.842-30.406-31.086v-273.874c0-12.48 7.488-22.918 17.926-27.682 0.454-0.454 0.454-0.454 0.454-0.454l12.026-2.496c0.454 0 0.454 0 0.68 0l373.712-74.652c0.454-0.226 1.134-0.68 1.588-0.68 0.226 0 0.454 0 0.68 0.226 1.588-0.908 3.176-0.908 4.766-0.908 16.79 0 30.86 13.614 30.86 30.632v349.888c0.226 17.47-13.842 31.086-30.634 31.086v0zM880.492 871.3c-1.588 0-3.176 0-4.766-0.908-0.226 0.226-0.454 0.226-0.68 0.226-0.454 0-1.134-0.226-1.588-0.68l-373.938-74.424c-0.454 0-0.454 0-0.68 0l-11.572-2.496c0 0-0.454 0-0.908-0.454-10.438-4.764-17.926-15.656-17.926-28.136v-273.42c0-17.244 13.614-31.086 30.406-31.086h381.652c16.79 0 30.86 13.842 30.86 31.086v349.66c0 16.79-14.068 30.632-30.86 30.632v0zM391.74 773.732l-15.656-2.722-239.156-48.106c-13.842-2.95-24.278-14.976-24.278-29.952v-201.944c0-17.244 13.614-31.086 30.406-31.086h246.872c16.79 0 30.86 13.842 30.86 31.086v252.092c-0.23 16.11-12.938 29.724-29.048 30.632v0z" />
<glyph unicode="&#xe63c;" d="M831.56 852.942c-1.456 51.748-43.83 93.258-95.93 93.258-1.328 0-2.648-0.028-3.962-0.082v0.082l-438.334-0.142c-1.644 0.084-3.296 0.142-4.962 0.142-53.020 0-96-42.98-96-96 0-2.324 0.096-4.624 0.258-6.906v-817.644c-0.162-2.282-0.258-4.582-0.258-6.906 0-53.020 42.98-96 96-96 3.114 0 6.188 0.166 9.228 0.456h428.784c3.044-0.292 6.126-0.458 9.246-0.458 52.102 0 94.476 41.51 95.93 93.26h0.070v836.94h-0.070zM256.63 755.2h511v-576.166h-511v576.166zM320.37 882.2h383.258c35.010 0 63.438-28.118 63.974-63h-510.972v4.592c2.834 32.726 30.28 58.408 63.74 58.408zM711.176-12.8h-398.336c-29.966 3.516-53.592 27.72-56.21 57.952v69.882h511v-61.292h-0.076c0.046-0.994 0.076-1.994 0.076-3 0-32.79-24.666-59.804-56.454-63.542zM543.63 83.2h-64c-17.674 0-32-14.326-32-32s14.326-32 32-32h64c17.674 0 32 14.326 32 32s-14.328 32-32 32z" />
<glyph unicode="&#xe63d;" d="M213.342 402.070v-238.926c0-18.4 12-37.332 30.4-37.332h76.264v-138.662c0-35.466 28.532-63.998 63.998-63.998s63.998 28.532 63.998 63.998v138.662h130.662v-138.662c0-20 9.066-37.866 23.466-49.598 10.4-9.066 24.266-14.4 39.198-14.4 0.266 0 0.534 0 0.8 0s0.266 0 0.534 0c35.466 0 63.998 28.532 63.998 63.998v138.662h73.598c18.666 0 30.398 18.932 30.398 37.066v442.918h-597.314v-203.726zM917.32 648.462c-35.466 0-63.998-28.532-63.998-63.998v-255.992c0-35.466 28.532-63.998 63.998-63.998s63.998 28.532 63.998 63.998v255.992c0 35.464-28.532 63.998-63.998 63.998zM106.68 648.462c-35.466 0-63.998-28.532-63.998-63.998v-255.992c0-35.466 28.532-63.998 63.998-63.998s63.998 28.532 63.998 63.998v255.992c0 35.464-28.532 63.998-63.998 63.998zM659.196 880.188l49.332 58.398c1.066 1.334-0.534 4.266-3.466 6.666-2.934 2.134-6.4 2.666-7.2 1.066l-51.2-60.798c-36.266 14.4-80.53 23.466-134.93 23.466-54.664 0.266-99.196-8.534-135.462-22.666l-50.664 59.732c-1.066 1.334-4.266 1.066-7.2-1.066s-4.534-4.8-3.466-6.666l48.798-57.598c-128.53-55.732-147.728-192.528-150.396-232.526h596.248c-2.4 40.264-21.332 175.194-150.394 231.992zM380.804 747.392c-19.732 0-35.998 16-35.998 35.466s16 35.466 35.998 35.466c19.732 0 35.998-16 35.998-35.466s-15.998-35.466-35.998-35.466zM643.196 747.392c-19.732 0-35.998 16-35.998 35.466s16 35.466 35.998 35.466c19.732 0 35.998-16 35.998-35.466s-16.266-35.466-35.998-35.466z" />
<glyph unicode="&#xe63e;" d="M328.478-74.878c26.602 7.902 43.152 29.186 61.916 47.22 141.048 135.55 281.868 271.336 422.722 407.088 28.974 27.924 30.496 63.024 4.222 93.328-2.836 3.27-5.812 6.428-8.862 9.502-146.248 147.406-292.57 294.742-438.706 442.258-19.238 19.42-41.348 27.68-67.954 19.794-41.474-12.29-57.456-64.404-30.404-98.17 3.324-4.15 6.996-8.048 10.744-11.828 130.952-132.064 261.928-264.106 392.946-396.106 2.568-2.588 5.678-4.636 10.306-8.364-7.13-6.356-12.946-11.202-18.388-16.438-128.224-123.402-256.364-246.89-384.658-370.22-14.456-13.896-26.936-28.458-29.344-49.48-3.080-26.888 14.248-54.928 40.448-64.66 3.068-1.14 6.014-2.61 9.016-3.928 8.662 0.004 17.33 0.004 25.996 0.004z" />
<glyph unicode="&#xe63f;" d="M76.154 566.63l-76.154-0.034v-215.228h76.154c32.214 0 61.436 11.036 82.276 31.060 20.564 19.75 31.892 46.944 31.892 76.6v0.568c0 29.594-11.338 56.694-31.93 76.3-20.826 19.822-50.030 30.734-82.238 30.734zM76.154 536.016c23.802 0 44.234-7.728 59.080-22.356 14.040-13.94 21.772-33.338 21.772-54.632v-0.598c0-44.988-33.252-76.442-80.85-76.49h-43.692l-0.034 154.076h43.724zM288.31 516.014c-22.608 0-43.548-8.844-58.952-24.908-15.14-15.74-23.482-36.756-23.482-59.182v-0.634c0-46.786 35.96-83.442 81.856-83.442h0.006c46.412 0.018 82.768 36.954 82.768 84.086v0.58c0 22.276-8.25 43.154-23.236 58.778-15.292 15.94-36.232 24.722-58.96 24.722zM324.54 393.184c-9.326-10.272-22.19-15.924-36.218-15.924-28.356 0-50.584 24.016-50.606 54.662v0.568c0 30.99 21.5 54.354 50.006 54.354 28.574 0 50.952-24.122 50.952-54.912v-0.644c0-14.534-5.018-28.062-14.134-38.104zM962.278 516.062c-19.152 0-34.444-6.712-46.546-20.478v17.224h-31.254v-161.384h31.254v91.764c0 25.396 16.536 43.136 40.212 43.136 23.738 0 36.806-14.696 36.806-41.382v-93.518h31.25v99.096c0 39.81-24.226 65.542-61.722 65.542zM727.772 515.182c-20.282 0-36.562-3.9-56.218-13.452l-3.668-1.78 9.702-27.214 4.526 2.242c14.856 7.238 28.236 10.464 43.358 10.464 25.834 0 39.162-11.934 39.624-35.464-12.032 3.096-23.96 5.12-41.070 5.12-19.98 0-36.83-4.69-48.744-13.538-12.82-9.56-19.582-23.674-19.564-40.816v-0.594c0-34.13 30.3-51.99 60.228-51.99 23.302 0 39.2 9.492 49.158 18.774v-15.512h30.99v97.614c0 20.402-5.692 36.542-16.908 47.964-11.816 12.070-29.11 18.182-51.414 18.182zM752.59 385.874c-8.33-6.662-19.818-10.334-32.336-10.334-16.388 0-32.998 8.844-32.998 25.76v0.606c0 16.32 14.594 26.064 39.036 26.064 16.56 0 29.060-2.646 39.144-5.36v-10.664c0.002-10.334-4.44-19.348-12.846-26.072zM824.494 512.808h31.29v-161.38h-31.29v161.38zM840.134 578.994c-12.494 0-22.658-10.168-22.658-22.658 0-12.484 10.162-22.648 22.658-22.648 12.5 0 22.668 10.162 22.668 22.648 0.002 12.49-10.166 22.658-22.668 22.658zM565.83 523.5l-53.648-35.108-53.65 35.108-39.040-25.564v14.79h-30.186v-161.434h31.19v110.632l38.036 24.886 38.054-24.886 0.022-110.632h31.228v110.632l37.994 24.932 38.030-24.898 0.010-110.666h31.2l-0.022 126.77z" />
<glyph unicode="&#xe640;" d="M1024 211.2c0 2.099-0.819 3.942-1.178 5.939l0.614 0.205-129.331 580.762-0.256-0.102c-4.506 12.288-16.026 21.197-29.85 21.197-7.475 0-14.080-2.97-19.558-7.322l-0.307 0.358-172.442-117.555-239.462 120.064-0.256-0.41c-4.762 2.816-10.035 4.864-15.974 4.864-7.526 0-14.131-2.97-19.558-7.322l-0.307 0.41-249.139-123.955c-8.602-3.891-14.746-11.52-17.306-20.787l-0.563 0.154-129.126-515.482 0.973-0.205c-0.256-1.638-0.973-3.123-0.973-4.813 0-17.664 14.336-32 32-32 2.202 0 4.147 0.819 6.246 1.28l0.256-1.28 341.658 63.078 279.347-124.518c0 0 0 0 0.051 0l0.102-0.051c3.789-1.587 7.936-2.509 12.339-2.509 5.171 0 9.882 1.536 14.234 3.738l317.798 126.72c0.256 0.102 0.461 0.205 0.717 0.307l1.178 0.461-0.102 0.256c10.65 5.12 18.176 15.872 18.176 28.518zM358.298 238.541l-281.088-50.739 109.773 446.208 194.509 99.891-23.194-495.36zM645.018 130.406l-227.277 100.71 24.013 508.365 203.264-101.99v-507.085zM707.379 131.43l-3.174 510.822 137.011 91.699 115.2-502.63-249.037-99.891z" />
<glyph unicode="&#xe641;" d="M512 721.306c-84.634 0-153.293-68.608-153.293-153.293 0-84.634 68.608-153.293 153.293-153.293 84.634 0 153.293 68.608 153.293 153.293s-68.659 153.293-153.293 153.293zM512 475.75c-50.995 0-92.314 41.318-92.314 92.314s41.318 92.314 92.314 92.314c50.995 0 92.314-41.318 92.314-92.314s-41.318-92.314-92.314-92.314zM512 946.842c-209.152 0-378.726-169.574-378.726-378.675 0-10.752 0.717-21.299 1.587-31.846 0 0 13.466-333.158 349.491-603.443 6.451-5.683 14.848-9.165 24.064-9.165 8.038 0 15.462 2.662 21.504 7.117v0c0.051 0.051 0.051 0.051 0.102 0.102 0.666 0.512 1.331 1.024 1.997 1.587 358.349 281.19 357.12 603.853 357.12 603.853 0.87 10.496 1.587 21.094 1.587 31.846 0 209.050-169.574 378.624-378.726 378.624zM826.88 557.466c-17.664-320.41-260.403-512.819-319.642-555.162-73.728 55.654-287.334 242.586-310.067 555.366h-0.051c-0.102 3.482-0.205 6.963-0.205 10.445 0 174.029 141.056 315.085 315.085 315.085s315.085-141.056 315.085-315.085c0-3.533-0.102-7.066-0.205-10.65z" />
<glyph unicode="&#xe642;" d="M512 949.094c-175.309 0-317.389-142.95-317.389-319.334 0-73.062 26.778-138.701 65.536-194.202 212.275-304.026 217.651-476.672 217.651-476.672 0-8.858 8.602-34.765 34.253-34.765 24.986 0 34.662 25.907 34.662 34.765 0 0 11.827 168.346 217.088 476.518 37.581 56.422 65.638 121.242 65.638 194.406-0.051 176.333-142.131 319.283-317.44 319.283zM512 489.728c-76.851 0-139.162 62.669-139.162 140.032 0 77.312 62.31 140.032 139.162 140.032s139.162-62.669 139.162-140.032c0-77.312-62.31-140.032-139.162-140.032z" />
<glyph unicode="&#xe643;" d="M1001.694 645.068v1.87h-0.342c-0.27 1.458-0.532 2.834-0.79 4.186-0.988 7.984-2.622 15.766-4.876 23.284-0.052 0.214-0.082 0.338-0.082 0.338v-0.048c-16.33 54.048-63.892 94.538-121.708 100.44-61.104 13.726-198.204 23.292-357.618 23.292-197.352 0-375.506-14.662-405.184-33.726-39.040-16.498-69.156-49.92-81.238-91.056l-0.024 1.098c0 0-0.616-2.516-1.648-7.278-0.766-3.128-1.418-6.3-1.976-9.506-6.8-33.97-20.818-116.792-20.818-222.608 0-102.878 13.25-183.88 20.238-219.46 0.814-5.498 1.96-10.888 3.384-16.162 0.518-2.288 0.822-3.538 0.822-3.538l0.012 0.598c16.018-54.59 63.814-95.588 122.018-101.528 61.104-13.726 198.204-23.292 357.616-23.292 197.354 0 375.508 14.662 405.186 33.726 46.398 19.608 80.21 63.11 86.088 115.076 7.17 37.766 19.296 116.162 19.296 214.582 0.002 94.228-11.116 170.202-18.356 209.712zM673.066 419.758l0.004-0.048-236.69-120.356c-2.918-2.268-6.538-3.676-10.52-3.676-9.512 0-17.222 7.71-17.222 17.222v247.468c0 9.512 7.71 17.224 17.222 17.224 2.902 0 5.594-0.786 7.992-2.052l0.072 0.044 236.688-123.996c7.036-2.166 12.182-8.64 12.182-16.386 0.002-6.816-3.988-12.65-9.728-15.444z" />
<glyph unicode="&#xe644;" d="M991.834 861.244c-32.634 23.304-77.982 15.742-101.288-16.894l-214.744-300.714c-0.176-0.24-0.376-0.45-0.55-0.694l-258.188-361.55-289.344 289.344c-28.356 28.356-74.33 28.356-102.686 0s-28.356-74.33 0-102.686l349.168-349.17c14.408-14.408 33.364-21.48 52.246-21.246 22.794-0.124 45.292 10.438 59.546 30.398l214.746 300.716c0.176 0.24 0.378 0.452 0.55 0.694l307.438 430.516c23.304 32.634 15.74 77.982-16.894 101.286z" />
<glyph unicode="&#xe645;" d="M867.149 355.149c0 0-0.051 0 0 0l-716.339-0.256c-0.154 0-0.256-0.051-0.41-0.051v355.584c0 84.992 70.349 156.774 153.6 156.774 66.662 0 122.982-42.957 144.179-102.4h-70.656c-13.056 0-25.088-7.782-31.232-20.275l-38.042-76.851c-12.646-25.549 4.454-56.474 31.232-56.474 0 0 0 0 0 0l261.837 0.154c26.778 0 43.878 30.925 31.232 56.525l-37.99 76.749c-6.195 12.39-18.176 20.173-31.232 20.173h-61.798c-22.886 88.064-102.349 153.6-197.53 153.6-112.947 0-204.8-93.286-204.8-207.974v-403.2h0.819c-0.461-6.656 0.051-13.466 2.406-20.275l88.781-255.693c7.168-20.634 26.573-34.458 48.384-34.458h13.21v-51.2h51.2v51.2h358.4v-51.2h51.2v51.2h28.16c19.558 0 37.376 11.11 45.978 28.672l125.389 255.949c16.64 34.048-8.090 73.779-45.978 73.728zM552.73 713.6l25.293-51.098-215.245-0.102 25.344 51.2h164.608zM867.149 303.949l-125.389-255.949h-502.17l-88.781 255.693 716.339 0.256zM355.2 560h51.2v-51.2h-51.2v51.2zM457.6 560h51.2v-51.2h-51.2v51.2zM560 560h51.2v-51.2h-51.2v51.2zM406.4 457.6h51.2v-51.2h-51.2v51.2zM508.8 457.6h51.2v-51.2h-51.2v51.2z" />
<glyph unicode="&#xe646;" d="M1024 281.6h-31.181l-71.219 284.774v227.226c0 28.262-22.938 51.2-51.2 51.2h-665.6c-28.262 0-51.2-22.938-51.2-51.2v-227.226l-71.219-284.774h-31.181v-204.8h102.4v-51.2h102.4v51.2h563.2v-51.2h102.4v51.2h102.4v204.8zM204.8 793.6h665.6v-204.8h-55.91c2.867 8.038 4.71 16.589 4.71 25.6 0 42.342-34.458 76.8-76.8 76.8h-102.4c-42.342 0-76.8-34.458-76.8-76.8 0-9.011 1.843-17.562 4.71-25.6h-60.621c2.867 8.038 4.71 16.589 4.71 25.6 0 42.342-34.458 76.8-76.8 76.8h-102.4c-42.342 0-76.8-34.458-76.8-76.8 0-9.011 1.843-17.562 4.71-25.6h-55.91v204.8zM614.4 614.4c0 14.131 11.52 25.6 25.6 25.6h102.4c14.080 0 25.6-11.469 25.6-25.6s-11.52-25.6-25.6-25.6h-102.4c-14.080 0-25.6 11.469-25.6 25.6zM307.2 614.4c0 14.131 11.52 25.6 25.6 25.6h102.4c14.080 0 25.6-11.469 25.6-25.6s-11.52-25.6-25.6-25.6h-102.4c-14.080 0-25.6 11.469-25.6 25.6zM199.219 537.6h676.762l64-256h-804.762l64 256zM972.8 128h-870.4v102.4h870.4v-102.4z" />
<glyph unicode="&#xe647;" d="M973.414 492.902l-165.274 60.211-162.918 176.589c-14.438 19.968-37.683 31.898-62.259 31.898h-340.070c-34.202 0-63.744-22.016-72.909-52.787l-59.494-152.064-33.69 0.051c-42.342 0-76.8-34.611-76.8-77.107v-204.134c0-42.547 34.458-77.158 76.8-77.158h29.133c11.981-58.266 62.669-102.4 124.467-102.4 17.562 0 35.942 3.533 54.477 11.264 27.75 11.622 50.637 34.458 62.259 62.259 4.045 9.728 6.298 19.354 8.141 28.877h312.934c11.878-58.419 63.488-102.4 125.389-102.4 17.562 0 35.942 3.533 54.477 11.264 27.75 11.622 50.637 34.458 62.259 62.259 4.045 9.728 6.298 19.354 8.141 28.877h28.723c42.342 0 76.8 34.611 76.8 77.107v144.896c0 32.307-20.275 61.491-50.586 72.499zM605.645 697.395l129.536-140.595h-325.581v153.6h173.363c8.192 0 15.923-3.994 22.682-13.005zM218.368 692.173c3.226 10.752 13.312 18.227 24.525 18.227h115.507v-153.6h-192.922l52.89 135.373zM299.878 189.235c-6.4-15.36-19.405-28.314-34.714-34.714-11.674-4.864-23.347-7.322-34.765-7.322-25.754 0-49.664 12.851-64 34.304-8.653 13.005-20.89 40.346-5.478 77.21 6.4 15.36 19.405 28.314 34.714 34.714 11.674 4.915 23.347 7.373 34.765 7.373 25.754 0 49.715-12.851 64-34.304 8.653-13.005 20.89-40.346 5.478-77.261zM863.078 189.235c-6.4-15.36-19.405-28.314-34.714-34.714-11.674-4.864-23.347-7.322-34.765-7.322-24.115 0-46.387 11.008-61.082 30.259-14.95 19.558-19.405 44.083-12.595 69.018 6.656 24.474 26.778 44.544 51.2 51.2 7.526 2.099 15.104 3.123 22.477 3.123 25.754 0 49.715-12.851 64-34.355 8.653-12.954 20.89-40.294 5.478-77.21zM972.8 275.507c0-14.285-11.52-25.907-25.6-25.907h-29.133c-11.981 58.266-62.669 102.4-124.467 102.4-11.674 0-23.706-1.587-35.942-4.915-41.83-11.418-75.776-45.312-87.142-87.142-0.973-3.482-0.922-6.861-1.587-10.342h-314.061c-11.981 58.266-62.669 102.4-124.467 102.4-17.562 0-35.942-3.533-54.477-11.264-27.75-11.622-50.637-34.458-62.259-62.259-4.045-9.728-6.298-19.354-8.141-28.877h-28.723c-14.080 0-25.6 11.622-25.6 25.907v204.186c0 14.285 11.52 25.907 25.6 25.907h712.346l166.758-60.774c10.086-3.686 16.896-13.517 16.896-24.422v-144.896zM460.8 454.4h102.4v-51.2h-102.4v51.2z" />
<glyph unicode="&#xe648;" d="M902.95 203.418l0.026 0.026-2.099 2.24c-0.845 0.909-1.664 1.856-2.547 2.726l-121.741 130.445c-1.114 0.986-2.112 2.074-3.034 3.251l-0.653 0.691-0.038 0.141c-3.021 4.211-4.864 9.344-4.864 14.925 0 1.779 0.192 3.52 0.538 5.197v67.29c-0.179-0.064-0.346-0.166-0.538-0.23v81.882c0 131.802-90.573 242.419-212.851 273.114 5.107 10.278 8.051 21.824 8.051 34.086 0 42.419-34.381 76.8-76.8 76.8s-76.8-34.381-76.8-76.8c0-12.262 2.944-23.808 8.051-34.086-122.278-30.694-212.851-141.312-212.851-273.114v-81.869c-0.179 0.064-0.346 0.166-0.538 0.23v-67.29c0.346-1.69 0.538-3.418 0.538-5.21 0-5.594-1.843-10.726-4.877-14.938l-0.038-0.141-0.653-0.691c-0.922-1.165-1.92-2.253-3.034-3.251l-121.741-130.445c-0.883-0.87-1.702-1.805-2.547-2.726l-2.099-2.24 0.026-0.026c-11.277-13.299-18.112-30.477-18.112-49.28 0-13.99 3.827-27.072 10.419-38.349h-0.013c0 0 1.818-5.85 10.982-14.541 6.016-6.234 13.082-11.418 20.915-15.322 37.453-22.246 117.99-50.086 290.048-58.074 0-0.755-0.077-1.485-0.077-2.24 0-56.55 45.85-102.4 102.4-102.4s102.4 45.85 102.4 102.4c0 0.755-0.141 1.485-0.154 2.24 172.109 7.987 252.659 35.827 290.112 58.086 7.834 3.904 14.899 9.088 20.915 15.322 9.165 8.691 10.982 14.541 10.982 14.541h-0.013c6.579 11.277 10.419 24.346 10.419 38.349 0 18.803-6.835 35.981-18.112 49.28zM460.8 819.2c0 14.144 11.456 25.6 25.6 25.6s25.6-11.456 25.6-25.6c0-14.144-11.456-25.6-25.6-25.6s-25.6 11.456-25.6 25.6zM232.614 304.013c1.92 1.882 3.763 3.853 5.478 5.939l0.026 0.026c9.6 11.674 15.744 26.253 17.037 42.214 0.499 1.997 0.845 4.058 0.845 6.208v153.6c0.576 127.334 102.925 230.4 230.4 230.4s229.824-103.066 230.4-230.4v-153.6c0-2.15 0.346-4.211 0.845-6.208 1.293-15.962 7.437-30.541 17.037-42.214v0l0.026-0.026c1.715-2.086 3.558-4.045 5.478-5.939l126.413-137.114c2.355-3.891 3.802-8.41 3.802-13.299 0-6.771-2.675-12.89-6.976-17.472-1.28-1.37-2.79-2.79-4.378-4.16-136.026-64.755-372.646-55.168-372.646-55.168s-236.621-9.587-372.646 55.168c-1.587 1.37-3.098 2.79-4.378 4.16-4.301 4.582-6.976 10.701-6.976 17.472 0 4.89 1.446 9.408 3.814 13.286l-0.026 0.013 126.426 137.114zM536.538 25.6c0-27.686-22.451-50.138-50.138-50.138s-50.138 22.451-50.138 50.138c0 0.192 0.051 0.371 0.051 0.563 16.090-0.333 32.602-0.563 50.086-0.563s34.010 0.23 50.086 0.563c0-0.192 0.051-0.371 0.051-0.563zM199.872 765.734c-0.973-0.371-1.933-0.781-2.842-1.267-77.965-34.048-86.63-130.035-87.309-161.498-0.064-0.346-0.205-0.653-0.256-0.998-0.486-3.123-0.307-6.17 0.294-9.088 0-0.013 0-0.090 0-0.090h0.013c2.125-10.125 10.227-18.368 21.043-20.058 13.965-2.176 27.059 7.386 29.235 21.35 0.333 2.176 0.307 4.301 0.102 6.387 0.499 86.95 55.91 116.378 59.597 118.221 0.102 0.051 0.205 0.102 0.294 0.154 0 0 0.064 0.026 0.064 0.026v0c7.309 3.533 12.826 10.458 14.17 19.085 2.176 13.965-7.386 27.059-21.35 29.235-4.326 0.678-8.512 0.115-12.365-1.242l-0.026 0.051c-0.243-0.064-0.448-0.179-0.666-0.269zM182.067 826.752c1.459 0.486 2.867 1.075 4.198 1.792v0 0c6.784 3.674 11.878 10.278 13.158 18.496 2.176 13.965-7.386 27.059-21.35 29.235-5.581 0.87-10.982-0.192-15.642-2.611-173.312-74.726-162.304-310.771-162.304-310.771h0.013c0.141-12.275 9.050-23.040 21.581-24.986 13.965-2.176 27.059 7.386 29.235 21.35 0.41 2.598 0.282 5.133-0.077 7.603-2.79 188.71 108.173 249.382 131.187 259.891zM752.858 718.899v0c0 0 0.051-0.038 0.064-0.038 0.102-0.051 0.205-0.102 0.294-0.154 3.686-1.843 59.11-31.283 59.597-118.234-0.205-2.086-0.23-4.211 0.102-6.387 2.176-13.965 15.27-23.526 29.235-21.35 10.816 1.69 18.918 9.946 21.043 20.058h0.013c0 0 0 0.077 0 0.090 0.602 2.918 0.781 5.978 0.294 9.088-0.051 0.346-0.192 0.653-0.256 0.998-0.678 31.462-9.344 127.437-87.309 161.498-0.922 0.486-1.869 0.896-2.842 1.267-0.218 0.090-0.422 0.205-0.653 0.294l-0.026-0.051c-3.853 1.357-8.051 1.92-12.365 1.242-13.965-2.176-23.526-15.27-21.35-29.235 1.331-8.627 6.848-15.552 14.157-19.085zM972.813 562.893c0 0 11.008 236.045-162.304 310.771-4.659 2.406-10.061 3.482-15.642 2.611-13.965-2.176-23.526-15.27-21.35-29.235 1.536-9.83 8.512-17.382 17.37-20.288 23.027-10.522 133.978-71.194 131.174-259.891-0.358-2.47-0.486-5.005-0.077-7.603 2.176-13.965 15.27-23.526 29.235-21.35 12.531 1.958 21.44 12.71 21.581 24.986h0.013z" />
<glyph unicode="&#xe649;" d="M798.63-78.234c-13.478 1.984-27.034 3.533-40.422 6.016-51.43 9.536-100.058 27.571-147.136 49.933-97.382 46.259-184.077 108.288-264.077 180.006-84.851 76.070-160.41 160.384-223.424 255.552-44.838 67.712-82.394 139.085-106.061 217.165-8.461 27.93-14.618 56.346-17.075 85.491-0.141 1.754-0.768 3.456-1.165 5.184 0 12.557 0 25.114 0 37.683 0.461 2.624 1.037 5.222 1.357 7.859 3.315 27.418 11.149 53.069 30.515 73.728 15.782 16.819 31.821 33.408 48.256 49.587 21.030 20.672 43.674 39.296 71.859 49.549 9.165 3.328 18.88 5.171 28.352 7.68 8.077 0 16.154 0 24.218 0 7.795-1.933 15.718-3.418 23.347-5.875 18.803-6.080 35.61-16.038 50.291-29.094 43.29-38.502 77.619-83.853 100.39-137.242 20.429-47.885 13.862-92.621-20.224-132.326-13.261-15.462-27.52-30.144-42.24-44.237-7.974-7.629-9.395-15.642-7.053-25.459 4.864-20.416 15.296-38.182 26.765-55.36 27.61-41.395 60.659-78.31 95.117-113.984 46.464-48.102 94.093-95.014 148.403-134.387 15.526-11.264 32.538-20.531 49.19-30.17 5.734-3.315 12.339-5.312 18.726-7.296 11.942-3.712 21.939-2.458 31.373 7.936 13.21 14.566 27.776 28.070 42.765 40.845 39.411 33.587 83.814 40.166 131.187 20.058 54.694-23.219 101.286-58.189 139.968-103.245 16.883-19.674 28.339-42.406 31.898-68.557 0.115-0.858 0.653-1.651 0.986-2.483 0-8.077 0-16.154 0-24.218-0.294-0.602-0.755-1.19-0.845-1.818-4.25-31.13-19.238-57.203-39.859-79.859-19.418-21.325-40.512-41.126-60.71-61.76-14.63-14.938-32.013-25.126-52.198-30.17-11.443-2.854-23.181-4.518-34.778-6.72-12.57-0.013-25.126-0.013-37.696-0.013zM820.378-27.123c4.762 0.358 12.403 0.589 19.955 1.549 18.88 2.406 36.006 8.384 49.37 23.091 8.128 8.947 17.805 16.474 25.971 25.37 14.669 15.987 30.246 31.45 42.701 49.075 21.35 30.221 19.878 56.832-1.715 86.912-14.016 19.533-31.974 35.046-50.88 49.574-22.963 17.651-46.656 34.061-73.779 44.979-28.352 11.418-54.579 8.794-77.722-11.776-15.565-13.837-30.464-28.454-45.235-43.149-14.195-14.118-31.13-21.491-50.893-19.853-12.57 1.050-25.408 3.456-37.261 7.68-32.461 11.546-60.39 31.232-87.322 52.186-58.214 45.299-110.374 97.114-160.627 150.912-28.339 30.336-55.27 61.875-78.477 96.397-15.552 23.13-29.581 47.104-35.981 74.624-6.669 28.698-1.549 53.99 21.146 74.778 12.544 11.482 24.090 24.102 35.571 36.685 9.101 9.971 16.806 21.094 20.403 34.381 5.21 19.251 0.627 37.466-7.552 54.758-19.776 41.805-46.938 78.362-81.088 109.504-7.846 7.155-17.203 12.954-26.624 17.984-18.112 9.677-37.184 10.291-55.526 0.922-11.085-5.67-22.298-12.070-31.411-20.39-20.518-18.701-39.539-39.040-59.635-58.227-11.558-11.059-17.933-24.538-20.39-39.898-1.69-10.573-2.739-21.389-2.675-32.090 0.192-31.386 6.63-61.824 15.514-91.789 20.109-67.776 51.763-130.163 89.843-189.338 84.659-131.558 191.347-242.586 316.442-336.051 66.854-49.958 138.278-92.16 216.858-121.28 41.357-15.322 83.699-26.458 131.021-27.52z" />
<glyph unicode="&#xe64a;" d="M712.934 272.282c9.997-9.997 9.997-26.202 0-36.198v0c-9.997-9.997-26.202-9.997-36.198 0l-362.035 362.035c-9.997 9.997-9.997 26.202 0 36.198v0c9.997 9.997 26.202 9.997 36.198 0l362.035-362.035zM350.899 236.083c-9.997-9.997-26.202-9.997-36.198 0v0c-9.997 9.997-9.997 26.202 0 36.198l362.035 362.035c9.997 9.997 26.202 9.997 36.198 0v0c9.997-9.997 9.997-26.202 0-36.198l-362.035-362.035z" />
</font>
</defs>
</svg>
