<?xml version="1.0" encoding="utf-8"?>
<!-- Generator: Adobe Illustrator 17.1.0, SVG Export Plug-In . SVG Version: 6.00 Build 0)  -->
<!DOCTYPE svg PUBLIC "-//W3C//DTD SVG 1.1//EN" "http://www.w3.org/Graphics/SVG/1.1/DTD/svg11.dtd">
<svg version="1.1" xmlns="http://www.w3.org/2000/svg" xmlns:xlink="http://www.w3.org/1999/xlink" x="0px" y="0px"
	 viewBox="0 0 480 480" enable-background="new 0 0 480 480" xml:space="preserve" >
  <style type="text/css" >
    @import url(http://fonts.googleapis.com/css?family=Pacifico);
  
    a:hover text
    {
        text-decoration: underline;
    }
    #Midi_Pyrennes a:hover path
    {
      fill: rgb(29, 124, 202);
      stroke: orange;
      stroke-width: 3px;
    }
    #Aquataine a:hover path
    {
      fill: rgb(72, 172, 244);
      stroke: orange;
      stroke-width: 3px;
    }
    #Poitou_Charentes a:hover path
    {
      fill: rgb(81, 145, 245);
      stroke: orange;
      stroke-width: 3px;
    }
  </style>

<g id="Midi_Pyrennes">
  <a xlink:href="http://www.frenchestateagents.com/" target="_top">  
	  <path id="midi_pyrennes_map_2_" fill-rule="evenodd" clip-rule="evenodd" fill="#3383C5" d="M163.4,412.6c0.1-1.4,0.4-2.7,1-4.5
		  c0.9-2.8-3.2-4.7,1.4-6.8c4.5-2.1,6-4,6.2-5.7s1.8-3.7,4.9-5.6c3.1-1.9,3.9-5.8,4-7.4c0.2-1.5-3.1-3.6,0.2-5.7
		  c3.3-2.1,3.6-2.4,1.8-5.7c-1.9-3.4,1-3.9-1.1-7.9c-2.1-4-3.1-7.4-6.5-7.9c-3.4-0.5-8.3,0.2-7.5-2.8c0.8-3,1.7-1,1.1-3.2
		  c-0.6-2.3-0.2-3.2,1.9-3.9c2.1-0.6,3.2-3.5,1.5-6.1c-1.8-2.6,2.1-3.4,1.2-6.5c-0.9-3.1-2-4,0.5-5.4c2.5-1.5,5.3-0.5,6.5-2.5
		  c1.2-2,4.6-4.4,4.5-1.4c-0.1,3,1,5.3,3.2,3.9c2.2-1.5,1-5.3,3.1-5.1c2.1,0.2,4-0.2,4.8-1.5c0.7-1.4,3.8-0.4,5.5,0.6
		  c1.7,1,3.8,0.2,7-2.6c3.2-2.8,5.1-4.1,9.8-3.2c4.7,0.9,4.9,4.9,7,3.2c2.1-1.8,4.9-5.8,7.9-8.7c3.1-2.9,7-4,7.4-7
		  c0.4-3.1-5.7-2.5-3.4-5.7c2.3-3.2,1.2-5.3,5-4.9c3.8,0.4,7.4-0.3,7.8-1.6c0.3-1.3-3-6.5-4.4-8.3c-1.5-1.8-1.8-3.8,2.7-6.4
		  c4.5-2.6,6-5.3,8.6-8.4c2.6-3.2,6.4-3.6,6.6-5.5c0.2-1.9,0-5.3,2.7-6.9c2.7-1.5,4-1.4,4-4c0-2.6,1.9-3.3,0.8-5.6
		  c-1.1-2.3-2.8-3.6,0.7-5.7c3.6-2.2,3.6-5.2,6.9-2.9c3.2,2.3,6.6,4.4,8.2,6.2c1.6,1.9,0.3,4.4,5.7,3.2c5.4-1.1,4-3.9,6.1-3.3
		  c2.1,0.6,3.1,0.8,5-0.5c1.9-1.3,4.2,0,4,2.8c-0.2,2.8,2.6,8.1,3.6,9.1c1,1,1.6,2.5,1.3,5.5c-0.3,3-1.7,4.1-0.2,7.2
		  c1.5,3.1,0.6,5.9,2.3,4.6c1.6-1.3,2.2-6.6,7.2-3c5,3.6,8.2,0.2,10.9-2.6c2.7-2.8,0.6-5.4,3.5-8.8c2.9-3.4,4.3-5.2,5.6-7.5
		  c1.3-2.3,4-2,6.2,0.2c2.3,2.3,6.7,4.5,6.8,7.3c0.1,2.8,1.6,6.6,2.3,8.7c0.3,0.8,2.1,1.9,4.3,2.9l-0.1,0.2c-1.5,3.9,1.5,4.2,4.1,7
		  c2.6,2.8,0.6,4.9,1.4,7.5c0.7,2.6,3,2.7,3.2,5.7c0.2,3.1,0.2,2.4-0.8,5.6c-1,3.2-0.9,4.2,0.8,5.7c1.7,1.5,3.7,5.3,5.6,5.5
		  c1.9,0.2,7.5,0.3,5.6,4.1c-1.9,3.8-2.7,4.9,3.5,7.9c6.2,3,1.4,5.3,0.1,7.2c-1.3,1.9-3.3,4.9-5.3,5.1c-1.9,0.2-2.5,3.7-4,6.3
		  c-1.5,2.6-3.6,1.6-7.2,0.3c-3.6-1.3-3.6,3.1-2.4,5.8c1.2,2.8-0.4,5.7-2.8,5.2c-2.4-0.6-4.2-2-5.3,0.9c-1.1,2.9-8,5.2-10.2,5.8
		  c-2.2,0.6-2.2-1.9-5-2.8c-2.8-0.9-2.8,1.9-2.6,5.4c0.2,3.5,2,5.4,1.9,8.5c-0.1,3.1-4.4,2.8-7,3.7c-2.6,1-3.3-2-4.5-1.1
		  c-1.1,1-5.3,1.8-9,0.4c-3.6-1.4-4,0.9-4.4,2.3c-0.4,1.5-2.6,2.2-6.2-0.1c-3.6-2.3-3.9,2.4-5.3-0.2c-1.4-2.6-3.5-2.5-5.5-1.1
		  c-2,1.4-3.2,3.7-5.8,1.1c-2.6-2.6-2.6,0.3-3.5,4.1c-0.9,3.8-2.9,0.6-4.3,3.2c-1.4,2.5-2.7,2.5-2.5,7.3c0.2,4.8,5.7,6.6,10.3,8.3
		  c4.7,1.6,3.3,3.5,4.3,5.8c1,2.4,3.8,4.9,2,6.9c-1.8,1.9-1.2,2.6,1,6.8c2.2,4.2-2.5,3.3-4.3,3.2c-1.8-0.1-1.1,1.8-0.6,4.2
		  c0.6,2.4,2.5,5.7,8.7,5.6c6.1-0.1,2.7,6.2-1.1,6.3c-3.8,0.1-4,1.5-5,4c-1.1,2.5-4.1,3.6-7.6,1.5c-1.7-1-4.1-0.8-6.1-0.4
		  c0-0.3,0.1-0.5,0.1-0.8c0-2.6-1.5-2-5.3-2.5c-3.8-0.5-5.7-2.3-8.1-1.6c-2.3,0.7-5.1,0-7-2.7c-1.9-2.7-3.8-4-8.2-4
		  c-4.4,0-4.5,0.2-6.9-2.8c-2.4-3-2.9-2.8-11.6-3.5c-8.7-0.7-8.8-4.4-12.1-5.3c-3.2-0.9-5.9,4-5.7,6.8c0.2,2.8,2,4.5,1.4,6.2
		  c-0.6,1.6-4.5,1.2-7.2,0.1c-2.7-1.1-4.7,0.9-7.3,0.2c-2.6-0.7-3-3.2-5.3-1.3c-2.3,1.9-4.6,1.5-6,0.4c-1.4-1.1-4.7-4-6.9-2.8
		  c-2.3,1.2-7.9,5.2-11.2,3.3c-3.2-1.9-5.3-6.2-7.2-7.3c-2-1.1-3-3.8-6.5-7C164.1,413,163.7,412.8,163.4,412.6z"/>
	  <text transform="matrix(1 0 0 1 231.9494 342.9622)" fill="#FFFFFF" font-family="'Pacifico'"  font-size="16">Midi-Pyrenees</text>
  </a>  
</g>
  
<g id="Aquataine">
  <a xlink:href="http://www.frenchestateagents.com/" target="_top">  
	  <path id="Aquataine_map_4_" fill-rule="evenodd" clip-rule="evenodd" fill="#68AEE1" d="M76.5,366.4c0.5,0,1.2,0,2,0
		  c5.2,0,7-0.6,9.2-2.8c2.2-2.3,4-6.9,6.1-9.5c2.1-2.6,4.9-6.5,4.9-10c0-3.5,0.5-5.2,1-10c0.6-4.9,7.8-19.5,8.2-29.1
		  c0.5-9.6,4.2-19.1,4.4-23.6c0.2-4.5,0-7.8,0-7.8s1.9-3,2.7-5.3c0.8-2.3,1.5-4.3,1.5-4.3s0.8-0.3,3.3,0.2c2.5,0.5,6.6,0.1,5.3-2.7
		  c-1.4-2.8-4.8-7.1-5.7-7.1c-0.9,0-2.7,2.8-3.3,4.9c-0.6,2.1-3.1,5.1-3.1,5.1s-1-4.5,0.6-9.1c1.6-4.6,2.1-6.2,2.3-11.4
		  c0.2-5.2,1.6-9.8,1.9-15c0.3-5.2,3.4-16,3.7-23.3c0.3-7.3,1.5-10.2,2.6-12.6c1.1-2.4,2.9-3.9,2.9-3.9s-1.8,3.1,3.4,7
		  c5.2,3.9,14.4,11.8,14.4,18.5c0,6.6,0,11.5,2.3,15.9c2.3,4.4,6.8,12.2,7.9,12.3c0,0-3.4-4.2-4-8.7c-0.6-4.5-1.6-5.3-1.9-12.3
		  c-0.1-3-0.1-6.4-0.5-9.9c1.4,0,3.4-0.1,4.1-0.7c1.2-0.9,2.3-1.9,2.9,1.1c0.6,3,1.1,4.5,4,2.8c3-1.6,5,0.7,5,5
		  c0,4.3-0.8,5.9,3.8,5.7c4.6-0.2,5.5,2.3,6.6,3.8c1.1,1.5,5.5-2.7,6.8-2.7s2.9,4.4,4.3,1.3c1.4-3.1,0.7-5.6,3.6-6
		  c2.8-0.4,5.5-0.4,6.1-0.6c0.7-0.2,7.2-4.4,7.4-6.3c0.2-1.9-5-8.3,3.1-12.3c8.1-4,9.7-3.1,10.4-7.9c0.6-4.9-2.1-7.8,2.9-8.1
		  c5-0.3-1.6-4.7,5.7-4.5c7.3,0.2,10.7-0.6,8.7,4.5c-1.9,5.2-0.2,4.9,6.1,3.1c6.3-1.8,8.7-1.5,9.7,2.9c1,4.4,6.6,1.3,5.5,4
		  c-1.1,2.8-3.4,3.9,0.2,4.7c3.6,0.8,7,1.5,6.6,3.9c-0.3,2.4-0.5,3.4,0.8,4c1.3,0.6-1.9,0.5-3.4,5.2c-1.5,4.7,2.3,3.9,2.3,8.6
		  c0,4.7-2.1,6.8,1.8,6.8s5.7-0.8,5.5,1.3c-0.1,1.1,1.4,4.6,3.1,7.9c-0.3,0.2-0.6,0.4-0.9,0.6c-3.6,2.2-1.9,3.5-0.7,5.7
		  c1.1,2.3-0.8,3-0.8,5.6c0,2.6-1.4,2.4-4,4c-2.7,1.5-2.5,5-2.7,6.9c-0.2,1.9-4,2.3-6.6,5.5c-2.6,3.2-4,5.8-8.6,8.4
		  c-4.5,2.6-4.2,4.6-2.7,6.4c1.5,1.8,4.8,7,4.4,8.3c-0.3,1.3-4,2-7.8,1.6c-3.8-0.4-2.8,1.8-5,4.9c-2.3,3.2,3.8,2.6,3.4,5.7
		  c-0.4,3.1-4.3,4.1-7.4,7c-3.1,2.9-5.8,7-7.9,8.7c-2.1,1.8-2.3-2.3-7-3.2c-4.7-0.9-6.6,0.4-9.8,3.2c-3.2,2.8-5.3,3.6-7,2.6
		  c-1.7-1-4.8-1.9-5.5-0.6c-0.7,1.4-2.7,1.8-4.8,1.5c-2.1-0.2-0.9,3.6-3.1,5.1c-2.2,1.5-3.2-0.9-3.2-3.9c0.1-3-3.3-0.6-4.5,1.4
		  c-1.2,2-4,1.1-6.5,2.5c-2.5,1.5-1.4,2.3-0.5,5.4c0.9,3.1-3,3.9-1.2,6.5c1.8,2.6,0.6,5.4-1.5,6.1c-2.1,0.6-2.6,1.6-1.9,3.9
		  c0.6,2.3-0.2,0.2-1.1,3.2c-0.8,3,4.1,2.3,7.5,2.8c3.4,0.5,4.4,3.8,6.5,7.9c2.1,4-0.7,4.5,1.1,7.9c1.9,3.4,1.5,3.6-1.8,5.7
		  c-3.3,2.1-0.1,4.2-0.2,5.7c-0.2,1.5-1,5.5-4,7.4c-3.1,1.9-4.6,3.9-4.9,5.6s-1.7,3.6-6.2,5.7c-4.5,2.1-0.5,4-1.4,6.8
		  c-0.6,1.8-0.9,3.1-1,4.5l-0.2-0.1c-2.1-1-1.9,2.5-3.3,4.1c-1.5,1.9-3.6,1.8-6.3,0.1c-2.7-1.7-3.3,1.3-5.3,2c-2.1,0.7-1.8-2.5-4-4.9
		  c-2.2-2.4-4.1-2.5-5.3-4c-1.3-1.5,0.8-3.7-1.7-5.5c-2.5-1.9-3.9,0.6-6.1,0.7c-2.3,0.2-8.2-2.4-9.8-4c-1.6-1.5-5.2-2.1-6.3-2.3
		  c-1.1-0.2-4.3-1.5-5.9-2.3c-1.6-0.8-4.2-7.1-4.4-4.8c-0.2,2.3-5.8,6.6-9.3,2c-3.5-4.6,2.4-7,4-9.6c1.6-2.6,1.5-7.6-0.4-6.8
		  c-1.9,0.8-3.7-1.9-6.1-2.2c-2.3-0.3-2.5,3.1-6,3.1c-3.5,0-1.4-4.1-3.2-4.9c-1.9-0.8-4.6,0.5-4.6,0.5S76.6,371.3,76.5,366.4z"/>
	  <text transform="matrix(1 0 0 1 147.3705 289.9131)" fill="#FFFFFF" font-family="'Pacifico'" font-size="16">Aquitaine</text>
  </a>
</g>
  
<g id="Poitou_Charentes">
  <a xlink:href="http://www.frenchestateagents.com/" target="_top">  
	  <path fill-rule="evenodd" clip-rule="evenodd" fill="#6189C7" d="M148.8,211.8c-0.5-4.6-1.6-9.3-4.5-13.4
		  c-5.2-7.1-9.2-8.4-13.7-13.3c-4.5-4.9-10.2-6.2-10.2-6.2h-1.8c0,0,0.3-4.4,0.5-5.5c0.2-1.1,1.9-2.8,3.3-3.5
		  c1.5-0.6,2.4-1.9,2.7-3.4c0.2-1.5,1.8-4.5,2.3-5c0.5-0.6,2-0.7,1-3.3c-1.1-2.6-0.8-5.1-0.8-5.1s3.4,0.2,1.1-3.8
		  c-2.3-4-0.2-3.5-2.3-5.1c-2.1-1.6-5.8-2.7-4.9-5.8c0.9-3.2,3.2-0.8,4.6-4.7c0.6-1.6,0.5-3.1,0.1-4.3l0,0c3.1-2.6,8.4-5.2,12.6-2.5
		  c4.2,2.8,2.4,3.4,10.2,4.2c7.8,0.8,2.9-4,7.9-4c5,0,1.3-1.5-1.3-5c-2.6-3.6-1.3-5-0.3-7.9c1-2.9,1.5-4.7,1-8.1
		  c-0.5-3.4-0.3-3.7-2.1-7.3c-1.8-3.6-0.6-1.9-2.1-7.3c-1.5-5.3-5.2-3.4-5.3-5.7c-0.2-2.3-3.7-7.1-4.4-8.1c-0.6-1-1.5-5.8-1.5-5.8
		  s5.2,3.1,8.2,2.8c3.1-0.3,8.1,1.8,9.5-0.2c1.5-1.9,4-2.5,4-4.6c0-2.1,2.6-1.3,4.4-0.9c1.7,0.4,4.7-1.4,6-2.3c1.3-0.9,5.2-1,6.9-0.2
		  c1.7,0.7,3.3,1.3,4.6,1.6c1.4,0.3,3,1.6,4.4-0.8c1.5-2.4,3.6-6.2,5.4-5.8c1.9,0.3,7,4.7,7.8,7c0.7,2.3,1.9,2.4,4.5,2.8
		  c2.6,0.3,3.6,1,3.6,3.9c0,2.9,1.2,6.2,3.6,6.5c2.3,0.3,4.2,0,6.8-1.2c2.6-1.2,3.9-2.3,4.4-4c0.6-1.8,5.5,1.5,6.9,3.2
		  c1.4,1.7,1.6,7.7,4.3,11c2.8,3.3,5.9,5.4,6.6,7.1c0.7,1.7-2.6,7.4,0.4,10.8c3,3.4,4.5,5.3,6.2,5.6c1.7,0.3,4.8-0.7,6.5,2.1
		  c1.7,2.8,0.7,5.1,1.5,6.5c0.6,1,1.3,3.8,1.7,5.4c-0.9-0.2-1.8-0.4-2.5-0.4c-2.1,0-7.6,1-9.2,4.2c-1.6,3.2-3.2,5-7.8,5
		  c-4.5,0-6.5,3.9-3.9,7c2.6,3.1,0.6,5,1,9.1c0.3,4,6.1,3.6,6.3,8.7c0.2,5.2-5.2,2.1-6,5.8c-0.8,3.7-5,3.9-7.8,7
		  c-2.8,3.1-3.7,7.8-3.7,7.8c-7.3-0.2-0.6,4.2-5.7,4.5c-5,0.3-2.3,3.2-2.9,8.1c-0.6,4.9-2.3,3.9-10.4,7.9c-8.1,4-2.9,10.4-3.1,12.3
		  c-0.2,1.9-6.7,6.1-7.4,6.3c-0.6,0.2-3.3,0.2-6.1,0.6c-2.1,0.3-2.3,1.8-2.8,3.7c-0.2,0.7-0.4,1.5-0.8,2.3c-1.4,3.1-3-1.3-4.3-1.3
		  s-5.7,4.2-6.8,2.7c-1.1-1.5-2-4-6.6-3.8c-4.6,0.2-3.8-1.4-3.8-5.7c0-4.3-2-6.6-5-5c-3,1.6-3.5,0.2-4-2.8c-0.6-3-1.7-2-2.9-1.1
		  C152.2,211.7,150.2,211.8,148.8,211.8L148.8,211.8z M119.2,168.1c0,0,4.5-3.6,1.5-7.6c-3.1-4,0.2-3.7-3.1-6.6
		  c-3.2-2.9-4.5-2.4-5.5-4.1c-1-1.6-2.9,3.1-1.5,5.3c1.5,2.3,5.8,6.3,7,8.3C118.7,165.4,119.2,168.1,119.2,168.1z"/>
	  <text transform="matrix(1 0 0 1 166.5499 145.7505)"><tspan x="0" y="0" fill="#FFFFFF" font-family="'Pacifico'" font-size="16">Poitou</tspan><tspan x="-12.2" y="19.2" fill="#FFFFFF" font-family="'Pacifico'" font-size="16">Charentes</tspan></text>
  </a>
</g>
</svg>
