<?xml version="1.0" encoding="utf-8"?>
<!-- Generator: Adobe Illustrator 17.1.0, SVG Export Plug-In . SVG Version: 6.00 Build 0)  -->
<!DOCTYPE svg PUBLIC "-//W3C//DTD SVG 1.1//EN" "http://www.w3.org/Graphics/SVG/1.1/DTD/svg11.dtd">
<svg version="1.1" id="Layer_1" xmlns="http://www.w3.org/2000/svg" xmlns:xlink="http://www.w3.org/1999/xlink" x="0px" y="0px"
	 viewBox="187.5 13.8 46.8 53.2" enable-background="new 187.5 13.8 46.8 53.2" xml:space="preserve">

  <style type="text/css" >
    @import url(http://fonts.googleapis.com/css?family=Pacifico);
  
    a:hover text
    {
        text-decoration: underline;
        fill: #fff;
    }
    #auvergne:hover path
    {
      fill: rgb(247, 114, 8);
    }
    #burgundy:hover path
    {
      fill: rgb(249, 187, 120);
    }
    #limousin:hover path
    {
      fill: rgb(255, 90, 10);
    }
    #centre:hover path
    {
      fill: rgb(252, 144, 27);
    }
    a:hover path{
      stroke: #89B2EF;
      stroke-width: 0.4px;
    }
  </style>

<a id="auvergne" xlink:href="http://www.frenchestateagents.com/" target="_top">
<path fill="#EF7A1D" d="M205.1,62.9c0.3-0.3,0.5-0.5,0.5-0.6c0.1-0.4-0.2-0.8,0.4-1.1c0.6-0.3,0.2-1,0.2-1.2c0-0.3,0.5-0.8,1-1.2
	c0.5-0.4,0.4-0.7,0.3-1.1c-0.1-0.4,0.6,0.5,1,0.2s0.7-0.8,0.3-1.4c-0.4-0.6-0.7-0.9-0.3-1.3c0.4-0.4,0.7-0.7,0.4-1.1
	c-0.4-0.5-1.3-0.8-0.9-1.5c0.4-0.7,1.3-0.6,1.4-1.3c0.1-0.7,0.5-1.7,0-2.4c-0.6-0.8-0.6-1.1-1.1-1.7s-1.7-1.4-1.6-1.9
	c0.2-0.4,0.5-1,1.2-1s2-0.2,1.7-0.7c-0.3-0.4-0.2-1,0.4-1.4c0.6-0.4,0.9,0,1.3-0.4c0.4-0.4,0.9-1.2,1.5-0.7c0.6,0.5,0.4,0.7,0.8,0.7
	c0.4,0,0.6,0.1,0.8,0.4c0.2,0.4,0.3-0.5,0.6-0.2c0.3,0.3,0.8,0.2,1,0c0.2-0.2,0.4,0.5,0.7,0.7c0.3,0.1,0.5-0.1,0.6-0.4
	s0.4-0.6,0.4-0.8s0.4,0.5,0.5,0.8c0.1,0.3,0.6,0.2,0.7,0.7c0.1,0.5-0.2,0.7,0.2,1.1c0.5,0.3,1.8,0,1.8,0.8s0.2,1.5,0,1.7
	c-0.2,0.3-1,0.4-1.3,0.5c-0.2,0.1-0.5,0.4-0.1,1l0,0c-0.3,0.2-0.2,1.2,0.1,1.9c0.3,0.8-0.1,0.8-0.8,0.8c-0.7,0-0.1,0.8,0.1,1.3
	c0.2,0.5-0.7,0.9-0.1,1.5c0.6,0.6,1.6,2,2.3,2.7c0.7,0.7-0.3,0.7-0.8,1.4s0.4,0.5,0.9,0.5c0.4,0.1,0.6-0.1,1.1-0.2
	c0.4-0.2,0.3-0.2,0.9-0.4c0.6-0.2,0.9,0.1,1,0.7c0.1,0.6-0.2,0.8,0.4,0.8c0.5,0,0.5,0.6,0.4,1.2c-0.1,0.5-0.3,0.5-0.5,1
	c-0.2,0.4-0.1,0.4-0.5,0.9c-0.4,0.4,0,0.7-0.4,0.6c-0.4,0-0.7,0.7-0.9,1.1c-0.3,0.4-1.2-0.1-1.3,0.3c-0.1,0.1-0.6,0.7-1.2,1.4
	c-0.1-0.2-0.1-0.1-0.4-0.3c-0.4-0.3-0.4-0.6-0.7-0.6c-0.3,0-0.5-0.1-0.5-0.4c0-0.4-0.7-0.6-0.7-0.2s-0.2,0.7-0.9,0.6s-0.5-0.4-0.5-1
	c-0.1-0.6-0.4-0.5-1-0.2s-0.3,0.1-0.8,0.5c-0.4,0.5-0.3,0-0.6,0c-0.3,0-0.7,0.6-0.7,1c0,0.4-0.2,1.1-0.4,1.6
	c-0.3-0.2-0.6-0.3-0.6-0.4c-0.1-0.3-0.3-0.9-0.3-1.3c0-0.4-0.7-0.7-1-1.1c-0.3-0.3-0.7-0.4-0.9,0c-0.2,0.3-0.4,0.6-0.8,1.1
	c-0.4,0.5-0.1,0.9-0.5,1.3c-0.4,0.4-0.9,0.9-1.6,0.4c-0.7-0.5-0.8,0.2-1,0.4s-0.1-0.2-0.3-0.7s0-0.6,0-1.1c0.1-0.4,0-0.7-0.2-0.8
	c-0.2-0.1-0.5-0.9-0.5-1.3C205.1,63.1,205.1,63,205.1,62.9z"/>
  <text transform="matrix(1 0 0 1 208.8363 60.4138)" fill="#FFFFFF" font-family="'Pacifico'" font-size="2.8347">Auvergne</text>
</a>
<a id="burgundy" xlink:href="http://www.frenchestateagents.com/" target="_top">
<path fill="#FCCF9E" d="M213.1,41.2l0.2-0.5c0,0,0.1-0.4,0.1-1.3c0-0.9,0.1-1.6-0.1-2c-0.2-0.3-0.5-1.9-0.5-1.9l-0.9-0.8
	c0,0,0.4-0.4,0.4-1.3c0-0.8-0.7-1.2-0.5-1.4c0.3-0.2,1.2,0,0.7-0.6c-0.5-0.6,0.4-0.5-0.1-1.1c-0.5-0.5-1.1-1-0.6-1.1s1,0.3,1-0.3
	s-0.2-1.5,0.2-1.6c0.4-0.1,1.3-0.4,0.8-1.1c-0.5-0.6-0.2-1.2-0.8-1.3c-0.5-0.2-0.9-0.5-0.4-1c0.5-0.5,0.7-0.6,0.5-1
	c-0.1-0.4,0.1-0.9,1-0.9c1,0,1.6-0.1,1.9-0.2c0.3-0.1,1.3,0.5,1.4,1.2c0.2,0.6-0.5,0.9,0,1.3s1.2-0.2,1.4,0.4
	c0.3,0.6,0.3,1.8,0.8,2.1c0.5,0.3,0.4,0.5,1.2,0.5c0.8,0,1.5-0.4,1.6-0.5c0.2-0.1,0.4,0.2,0.7,0.3c0.3,0.1,0.5,0,0.9-0.2
	c0.4-0.2,1,0,1.2-0.4c0.2-0.4,0.6-0.7,1-0.4c0.4,0.2,0.9,0.1,1.2,0.5s-0.1,0.8,0.3,1c0.4,0.2,1.3,0.4,1.1,1
	c-0.2,0.6-0.3,1.3-0.1,1.4c0.1,0.1,0.6,0,0.9,0.3c0.3,0.3,0.6,0,0.7,0c0.1,0,0.8,0.3,1,0.6c0.2,0.3,0.9-0.2,0.9-0.2
	c0.1,0.1,0.2,0.1,0.5,0.2c0.5,0.2,0.2,1-0.2,1.5c-0.4,0.4,0.2,0.8,0.6,1.4c0.4,0.6,0.1,0.7,0.1,1.6c0,0.9-0.6,1.6-0.9,1.9
	c-0.4,0.2-0.5,0.2-0.5,0.8c0,0.5-0.6,0.5-0.4,0.7c0.2,0.2,0.9,0.7,1.5,1c0.5,0.4-0.1,0.4-0.5,0.6c-0.4,0.2-0.2,0.7,0.2,1.3
	c0.4,0.5,0.5,0.8,0.3,1.2c-0.2,0.4-0.6,0.3-0.3,0.8c0.3,0.5,0.5,0.7,0.1,0.8c-0.1,0-0.4,0.1-0.8,0.3c-0.2,0-0.4,0.1-0.7-0.2
	c-0.4-0.6-0.6-0.4-1.2-0.2c-0.5,0.3-0.7-0.7-1.1-0.3c-0.4,0.5-0.2,1.6-0.5,2.7c-0.3,1-0.9,1.8-1.2,1.1c-0.2-0.7-0.4-0.6-0.9-0.4
	c-0.4,0.2-0.2-1-0.6-0.7c-0.4,0.3-0.8,0-1.1-0.1c-0.3,0,0,0.7-0.4,1.3c-0.4,0.7-1.4-0.1-1.9-0.1c-0.5,0-0.6,0.6-1.1,0.3
	c-0.5-0.3-1.1-0.4-1.5-0.2c-0.4-0.6-0.1-0.9,0.1-1c0.2-0.1,1.1-0.3,1.3-0.5c0.2-0.3,0-0.9,0-1.7c0-0.8-1.3-0.5-1.8-0.8
	c-0.5-0.3-0.2-0.5-0.2-1.1c-0.1-0.5-0.5-0.4-0.7-0.7c-0.1-0.3-0.4-1-0.5-0.8c-0.1,0.1-0.4,0.5-0.4,0.8c-0.1,0.3-0.2,0.5-0.6,0.4
	c-0.3-0.1-0.5-0.9-0.7-0.7c-0.2,0.2-0.7,0.2-1,0c-0.3-0.3-0.4,0.6-0.6,0.2s-0.4-0.4-0.8-0.4C213.3,41.7,213.4,41.6,213.1,41.2z"/>
  <text transform="matrix(1 0 0 1 216.1082 37.1989)" fill="#FFFFFF" font-family="'Pacifico'" font-size="2.8347">Burgundy</text>
</a>
<a id="limousin" xlink:href="http://www.frenchestateagents.com/" target="_top">
<path fill="#EB5C16" d="M193,53.9c0,0,0.1-0.7,0.5-1.1c0.4-0.4,1-0.5,1.1-1c0.1-0.5,0.9-0.1,0.9-0.9c0-0.8-0.9-0.7-0.9-1.3
	c-0.1-0.6,0.2-0.9-0.1-1.3c-0.4-0.4-0.1-1,0.6-1s0.9-0.3,1.1-0.7c0.2-0.5,1-0.6,1.3-0.6c0.3,0,1,0.3,1.1,0c0.1-0.3,0.7-0.1,1,0.2
	c0.3,0.3,0.5,0.1,0.9-0.3c0.4-0.4,0.4,0.3,1,0.3c0.5-0.1,0.9-0.3,0.9-0.3s0.3-0.8,0.6-0.6c0.2,0.1,2,0.2,3.6,0.3
	c0.1,0.5,1.1,1.2,1.6,1.7c0.5,0.6,0.5,0.9,1.1,1.7c0.6,0.8,0.1,1.8,0,2.4c-0.1,0.7-1,0.6-1.4,1.3c-0.4,0.7,0.6,1,0.9,1.5
	c0.4,0.5,0.1,0.7-0.4,1.1c-0.4,0.4-0.1,0.7,0.3,1.3s0.1,1.1-0.3,1.4s-1.1-0.6-1-0.2c0.1,0.4,0.2,0.7-0.3,1.1c-0.5,0.4-1,1-1,1.2
	s0.4,0.9-0.2,1.2s-0.3,0.7-0.4,1.1c0,0.1-0.2,0.4-0.5,0.6c-0.1-0.3-0.4-0.4-0.6-0.2c-0.3,0.2-0.4,0.2-0.7,0.1
	c-0.3-0.1-0.1,0.3-0.9,0.5c-0.8,0.2-0.6-0.2-0.8-0.5c-0.2-0.3-0.7-0.6-1.2-0.9c-0.4-0.3-0.5,0-0.9,0.3c-0.2-0.5-0.5-1-0.5-1.2
	c0-0.3-0.2-0.2-0.8-0.2c-0.6,0-0.3-0.3-0.3-1s-0.5-0.6-0.3-1.3c0.2-0.7,0.7-0.7,0.5-0.8c-0.2-0.1-0.2-0.2-0.1-0.6
	c0.1-0.4-0.4-0.4-1-0.6c-0.5-0.1-0.2-0.3,0-0.7c0.2-0.4-0.7,0.1-0.8-0.6c-0.1-0.6-0.5-0.7-1.4-0.4s-1.2,0.3-0.9-0.4
	C194.6,53.8,194.1,53.9,193,53.9L193,53.9z M198.8,64.7L198.8,64.7C198.8,64.7,198.8,64.7,198.8,64.7z"/>
  <text transform="matrix(1 0 0 1 196.9697 53.9374)" fill="#FFFFFF" font-family="'Pacifico'" font-size="2.8347">Limousin</text>
</a>
<a id="centre" xlink:href="http://www.frenchestateagents.com/" target="_top">
<path fill="#F3932B" d="M188.8,36.4L188.8,36.4c0,0-0.2-1.2,0.4-2c0.6-0.8,0.6-1.1,0.7-2c0.1-0.9,0.5-1.3,0.9-1.3
	c0.5,0.1,1.2-0.5,1.8-0.5c0.6,0,0.9-0.2,0.9-0.6c0-0.4,0.4-0.3,0.9-0.8c0.5-0.5,0.5-0.8,0.5-1.2s0.4-0.4,0.4-0.9s-0.4-0.9,0-1.3
	c0.4-0.4,0.8-0.8,0.8-1.1c-0.1-0.3-0.8-0.4-0.7-0.9c0.1-0.5-0.6-0.9-0.2-1.3c0.5-0.4,2.2-1.3,1.2-2.3c-1-1.1-1.4-1.5-0.9-2.1
	c0.5-0.6,1.5-0.5,1.8-0.8c0.3-0.3,0.8-0.2,1.1-0.2c0.4,0,0.7,0.2,1,0s0.2-0.7,0.5-1c0.3-0.3,0.3,0,0.5-0.3c0.2-0.3-0.1-0.2,0.1-0.5
	c0.1-0.3,0.4-0.5,0.4-0.5s-0.1,0.5,0.3,1.1c0.3,0.6,0.4,0.9,0.4,1.3s0,0.5,0.2,1c0.2,0.5,0.3,0.8,0.6,1s0.5,0.1,0.5,0.9
	c0,0.8,0.5,0.7,0.9,0.9c0.4,0.2,0.7-0.1,0.7,0.8s0.1,1.3,0.1,1.3s0.6,0.4,1.1-0.1c0.6-0.5,0.7-0.3,0.9-0.2s0.6-0.1,0.8-0.1
	c0.2,0,0.7,0.1,0.7,0.4c0,0.3,0.5,0.9,0.7,1c0.2,0.1,0.4,0.5-0.1,0.7c-0.5,0.2,0.1,0.5,0.6,0.5c0.5,0,1.3-0.7,2.2-0.4
	c0.3,0.1,0.6,0.1,0.9,0c0.1,0.1,0.3,0.2,0.5,0.3c0.5,0.2,0.3,0.7,0.8,1.3c0.5,0.6-0.4,1-0.8,1.1c-0.4,0.1-0.1,1.1-0.2,1.6
	s-0.6,0.2-1,0.3c-0.5,0.1,0.1,0.6,0.6,1.1c0.5,0.5-0.4,0.5,0.1,1.1c0.5,0.6-0.4,0.4-0.7,0.6c-0.3,0.2,0.5,0.6,0.5,1.4
	c0,0.8-0.4,1.3-0.4,1.3l0.9,0.8c0,0,0.3,1.6,0.5,1.9c0.2,0.3,0.1,1.1,0.1,2s-0.1,1.3-0.1,1.3l-0.2,0.5c-0.1-0.1-0.1-0.1-0.2-0.2
	c-0.6-0.5-1.1,0.2-1.5,0.7c-0.4,0.4-0.7,0-1.3,0.4c-0.6,0.4-0.7,1-0.4,1.4c0.3,0.4-1,0.7-1.7,0.7c-0.7,0-1,0.6-1.2,1
	c0,0,0,0.1,0,0.1c-1.6-0.1-3.3-0.2-3.6-0.3c-0.4-0.2-0.6,0.6-0.6,0.6s-0.4,0.2-0.9,0.3c-0.5,0.1-0.6-0.7-1-0.3
	c-0.4,0.4-0.6,0.6-0.9,0.3c-0.3-0.3-0.9-0.5-1-0.2c-0.1,0.2-0.5,0.1-0.8,0.1c-0.1-0.2-0.2-0.7-0.2-0.8c-0.1-0.2,0-0.5-0.2-0.9
	c-0.2-0.4-0.7-0.3-1-0.3c-0.2,0-0.5-0.3-0.9-0.8s0-1.3-0.1-1.6c-0.1-0.2-0.6-0.5-1-1c-0.4-0.5-0.4-1.4-0.6-1.6
	c-0.2-0.2-0.9-0.7-1-0.5c-0.1,0.3-0.3,0.4-0.7,0.6c-0.4,0.2-0.7,0.2-1,0.2c-0.3,0-0.5-0.5-0.5-1c0-0.4-0.1-0.5-0.5-0.6
	c-0.4-0.1-0.5-0.1-0.7-0.4C189.5,37,189.1,36.6,188.8,36.4z"/>
  <text transform="matrix(1 0 0 1 198.365 35.1204)" fill="#FFFFFF" font-family="'Pacifico'" font-size="2.8347">Centre</text>
</a>

</svg>
