<?xml version="1.0" encoding="utf-8"?>
<!-- Generator: Adobe Illustrator 17.1.0, SVG Export Plug-In . SVG Version: 6.00 Build 0)  -->
<!DOCTYPE svg PUBLIC "-//W3C//DTD SVG 1.1//EN" "http://www.w3.org/Graphics/SVG/1.1/DTD/svg11.dtd">
<svg version="1.1" id="Layer_1" xmlns="http://www.w3.org/2000/svg" xmlns:xlink="http://www.w3.org/1999/xlink" x="0px" y="0px"
	 viewBox="171 8 80 66" enable-background="new 171 8 80 66" xml:space="preserve">
    <style type="text/css" >
    @import url(http://fonts.googleapis.com/css?family=Pacifico);
  
    a:hover text
    {
        text-decoration: underline;
        fill: #fff;
    }

    #picardly:hover path {fill: rgb(57, 58, 179);}
    #nordpas:hover path {fill: rgb(96, 143, 228);}
    #upper:hover path {fill: rgb(250, 115, 0);}
    #lower:hover path {fill: rgb(229, 3, 28);}
    #brittany:hover path {fill: rgb(57, 110, 219);}
    #pays:hover path {fill: rgb(26, 207, 219);}
    #paris:hover path {fill: rgb(121, 121, 121);}
    
    a:hover path{
      stroke: #F2CA22;
      stroke-width: 0.4px;
    }
  </style>
<a id="nordpas" xlink:href="http://www.frenchestateagents.com/" target="_top">
<path fill="#99B1DD" d="M225.7,21.8c0.1-0.2,0.1-0.3,0-0.7c0-0.6,0.3-1,0.3-1.2c0-0.2-0.2-0.1-0.2-0.7c0-0.5-0.1-1.2,0-1.9
	c0.1-0.7,0.3-0.5,0.2-1c-0.1-0.5-0.5-0.4,0.3-0.9c0.9-0.5,1-0.5,1.6-0.9c0.7-0.4,1.4-0.3,2.2-0.5c0.8-0.2,1.3-0.3,1.7-0.4
	c0.4-0.2,1-0.4,1.2-0.4c0,0.3,0.1,0.6,0.2,0.8c0.3,0.4,0.4,0.4,0.3,1.2c-0.1,0.8,0.1,1,0.4,1.1c0.3,0,0.6,0.5,0.7,1
	c0.2,0.5,0.9,0.5,1.2,0.6c0.3,0.1,0.4-0.7,1.2-0.9c0.8-0.3,0.6,0.1,0.9,0.5c0.2,0.4,0.6,0.5,0.7,1c0,0.5-0.2,1,0.3,1.5
	c0.4,0.4,1,0.1,1.3-0.1c0.3-0.2,0.5,0.3,0.7,0.3c0.2,0,0.7,0.1,0.8,0.7c0.1,0.6,0,1.2,0.1,1.5c0.2,0.3,0.5-0.3,0.8-0.5
	c0.3-0.2,0.5,0.2,0.9,0.2c0.4,0,0.6-0.3,0.8-0.1s0.6,0.2,1.2,0.6c0.6,0.5,0,0.4-0.2,1c-0.2,0.6,0.2,0.6,0.4,0.9
	c0.2,0.3,0.2,0.6-0.3,1c-0.5,0.3-0.1,0.7,0.3,0.9c0.1,0,0.2,0.1,0.3,0.1c-0.3,0-0.9,0-1.1-0.2c-0.4-0.3-1.3-0.5-1.7-0.6
	c-0.3-0.1-0.6-0.5-1.6,0.2c-1.1,0.7-1.1-0.6-2,0c-1,0.6-1.5,0.1-2.1-0.4c-0.6-0.6-0.9,0-1.3,0.4c-0.4,0.4-0.9,0.3-1.3-0.9
	c-0.4-1.3-0.7,0.9-1,0c-0.3-0.9-1.1,0.2-1.9-0.1s0.7-0.7,0.3-1.2c-0.4-0.5-1.4,0-2.4,0c-0.9,0-1-0.6-1.3-1.3s-1.3-0.4-2.3-0.4
	C226.2,22,225.9,22,225.7,21.8z"/>
  <text transform="matrix(1 0 0 1 230.2115 20.5334)" fill="#FFFFFF" font-family="'Pacifico'" font-size="2">Nord Pas </text>
  <text transform="matrix(1 0 0 1 230.6915 22.9338)" fill="#FFFFFF" font-family="'Pacifico'" font-size="2">de Calais</text>
</a>
<a id="picardly" xlink:href="http://www.frenchestateagents.com/" target="_top">
<path fill="#595AA4" d="M224.3,25.3c0.5-0.6,0.9-0.9,0.9-1.3c0-0.4,0.3-0.8,0.5-0.7c0.3,0.1,0.7,0.3,0.7,0.3s-0.1-0.2-0.6-0.6
	c-0.5-0.5-0.2-0.6-0.1-1.1c0-0.1,0-0.1,0.1-0.2c0.2,0.1,0.5,0.2,0.7,0.2c1,0,2-0.4,2.3,0.4c0.3,0.7,0.3,1.3,1.3,1.3
	c0.9,0,2-0.5,2.4,0c0.4,0.5-1.1,0.9-0.3,1.2c0.8,0.3,1.6-0.8,1.9,0.1c0.3,0.9,0.6-1.3,1,0c0.4,1.3,0.9,1.3,1.3,0.9
	c0.4-0.4,0.7-0.9,1.3-0.4c0.6,0.6,1.1,1,2.1,0.4c1-0.6,1,0.7,2,0c1.1-0.7,1.3-0.4,1.6-0.2c0.3,0.1,1.3,0.3,1.7,0.6
	c0.3,0.2,0.8,0.2,1.1,0.2c-0.1,0.2-0.1,0.5,0,0.6c0.2,0.3,0.2,0.6,0.1,0.9s-0.4,0.6-0.1,0.8c0.3,0.3,0,0.4-0.1,0.8
	c-0.1,0.4-0.6,0.7-0.9,0.7c-0.3,0-0.5,0.3-0.3,0.5c0.2,0.2,0.3,0.5,0,0.9c-0.3,0.5-0.2,0.8,0,0.9c0.2,0.2,0.2,0.7,0.1,0.8
	c-0.1,0.1-0.7,0.1-0.9,0c-0.2,0-0.4,0.1-0.7,0.4c-0.3,0.3-0.7,0-1,0.1s-0.3,0.4-0.4,0.8c-0.1,0.4,0.4,0.6,0.6,1.1
	c0.2,0.4-0.3,0.3-0.6,0.2c-0.3-0.1-0.3,0.7-0.5,1c-0.2,0.3,0.7,0.4,0.4,0.7c-0.2,0.2-0.6,1.2-1.2,2.2c-0.3,0.5-0.5,0.6-0.6,0.6
	c0,0,0.2-0.6,0-1c-0.2-0.4-1.2-0.9-1.7-1.3c-0.5-0.4-0.2-0.8-0.3-1.3c-0.1-0.5-1-0.4-1.3-0.1c-0.2,0.3-0.8,0.2-1.6,0.2
	c-0.8,0.1-1.4-0.2-2-0.3s-0.7-0.6-1.4-0.7c-0.7-0.2-0.8,0.4-1.3-0.1c-0.5-0.5-0.8-0.3-1.3,0c-0.5,0.3-1.4,0.5-2.1-0.3
	c-0.1-0.1-0.3-0.2-0.5-0.3l0.1-0.1c0.4-0.3,0.6,0.1,0.6-0.5c0-0.7-0.4-1-0.4-1.5c0.1-0.6,0.7-1.2,0.3-1.3c-0.3,0-0.5-0.4-0.4-0.7
	c0.1-0.4-0.2-0.2-0.1-0.6c0.1-0.3,0.7-0.5,0.3-0.7c-0.4-0.2-0.5-0.2-0.2-0.7c0.4-0.4,0.5-0.5,0.1-0.9c-0.3-0.5-0.3-0.9-0.9-1.5
	C225.8,26.6,225,26,224.3,25.3z"/>
  <text transform="matrix(1 0 0 1 230.1621 32.1839)" fill="#FFFFFF" font-family="'Pacifico'" font-size="3.2">Picardy</text>
</a>
<a id="upper" xlink:href="http://www.frenchestateagents.com/" target="_top">
<path fill="#E27519" d="M215.9,32.6c0.4-0.1,0.8-0.2,0.8-0.2c0.1-0.1-0.9,0.1-1.5,0c-0.6-0.1-1-0.6-0.8-1.1s0.7-1.4,0.7-1.6
	s1.2-0.8,1.7-1.1c0.5-0.3,1-0.7,1.9-1c0.9-0.3,2-0.2,2.6-0.5c0.5-0.4,2.3-0.8,2.8-1.5c0.1-0.1,0.1-0.1,0.2-0.2
	c0.8,0.6,1.6,1.3,1.8,1.6c0.6,0.6,0.5,1,0.9,1.5c0.3,0.5,0.3,0.5-0.1,0.9c-0.4,0.4-0.2,0.5,0.2,0.7c0.4,0.2-0.2,0.4-0.3,0.7
	c-0.1,0.3,0.2,0.2,0.1,0.6c-0.1,0.4,0.1,0.7,0.4,0.7c0.3,0-0.3,0.7-0.3,1.3c-0.1,0.6,0.4,0.9,0.4,1.5c0,0.7-0.2,0.2-0.6,0.5
	c-0.4,0.3-0.2,0.9-0.3,1.3c-0.1,0.4-0.2,0.8-0.6,0.7c-0.4,0-0.9,0-0.9,0.2s0.3,0.9,0.3,0.9s-0.3,0.3-0.4,0.5
	c-0.1,0.3,0.1,0.2-0.1,0.5c-0.2,0.3-0.2,0-0.5,0.3c-0.3,0.3-0.3,0.7-0.5,1c-0.3,0.2-0.6,0-1,0c-0.4,0-0.8-0.1-1.1,0.2
	c-0.3,0.3-1.3,0.2-1.8,0.7c-0.1,0.1-0.1,0.2-0.2,0.2c-0.3-0.2-0.5-0.5-0.5-0.8c0-0.4-0.3-0.5-0.5-0.9c-0.1-0.4-0.7-0.9-1-0.7
	c-0.3,0.2-0.8-0.1-1-0.4c-0.1-0.4,0.2-0.9,0-1.3c-0.2-0.4-0.5-0.3-0.3-0.8s0.3-0.5,0.2-1.1c-0.1-0.5-0.4-0.4-0.4-0.7
	c0-0.3,0-0.6-0.2-0.7c-0.2-0.1-0.1-0.9-0.1-1.2C215.9,33,215.9,32.6,215.9,32.6z"/>
  <text transform="matrix(1 0 0 1 219.0227 31.8869)" fill="#FFFFFF" font-family="'Pacifico'" font-size="2.2">Upper</text>
  <text transform="matrix(1 0 0 1 216.9427 34.5257)" fill="#FFFFFF" font-family="'Pacifico'" font-size="2.2">Normandy</text>
</a>
<a id="lower" xlink:href="http://www.frenchestateagents.com/" target="_top">
<path fill="#C91529" d="M201,41.3c0,0,0.1,0,0.2,0c0.5,0,1.2-0.1,1.2-0.1s-0.5,0-0.9-0.6c-0.4-0.6-0.3-1.2-0.3-1.4
	c0-0.3,0.1-0.6,0.1-0.9c0-0.3,0.1-0.9,0-1.1s-0.3-1.2-0.2-1.5c0-0.3,0.1-0.8,0-1s-0.3-0.5-0.4-0.9c-0.1-0.4-0.4-0.8-0.6-1.1
	c-0.2-0.3-0.4-0.1-0.4-0.6c0-0.6,0-0.4-0.3-0.8c-0.2-0.4-0.1-0.7,0-1.1c0.2-0.4-0.1-0.8-0.3-1c-0.2-0.2-0.3-0.4-0.3-0.6
	s0.3-0.4,0.7-0.2c0.3,0.2,0.8,0.3,1,0.3c0.1-0.1,0.4,0.4,0.6,0.4c0.3,0,0.6,0.3,0.9,0.2c0.3-0.1,0-0.4,0.5-0.5
	c0.6-0.1,0.9-0.2,1.4,0.1c0.4,0.3,0.7,0.5,0.4,0.8c-0.3,0.3-0.6,0.6-0.5,0.9s0.2,0.8,0.5,1.1c0.3,0.3,0.4,0.4,0.5,0.7
	c0.1,0.3,0.1,0.9,0.1,0.9s0.2-0.7,0.7-0.7c0.6,0,0.7,0,1,0s0.3,0.3,0.6,0.3c0.3,0,0.6,0.2,0.9,0.2c0.4,0,1.3,0.3,2.2,0.3
	s1.1,0.5,1.7,0.6c0.6,0.1,1.3-0.1,2-0.6c0.6-0.6,0.9-0.8,1.5-0.9c0.2,0,0.3,0,0.5-0.1l0,0c0,0,0,0.4,0,0.7c0,0.3-0.1,1.1,0.1,1.2
	c0.2,0.1,0.2,0.4,0.2,0.7c0,0.3,0.3,0.2,0.4,0.7s-0.1,0.6-0.2,1.1c-0.2,0.5,0.2,0.4,0.3,0.8c0.2,0.4-0.1,0.9,0,1.3s0.6,0.7,1,0.4
	c0.3-0.2,0.9,0.3,1,0.7c0.1,0.4,0.4,0.5,0.5,0.9c0,0.2,0.2,0.5,0.5,0.8c-0.2,0.5,0.2,0.9,1,1.8c1,1-0.7,1.9-1.2,2.3
	c-0.5,0.4,0.2,0.7,0.2,1.2s0.6,0.7,0.7,0.9c0,0,0,0,0,0.1c0,0-0.6-0.1-0.9-0.5c-0.3-0.4-0.6-0.6-0.8-0.7c-0.3,0-0.5,0.1-0.8-0.1
	c-0.3-0.2-0.6-0.5-0.8-0.5c-0.2,0-0.5-0.2-0.7-0.8c-0.2-0.6-0.1-1-0.3-1.2c-0.2-0.2-1.2-0.1-1.5,0.3c-0.3,0.4-0.6,0.6-1.2,0.5
	c-0.5,0-0.4-0.2-0.4-0.6c0-0.5-0.6-0.5-0.6-1.1c-0.1-0.7-0.9-0.3-1-0.1s-0.5,0.6-0.6,0.5c-0.1-0.1-1.3-0.5-1.4-0.2
	c-0.1,0.4-0.5,0.6-0.8,0.5s-0.6-0.2-0.6-0.1c-0.1,0.1-0.6,0.2-1.1-0.4c-0.5-0.6-0.5,0-1,0c-0.5,0-0.8-0.1-0.8-0.1s-1.3-0.8-1.7-0.3
	c-0.4,0.5-1.1,0.7-1.6,0C201.3,42.6,201.1,41.8,201,41.3z"/>
  <text transform="matrix(1 0 0 1 205.6178 37.797)" fill="#FFFFFF" font-family="'Pacifico'" font-size="3.2">Lower </text>
  <text transform="matrix(1 0 0 1 203.0181 41.6369)" fill="#FFFFFF" font-family="'Pacifico'" font-size="3.2">Normandy</text>
</a>
<a id="brittany" xlink:href="http://www.frenchestateagents.com/" target="_top">
<path fill="#3156A3" d="M193.2,55C193.2,55,193.2,54.9,193.2,55c-0.2-0.1,0-0.3,0.1-0.4c0.1-0.1-0.1-0.3-0.3-0.4
	c-0.2-0.1-0.6-0.6-0.9-0.3c-0.3,0.2-0.1,0.4-0.3,0.5c-0.3,0.1-0.5-0.2-0.8,0c-0.2,0.2-0.5,0.1-0.7-0.2c-0.2-0.2-0.2-0.6,0.1-0.5
	c0.3,0,1,0.1,1.1-0.1c0.1-0.1,0.2-0.6-0.3-0.7s-0.9,0.1-1.1,0.2c-0.1,0.1-0.5-0.1-0.7-0.3c-0.2-0.2-0.5,0.6-0.8,0.6
	c-0.3,0-0.5,0.1-0.3,0.5s-0.1,0.9-0.4,0.6c-0.3-0.3,0-0.9,0-1.3c-0.1-0.4-0.2-0.3-0.1-0.7c0.1-0.3,0.6-0.9,0.4-1
	c-0.2-0.1-0.6,0.8-0.9,0.7c-0.2-0.2-0.7-0.6-0.6-0.8s0-0.6-0.3-0.2s-0.7,0.5-0.8,0.4c-0.1-0.1-0.2-0.9-0.6-0.9
	c-0.5,0-1.1-0.4-1.6-0.4c-0.5,0-0.7,0.1-1-0.3c-0.3-0.5-0.2-1.3-0.5-0.8c-0.4,0.5-0.5,0.5-0.8,0.2c-0.3-0.3-0.7-0.4-0.7-0.2
	s0.2,0.6,0,0.8c-0.3,0.2-0.7,0.2-1,0.2c-0.3-0.1-0.6-0.3-0.5-0.6c0-0.3,0.4-0.5,0-0.9c-0.4-0.4,0.1-0.5-0.5-0.8
	c-0.6-0.3-0.7-0.3-1.3-0.5c-0.6-0.3-0.5-0.8,0-0.8c0.5,0,1.3,0,1.6-0.1c0.4-0.1,1.7,0.2,1.2-0.5c-0.5-0.7-0.9-1.3-1.4-0.9
	c-0.5,0.3-0.8,0.3-0.7,0c0-0.3,0.3-0.4-0.1-0.8c-0.4-0.4,0.3-0.6,0.4-0.4c0.2,0.2,0.7,0.3,1.2,0.2c0.5,0,0.5-0.4,0.2-0.4
	s-0.8,0-0.7-0.2c0-0.2,0.6-0.6,0.6-0.6s-0.7,0.4-1.1,0.4c-0.4,0-0.8,0.1-1,0.1c-0.2,0-0.8,0.1-0.8,0.1c0-0.1-0.2-0.7-0.1-1.3
	c0.1-0.6-0.1-1,0.5-1.3c0.6-0.4,1.5-0.4,1.8-0.6s1.3-0.4,1.3-0.4s0,0.4,0.4,0.4c0.4,0,0.5-0.6,1-0.6s1.3-0.2,1.4-0.3
	c0.1-0.1,0.3,0.1,0.3,0.5c0,0.4,0.3,0.3,0.5,0.5c0.2,0.2,0.2-0.8,0.5-0.8c0.3,0,1.1,0.6,1.2,0.7c0.1,0,0.5,0.3,0.5-0.1
	c0-0.4,0.5-0.4,0.2-0.7s0.2-0.7,0.5-0.8c0.3-0.1,0.8,0.6,1,0.4c0.2-0.2,0.8-0.2,1.1-0.4c0.2-0.3,0.6,0,0.6,0s0.8-0.5,0.8-0.1
	c0,0.4,0.4,0.6,0.6,0.7s-0.4,0.3,0,0.5c0.4,0.2,0.5,0.3,0.5,0.4c0,0.2,0.6,0.8,0.8,0.9c0.1,0,0.2,0.3,0.2,0.6s0.5,0.5,0.6,0.7
	c0,0.2,0.1,0.6,0.1,0.6s1.7-1.3,1.9-1.4c0.2-0.2,0.6-0.1,0.8-0.1c0.2,0,0.3-0.6,0.6-0.4c0.3,0.2,0.1,0.6,0.4,0.6
	c0.3,0.1,0.3,0.8,0.6,0.5s0.3-0.6,0.4-0.5c0.1,0,0.5,0.1,0.8-0.1c0.3-0.2,0.4-0.3,0.8-0.4c0.4,0,0.6-0.2,0.6-0.2s-0.2,0.7,0,1
	c0.1,0.3,1.3,0.2,1.6,0.1c0.2,0,0.1-0.2,0.3-0.2c0.1,0.5,0.4,1.2,0.7,1.7c0.5,0.7,1.1,0.5,1.6,0c0.4-0.5,1.7,0.3,1.7,0.3
	s0.1,0.6,0.1,1c0,0.3,0,1-0.3,1.4c-0.3,0.4,0,0.7,0.1,1.3s0,1.3,0.3,1.7c0.3,0.4-0.3,0.7-0.6,0.7s-0.6,0.6-0.7,1
	c-0.1,0.5-0.1,0.7-0.4,1.1c-0.3,0.4-1,0.3-1.2,0.1c-0.2-0.2-1.2-0.5-1.4,0.1c-0.2,0.5-1.1,0.9-1.5,1c-0.4,0.1-0.8-0.1-1.1-0.1
	c-0.3,0-1.1,0.2-1.4,0.2c-0.3,0-0.3,1-0.4,1.2c-0.1,0.2-0.6,1.1-0.8,0.9s-0.7-0.2-0.9,0c-0.2,0.2-0.6,0.4-1,0.2
	C193.6,54.9,193.4,54.9,193.2,55z"/><text transform="matrix(1 0 0 1 186.3583 48.0275)" fill="#FFFFFF" font-family="'Pacifico'" font-size="3.2">Brittany</text></a>
<a id="pays" xlink:href="http://www.frenchestateagents.com/" target="_top">
<path fill="#56BFC6" d="M203.2,69.1c-0.1-0.2-0.3-0.4-0.5-0.2c-0.3,0.3-0.7,0-0.8-0.1c-0.1-0.1,0-0.3-0.6-0.3
	c-0.5,0-0.7-0.2-0.7-0.4s-0.3-0.2-0.5-0.4c-0.2-0.2-0.5,0-0.8-0.2s-0.3-0.3-0.8-0.7c-0.4-0.3-0.7-0.6-0.7-0.6l-0.1-1
	c0,0-0.7-0.9-1.1-1.3c-0.4-0.4-0.9-1-1.1-1.4c-0.2-0.4,0.1-0.9,0.2-1.2c0.2-0.3,0.4,0,0.5-0.3s0-0.6,0.2-0.6c0.2-0.1,0.5-0.4,0-0.7
	c-0.5-0.3-1.6-0.7-1.6-0.7s0.5-0.2,0.6-0.6s-0.1-0.6,0.1-0.9c0.2-0.2,1-0.4,1.4-0.2c0.5,0.2,1.2,0.5,1.2,0.5s-0.5-0.2-0.7-0.5
	c-0.3-0.3-1.3-0.5-1.9-0.3c-0.6,0.3-0.8,0.6-1.1,0.6c-0.2,0-0.7-0.6-0.8-0.7c-0.2-0.1,0.2,0.5-0.2,0.3c-0.4-0.2-0.1-0.4-0.2-0.6
	c-0.1-0.2-0.7-0.6-0.7-0.6s0.4-0.4,0.5-0.7c0.1-0.3,0.1-0.3,0.1-0.4c0.2,0,0.3,0,0.4,0c0.3,0.2,0.8,0,1-0.2c0.2-0.2,0.7-0.2,0.9,0
	c0.2,0.2,0.7-0.7,0.8-0.9c0.1-0.2,0.1-1.2,0.4-1.2c0.3,0,1.2-0.2,1.4-0.2c0.3,0,0.7,0.2,1.1,0.1c0.4-0.1,1.3-0.5,1.5-1
	c0.2-0.5,1.1-0.3,1.4-0.1c0.2,0.2,0.9,0.3,1.2-0.1s0.3-0.6,0.4-1.1c0.1-0.5,0.3-1,0.7-1c0.3,0,0.9-0.4,0.6-0.7
	c-0.3-0.4-0.2-1.1-0.3-1.7c-0.1-0.6-0.4-0.9-0.1-1.3c0.3-0.4,0.3-1,0.3-1.4c0-0.3-0.1-1-0.1-1s0.3,0,0.8,0.1c0.5,0,0.5-0.6,1,0
	c0.5,0.6,1,0.5,1.1,0.4c0.1-0.1,0.3,0.1,0.6,0.1s0.7-0.2,0.8-0.5c0.1-0.4,1.3,0,1.4,0.2c0.1,0.1,0.5-0.3,0.6-0.5
	c0.1-0.2,1-0.5,1,0.1c0.1,0.7,0.6,0.7,0.6,1.1c0,0.5-0.1,0.6,0.4,0.6c0.5,0,0.9-0.1,1.2-0.5c0.3-0.4,1.2-0.6,1.5-0.3
	c0.2,0.2,0.1,0.6,0.3,1.2c0.2,0.6,0.5,0.8,0.7,0.8s0.5,0.3,0.8,0.5c0.3,0.2,0.6,0.1,0.8,0.1c0.3,0,0.5,0.3,0.8,0.7
	c0.3,0.4,0.9,0.5,0.9,0.5c0,0.3-0.4,0.6-0.7,1c-0.4,0.4,0,0.8,0,1.3c0,0.5-0.3,0.4-0.3,0.9s0,0.7-0.5,1.2c-0.5,0.5-1,0.4-0.9,0.8
	c0,0.4-0.3,0.6-0.9,0.6s-1.3,0.5-1.8,0.5c-0.5,0-0.9,0.3-0.9,1.3c0,0.9-0.1,1.3-0.6,2c-0.6,0.7-0.4,1.9-0.4,1.9h0
	c-0.1-0.1-0.2-0.1-0.3-0.1c-0.3,0-0.6,0.5-0.8,0.8c-0.2,0.3-0.4,0.2-0.6,0.1c-0.2,0-0.4-0.1-0.7-0.2c-0.2-0.1-0.8-0.1-1,0
	c-0.2,0.1-0.6,0.4-0.9,0.3c-0.2-0.1-0.6-0.2-0.6,0.1c0,0.3-0.4,0.4-0.6,0.7s-0.9,0-1.4,0c-0.4,0-1.2-0.4-1.2-0.4s0.1,0.7,0.2,0.8
	c0.1,0.1,0.6,0.8,0.6,1.2c0,0.3,0.6,0,0.8,0.8c0.2,0.8,0,0.5,0.3,1c0.3,0.5,0.2,0.6,0.3,1c0.1,0.5,0,0.7-0.1,1.2s-0.3,0.6,0,1.1
	c0.4,0.5,0.9,0.7,0.2,0.7s0,0.7-1.1,0.6s-0.9-0.2-1.5-0.6C204.5,68.3,203.7,68.7,203.2,69.1z"/>
  <text transform="matrix(1 0 0 1 200.3579 55.3823)" fill="#FFFFFF" font-family="'Pacifico'" font-size="3.2">Pays de </text>
  <text transform="matrix(1 0 0 1 201.1978 59.2228)" fill="#FFFFFF" font-family="'Pacifico'" font-size="3.2">la Loire</text>
</a>
<a id="paris" xlink:href="http://www.frenchestateagents.com/" target="_top">
<path fill="#9C9DA0" d="M226.6,35.3c0.2,0.1,0.4,0.2,0.5,0.3c0.7,0.8,1.6,0.6,2.1,0.3c0.5-0.3,0.8-0.5,1.3,0s0.6,0,1.3,0.1
	c0.7,0.2,0.8,0.6,1.4,0.7c0.6,0.1,1.2,0.3,2,0.3c0.8-0.1,1.3,0,1.6-0.2s1.2-0.3,1.3,0.1c0.1,0.5-0.2,0.9,0.3,1.3
	c0.5,0.4,1.6,0.9,1.7,1.3c0.2,0.4,0,1,0,1c-0.1,0-0.2,0,0,0.4c0.2,0.8,0.5,1.3,0.4,1.9c-0.1,0.7-0.5,0.1-0.5,1
	c0,0.9-0.5,1.6-0.5,1.6c-0.3,0-0.8,0.1-1.3,0.1c-1,0-1.1,0.4-1,0.8c0.1,0.4,0,0.5-0.5,1c-0.3,0.3-0.3,0.5-0.1,0.7
	c-0.3,0.1-0.6,0.1-0.9,0c-0.8-0.2-1.6,0.4-2.2,0.4c-0.5,0-1.1-0.3-0.6-0.5c0.5-0.2,0.3-0.6,0.1-0.7c-0.2-0.1-0.6-0.7-0.6-1
	c0-0.3-0.5-0.4-0.7-0.4c-0.2,0-0.6,0.1-0.8,0.1c-0.2-0.1-0.3-0.3-0.9,0.2c-0.6,0.5-1.1,0.1-1.1,0.1s-0.1-0.4-0.1-1.2
	c0-0.8-0.3-0.6-0.7-0.8c-0.3-0.2-0.8-0.1-0.9-0.9c0-0.8-0.2-0.7-0.5-0.9c-0.4-0.2-0.4-0.5-0.6-1c-0.2-0.5-0.3-0.6-0.2-1
	c0.1-0.4,0-0.7-0.3-1.3c-0.3-0.6-0.3-1.1-0.3-1.1s-0.3-0.7-0.3-0.9c0-0.2,0.5-0.3,0.9-0.2s0.5-0.3,0.6-0.7
	C226.5,36.1,226.3,35.6,226.6,35.3z"/>
  <text transform="matrix(1 0 0 1 230.0716 41.3539)" fill="#FFFFFF" font-family="'Pacifico'" font-size="2">Paris &amp; </text>
  <text transform="matrix(1 0 0 1 228.3315 43.7542)" fill="#FFFFFF" font-family="'Pacifico'" font-size="2">Ile de France</text>
</a>

</svg>
