<?xml version="1.0" encoding="utf-8"?>
<!-- Generator: Adobe Illustrator 17.1.0, SVG Export Plug-In . SVG Version: 6.00 Build 0)  -->
<!DOCTYPE svg PUBLIC "-//W3C//DTD SVG 1.1//EN" "http://www.w3.org/Graphics/SVG/1.1/DTD/svg11.dtd">
<svg version="1.1" id="Layer_1" xmlns="http://www.w3.org/2000/svg" xmlns:xlink="http://www.w3.org/1999/xlink" x="0px" y="0px"
	 viewBox="0 0 280.9 187.8" enable-background="new 0 0 280.9 187.8" xml:space="preserve">
  
  <style type="text/css" >
    @import url(http://fonts.googleapis.com/css?family=Pacifico);
  
    a:hover text
    {
        text-decoration: underline;
        fill: #fff;
    }
    
    #Provence:hover path{fill: rgb(247, 114, 8);}
    #Languedoc:hover path{fill: rgb(192, 17, 111);}
    
    a:hover path{
      stroke: #89B2EF;
      stroke-width: 2px;
    }
  </style>
  
<a id="Provence" xlink:href="http://www.frenchestateagents.com/" target="_top">
<path fill-rule="evenodd" clip-rule="evenodd" fill="#F2922A" d="M226.4,4.7c-0.5,1.9,0.6,4.4,3,4.9c2.9,0.6,1.1,1.6,1.3,5.1
	c0.2,3.5,2.9,4.5,5.4,5.5c2.4,1,5.4-0.5,8,1.9c2.6,2.4-0.1,4.2,1.1,5.6c1.1,1.4,1.4,4-1.1,3.3c-2.5-0.7-2.8,1.7-2.6,3
	c0.2,1.3-1.1,3.5-2.8,5.2c-1.6,1.7-1.1,2.9,0,4.8c1.1,1.9,1.4,2,1.6,3.9c0.1,1.9-1.3,3.7-0.1,5.5c1.2,1.8,3.3,5.8,5.3,6.6
	c1.9,0.8,4.4-0.1,5.8,1.1c1.4,1.2,4.2,1.7,6.2,2.9c2,1.2,6.5,2.4,6.5,2.4s6.5-4.5,9.2-5.4c2.7-0.9,3.3,1.9,2.6,3.6
	c-0.7,1.8,2.5,2.9,2.5,4.8c0,1.9-0.9,3.8-1.6,4.8c-0.6,1-6.1,5.9-7.7,8.7c-1.6,2.8,1.8,5.8,1.8,5.8c-0.3,0.2-0.7,0.4-1.5,1
	c-2.6,1.6-11.3,2.3-12.3,5.4c-1,3.1-2.9,3.5-2.8,6.2c0.1,2.6-1.8,1.9-4.9,2.6c-3.1,0.8-4.3,3.4-4.9,5.4c-0.4,1.4-0.7,2.1-1.9,2.4
	c-0.7,0.2-1.4,0.3-2.1,0.3c-3.1,0.2-4,0.9-4.5,2.3c-0.5,1.4-2.9,5.1-4.8,5.9c-1.9,0.8,3.1-0.8,2.5,2.8c-0.1,0.4-0.1,0.7-0.2,1.1
	c-0.3,2.7,0,4.1-1.5,4.7c-1.6,0.6-1.3-1-3.5-0.9c-2.3,0.1-2.6,2.9-4.8,2.6c-2.1-0.3-3.2,0.6-4,2.6c-0.8,1.9-1.9-0.3-4.1-0.5
	c-1.1-0.1-2.2-0.1-3.2,0.1c-0.8,0.2-1.9,0.5-2.1,1.5v0.1l0,0.3c-0.1,1.6-0.2,3.1-1.1,2.7c-0.5-0.2-0.9-1-1.5-1.6l0,0l0,0
	c-0.6-0.6-1.2-1-2-1c-2,0.1-1.8-1.4-3.9,0.1c-2.1,1.4-4.6,3.1-6.1,2.8c-1.4-0.2-2.2-2-4.3-3.9c-1-0.9-2.8-2.4-4-2.8
	c-0.4-0.1-4.3,1.9-5.6-0.6c-1.4-2.5-5-0.9-7.3-1.5c-2.3-0.6-1.5-2.3-1.9-4.5c-0.4-2.3,1-4.8-2.8-3.8c-3.8,1-9.7,0.2-11.4-0.3
	c-1.7-0.5-4.4-3.6-1.1-4.1c3.3-0.5,0.9-3-1.4-2.5c-2.3,0.5-0.6,3-2.5,2.9c-1.9-0.1-5-0.8-4.9,1c0.1,1.8-1.9,1.4-3.1,1.6
	c-1.3,0.2-3.6,1-4.9,1c-1.3,0-4.1,0.4-4.1-1.4c0-1.8,3-2.1-2-3c-5-0.9-8-1.1-10.7-1.1c-1.3,0-2.5,0.4-3.7,0.6
	c0.3-0.9,0.7-1.8,1.1-2.4c2-3.3,6.2-4.1,9-6.7c2.9-2.5,0-3.4,1.7-6.2c1.7-2.8,4.9-0.3,5.3-0.3c0.4,0,1.4-1.3,1.3-3.6
	c-0.1-2.3,0.1-3.5,0.2-7.5c0.1-4,3.1-1.1,8-4.8c5-3.8-1.4-7.1-4-9.8c-2.6-2.7-0.1-2-0.4-5.2c-0.3-3.2-2.8-4.9-4.3-5.7
	c-0.6-0.3-1.1-0.7-1.7-1.1c1.2-1.3,2.3-2.1,3.1-2.3c4.1-0.5,5.2,2.1,6.4,4c1.2,1.8,7-1.1,7-1.1s-1.3-1.1-2.7-2
	c-1.3-0.9-1.3-3.2,0-4.9c1.3-1.7,2.1-2.5,4-1.7c1.8,0.9,3.2,1.9,1.8,3.7c-1.4,1.8-2.3,3.6,0.4,3.8c2.6,0.2,4-0.3,5-0.8
	c1-0.5,1.1,2.6,1.7,4c0.6,1.4,3.2-1.3,6.2,1.4c3,2.8,3.7,2.9,6.3,4.6c2.6,1.7,5.8-1.8,6.5-3.3c0.7-1.5,3.8,3.6,4,0
	c0.3-3.6-0.3-7-3.3-7.3c-3-0.3-8.6-3.3-9.1-5.6c-0.5-2.3,3.8-1.8,2.5-3.6c-1.3-1.8-2.8-2.8,0.2-2.4c2.9,0.3,7.3,0.2,7-1.4
	c-0.4-1.6-2.3-3.4-1.3-4.7c1.1-1.3-1.1-4.6,3.7-4.3c4.8,0.3,6.5-0.9,5.5-3.8c-1-2.9,0.1-2.9,3.1-3.4c3-0.5,3.6-4.5,4.5-5.4
	c0.9-0.9,3.6,0.8,6.8-1.3c3.1-2,4.5-1.1,6.6-1.8c2.1-0.6,0.9-3.5,0.6-4.9c-0.3-1.4,1.5-3.9-1.4-3.5c-2.9,0.4-4.4,1.1-4-2
	c0.4-3.1-0.6-6.3,2-5c2.6,1.3,4.3,1.3,6.9,2.6c2.6,1.4,3.5-0.5,4.1-1.6C221,6.8,222.9,5.2,226.4,4.7z"/>
  <text transform="matrix(1 0 0 1 151.0443 85.8782)"><tspan x="0" y="0" fill="#FFFFFF" font-family="'Pacifico'" font-size="15">Provence-Alpes-</tspan><tspan x="12.3" y="19.2" fill="#FFFFFF" font-family="'Pacifico'" font-size="16">Côte d’Azur</tspan></text>
</a>
<a id="Languedoc" xlink:href="http://www.frenchestateagents.com/" target="_top">
<path fill-rule="evenodd" clip-rule="evenodd" fill="#D6398D" d="M120.2,114.8c-1.2,0.2-2.4,0.1-3.4-1c-2-2.3,1.5-4-3.5-4.5
	c-5-0.5-9.5,2.4-10.3,4.8c-0.8,2.4-7.4,4.8-12.1,7.9c-4.8,3-11.5,3.8-13,7c-1.5,3.3-7.8,10.3-7.8,10.3l-4,4.8c0,0,0.2,7,0,11
	c-0.3,4-0.8,7-0.8,10.8c0,3.8,0.8,4.8,2.3,7.3c1.5,2.5,3.5,3.8,3.7,6c0,0.4,0.1,0.8,0.1,1.2c-2.6-1.1-5.1-2.1-7.8-2.3
	c-8.9-0.6-6.8,2-10.2,4.3c-3.4,2.3-5.3,1.6-7.6,2.6c-2.3,0.9-5.3,1.5-7.7-1.3c-2.4-2.8-4.3-2.5-10.4-3.1c-6.1-0.6-6.2,4.8-9.6,5.1
	c-3.4,0.3-2.3-4.4-2.4-6.8c-0.1-2.4-2.9,0.1-5-1c-2.1-1.1-3.6-1.8-5.6-2.8c-1.8-0.9-0.6-2.8-0.4-4.6c1.6-0.3,3.4-0.5,4.8,0.3
	c2.8,1.6,5.1,0.8,5.9-1.1c0.8-1.9,0.9-3.1,3.9-3.1c2.9-0.1,5.6-5,0.8-4.9c-4.8,0.1-6.3-2.4-6.7-4.3c-0.4-1.9-0.9-3.3,0.4-3.3
	c1.4,0.1,5,0.8,3.3-2.5c-1.7-3.3-2.1-3.8-0.8-5.3c1.4-1.5-0.8-3.5-1.6-5.3c-0.8-1.8,0.3-3.3-3.3-4.5c-3.6-1.3-7.8-2.7-8-6.4
	c-0.2-3.7,0.9-3.7,1.9-5.7c1.1-1.9,2.6,0.5,3.3-2.4c0.7-3,0.7-5.2,2.7-3.2c2,2,2.9,0.2,4.5-0.9c1.6-1.1,3.2-1.1,4.3,0.9
	c1.1,2,1.3-1.6,4.1,0.1c2.8,1.8,4.5,1.2,4.8,0.1c0.3-1.1,0.6-2.9,3.4-1.8c2.8,1.1,6.1,0.4,7-0.3c0.9-0.8,1.4,1.6,3.5,0.8
	c2-0.8,5.4-0.5,5.5-2.9c0.1-2.4-1.3-3.9-1.5-6.6c-0.2-2.7-0.2-4.9,2-4.2c2.2,0.7,2.2,2.6,3.9,2.1c1.7-0.5,7-2.3,7.9-4.5
	c0.9-2.3,2.3-1.1,4.1-0.7c1.9,0.4,3.1-1.9,2.2-4S65.9,91,68.7,92c2.8,1,4.4,1.8,5.6-0.3c1.2-2,1.6-4.8,3.1-4.9
	c1.5-0.1,3.1-2.5,4.1-4c1-1.4,4.8-3.3-0.1-5.6c-4.8-2.3-4.2-3.2-2.7-6.2c1.5-2.9-2.9-3-4.3-3.2c-1.4-0.2-3-3.1-4.3-4.3
	c-1.3-1.1-1.4-1.9-0.6-4.4c0.7-2.5,0.8-1.9,0.6-4.3c-0.2-2.4-1.9-2.4-2.5-4.5c-0.6-2,0.9-3.7-1.1-5.8c-2-2.1-4.3-2.4-3.2-5.4
	c1.1-3,2.3-6.7,2.4-8.9c0.1-2.1,2.3-5.3,4-5.3c1.6,0.1,0.9,2.4,3.1-0.1c2.2-2.5,0.7-1.3,4-3c3.3-1.6,4.8-2,5.1,1.3
	c0.3,3.3-0.5,4.8,2.9,5.5c3.4,0.8,4.6-1.1,4.7-3c0.1-1.9,3.8-0.8,3.8,1.2c0.1,1.9,1.3,2.1,2.9,2.3c1.6,0.1,1.7,1.8,3.8,3.2
	c2.1,1.4,1.4-0.4,2.8,4.4c1.4,4.8,0.8,5.3,2.4,7.1c1.7,1.8,2.4,2.6,3.1,5c0.6,2.4,2.7,4.5,2.9,7.9c0.3,3.5,2,3.1,5.6,3.9
	c3.6,0.8,3,1.4,6-0.9c3-2.4,1.8,2.6,4.6,1.6c2.9-0.9,2-4.6,5-2.8c3,1.8,3.9,3,5.5,3.8c1.6,0.8,4,2.5,4.3,5.7
	c0.3,3.2-2.2,2.5,0.4,5.2c2.6,2.7,9,6,4,9.8c-5,3.8-8,0.8-8,4.8c-0.1,4-0.3,5.2-0.2,7.5c0.1,2.3-0.9,3.6-1.3,3.6
	c-0.4,0-3.6-2.6-5.3,0.3c-1.7,2.8,1.2,3.7-1.7,6.2c-2.9,2.5-7,3.4-9,6.7C120.8,113,120.5,113.8,120.2,114.8z"/>
  <text transform="matrix(0.6934 -0.7205 0.7205 0.6934 30.0227 171.956)" fill="#FFFFFF" font-family="'Pacifico'" font-size="15">Languedoc-Rousillon</text>
</a>
</svg>
